<svg width="38" height="46" viewBox="0 0 38 46" fill="none" xmlns="http://www.w3.org/2000/svg">
<path d="M4.11357 45.5C3.7841 45.3943 3.44595 45.3239 3.13381 45.1741C1.78988 44.5312 1.0182 43.4478 1.00953 41.924C0.983517 35.362 0.992188 28.8001 1.00086 22.2381C1.00086 20.274 2.57889 18.7149 4.51242 18.6885C5.05866 18.6797 5.61357 18.6621 6.15982 18.6973C6.54999 18.7238 6.76675 18.5916 6.95751 18.2217C9.60201 13.0866 12.2725 7.9692 14.9344 2.84295C15.0558 2.61395 15.1772 2.37613 15.2985 2.14712C16.1309 0.596918 17.7783 0.0596307 19.3217 0.869965C21.1511 1.83004 22.972 2.81653 24.7928 3.78541C27.2379 5.08899 29.6916 6.40138 32.1367 7.70496C32.2928 7.78424 32.4402 7.87231 32.5962 7.95159C34.1309 8.81477 34.6338 10.4619 33.8188 12.0385C32.7696 14.0908 31.6945 16.1254 30.6367 18.1777C30.5673 18.3186 30.498 18.4595 30.3853 18.6797C30.7668 18.6797 31.0876 18.6797 31.4084 18.6797C33.6194 18.6885 35.128 20.2035 35.1454 22.4495C35.154 23.9997 35.1454 25.5588 35.1454 27.109C35.1454 27.2675 35.1454 27.426 35.1454 27.6374C35.4748 27.6374 35.761 27.6286 36.0384 27.6374C36.654 27.6462 36.9835 27.9721 36.9835 28.5799C36.9922 30.9052 36.9922 33.2393 36.9835 35.5646C36.9835 36.1548 36.6454 36.4807 36.0644 36.4983C35.7783 36.5071 35.4922 36.4983 35.1627 36.4983C35.154 36.6832 35.1367 36.8418 35.1367 36.9915C35.1367 38.5153 35.1367 40.0391 35.1367 41.5629C35.1367 43.6239 34.1309 44.9187 32.1627 45.4031C32.1194 45.412 32.0933 45.4472 32.05 45.4736C22.7552 45.5 13.4344 45.5 4.11357 45.5ZM33.4459 36.5247C32.5442 36.5247 31.7032 36.5335 30.8708 36.5247C30.3506 36.5159 29.8303 36.5247 29.3188 36.4454C27.2465 36.1283 25.6945 34.261 25.6772 32.1207C25.6598 29.998 27.1772 28.0602 29.2234 27.7696C30.4113 27.6022 31.6425 27.6903 32.8477 27.6639C33.0298 27.6639 33.2118 27.6639 33.3853 27.6639C33.4113 27.567 33.4373 27.5229 33.4373 27.4877C33.4373 25.7437 33.4633 23.9997 33.4286 22.2558C33.4113 21.1724 32.5962 20.4413 31.4951 20.4413C22.5384 20.4413 13.5818 20.4413 4.63381 20.4413C3.47196 20.4413 2.71762 21.2164 2.71762 22.4055C2.71762 28.8617 2.71762 35.3268 2.71762 41.7831C2.71762 42.9898 3.48063 43.7561 4.66849 43.7561C13.5905 43.7561 22.5211 43.7561 31.4431 43.7561C32.6656 43.7561 33.4286 42.981 33.4373 41.7214C33.4459 40.7085 33.4373 39.6956 33.4373 38.6915C33.4459 37.9868 33.4459 37.2822 33.4459 36.5247ZM8.64826 18.6885C8.8997 18.6885 9.05577 18.6885 9.21184 18.6885C10.9546 18.6885 12.6974 18.6797 14.4488 18.6797C18.9575 18.6797 23.4748 18.6797 27.9835 18.6973C28.313 18.6973 28.4951 18.6181 28.6511 18.301C29.8303 15.9933 31.0355 13.6944 32.2321 11.3867C32.709 10.4707 32.5355 9.88934 31.6251 9.4049C27.3419 7.11483 23.05 4.81594 18.7494 2.52587C17.787 2.015 17.2147 2.19116 16.7032 3.16885C14.1107 8.16298 11.5182 13.1571 8.91704 18.1512C8.83901 18.301 8.76964 18.4595 8.64826 18.6885ZM35.2668 29.399C33.4459 29.399 31.6598 29.3726 29.8824 29.4078C28.4777 29.4343 27.3679 30.6938 27.3939 32.1471C27.4199 33.5652 28.5644 34.7631 29.9517 34.7807C31.6511 34.7983 33.3506 34.7895 35.0587 34.7807C35.128 34.7807 35.1974 34.7631 35.2754 34.7455C35.2668 32.9751 35.2668 31.2223 35.2668 29.399Z" fill="#101010" stroke="#101010" stroke-width="0.5"/>
<path d="M11.8477 18.5123C13.6164 15.1036 15.3592 11.7478 17.102 8.40954C19.4083 8.99968 20.1974 8.74424 21.576 6.99146C23.0586 7.78417 24.55 8.57689 26.0673 9.38723C25.6858 10.224 25.5904 11.0607 25.8592 11.9239C26.1193 12.7695 26.6569 13.4037 27.4199 13.8617C27.3852 13.9586 27.3592 14.0378 27.3245 14.1171C26.6136 15.4912 25.9026 16.8652 25.1742 18.2304C25.0962 18.3714 24.8881 18.5299 24.732 18.5299C20.5182 18.5475 16.2956 18.5387 12.0818 18.5387C12.0211 18.5387 11.969 18.5211 11.8477 18.5123Z" fill="url(#paint0_linear_2114_13078)"/>
<defs>
<linearGradient id="paint0_linear_2114_13078" x1="19.6338" y1="6" x2="19.6338" y2="27.5" gradientUnits="userSpaceOnUse">
<stop stop-color="#FF4722"/>
<stop offset="1" stop-color="#FF4722" stop-opacity="0"/>
</linearGradient>
</defs>
</svg>
