<svg width="30" height="22" viewBox="0 0 30 22" fill="none" xmlns="http://www.w3.org/2000/svg">
<g clip-path="url(#clip0_404_27719)">
<path d="M0.5 0.265625H29.1875V21.7812H0.5" fill="#BD3D44"/>
<path d="M0.5 2.74331H29.1875H0.5ZM0.5 6.04686H29.1875H0.5ZM0.5 9.36385H29.1875H0.5ZM0.5 12.6808H29.1875H0.5ZM0.5 15.9978H29.1875H0.5ZM0.5 19.3148H29.1875H0.5Z" fill="black"/>
<path d="M29.1875 20.1441H0.5V18.4856H29.1875V20.1441ZM29.1875 16.8271H0.5V15.1686H29.1875V16.8271ZM29.1875 13.5101H0.5V11.8516H29.1875V13.5101ZM29.1875 10.1931H0.5V8.5346H29.1875V10.1931ZM29.1875 6.8761H0.5V5.21761H29.1875V6.8761ZM29.1875 3.57256H0.5V1.91406H29.1875V3.57256Z" fill="white"/>
<path d="M0.5 0.265625H16.8519V11.8527H0.5" fill="#192F5D"/>
<path d="M1.84629 0.753906L1.69837 1.20215H1.21875L1.60424 1.48454L1.44287 1.96416L1.84629 1.66384L2.24971 1.96416L2.08834 1.48454L2.47383 1.20215H1.99421L1.84629 0.753906Z" fill="white"/>
<path d="M4.58057 0.753906L4.43265 1.20215H3.95303L4.33852 1.48454L4.17715 1.96416L4.58057 1.66384L4.98398 1.96416L4.82262 1.48454L5.20811 1.20215H4.72849L4.58057 0.753906Z" fill="white"/>
<path d="M7.31484 0.753906L7.16692 1.20215H6.68731L7.07279 1.48454L6.91143 1.96416L7.31484 1.66384L7.71826 1.96416L7.55689 1.48454L7.94238 1.20215H7.46276L7.31484 0.753906Z" fill="white"/>
<path d="M10.0491 0.753906L9.9012 1.20215H9.42158L9.80707 1.48454L9.6457 1.96416L10.0491 1.66384L10.4525 1.96416L10.2912 1.48454L10.6767 1.20215H10.197L10.0491 0.753906Z" fill="white"/>
<path d="M12.7834 0.753906L12.6355 1.20215H12.1559L12.5413 1.48454L12.38 1.96416L12.7834 1.66384L13.1868 1.96416L13.0255 1.48454L13.4109 1.20215H12.9313L12.7834 0.753906Z" fill="white"/>
<path d="M15.2308 1.48454L15.0694 1.96416L15.4729 1.66384L15.8763 1.96416L15.7149 1.48454L16.1004 1.20215H15.6208L15.4729 0.753906L15.3249 1.20215H14.8453L15.2308 1.48454Z" fill="white"/>
<path d="M3.23584 1.91934L3.08792 2.36758H2.6083L2.99379 2.64997L2.83242 3.12959L3.23584 2.82927L3.63926 3.12959L3.47789 2.64997L3.86338 2.36758H3.38376L3.23584 1.91934Z" fill="white"/>
<path d="M5.97012 1.91934L5.8222 2.36758H5.34258L5.72807 2.64997L5.5667 3.12959L5.97012 2.82927L6.37354 3.12959L6.21217 2.64997L6.59766 2.36758H6.11804L5.97012 1.91934Z" fill="white"/>
<path d="M8.7044 1.91934L8.55648 2.36758H8.07686L8.46234 2.64997L8.30098 3.12959L8.7044 2.82927L9.10781 3.12959L8.94645 2.64997L9.33193 2.36758H8.85232L8.7044 1.91934Z" fill="white"/>
<path d="M11.3938 1.91934L11.2459 2.36758H10.7663L11.1518 2.64997L10.9904 3.12959L11.3938 2.82927L11.7973 3.12959L11.6359 2.64997L12.0214 2.36758H11.5418L11.3938 1.91934Z" fill="white"/>
<path d="M14.1281 1.91934L13.9802 2.36758H13.5006L13.8861 2.64997L13.7247 3.12959L14.1281 2.82927L14.5315 3.12959L14.3702 2.64997L14.7557 2.36758H14.276L14.1281 1.91934Z" fill="white"/>
<path d="M1.84629 3.08477L1.69837 3.53301H1.21875L1.60424 3.8154L1.44287 4.29502L1.84629 3.9947L2.24971 4.29502L2.08834 3.8154L2.47383 3.53301H1.99421L1.84629 3.08477Z" fill="white"/>
<path d="M4.58057 3.08477L4.43265 3.53301H3.95303L4.33852 3.8154L4.17715 4.29502L4.58057 3.9947L4.98398 4.29502L4.82262 3.8154L5.20811 3.53301H4.72849L4.58057 3.08477Z" fill="white"/>
<path d="M7.31484 3.08477L7.16692 3.53301H6.68731L7.07279 3.8154L6.91143 4.29502L7.31484 3.9947L7.71826 4.29502L7.55689 3.8154L7.94238 3.53301H7.46276L7.31484 3.08477Z" fill="white"/>
<path d="M10.0491 3.08477L9.9012 3.53301H9.42158L9.80707 3.8154L9.6457 4.29502L10.0491 3.9947L10.4525 4.29502L10.2912 3.8154L10.6767 3.53301H10.197L10.0491 3.08477Z" fill="white"/>
<path d="M12.7834 3.08477L12.6355 3.53301H12.1559L12.5413 3.8154L12.38 4.29502L12.7834 3.9947L13.1868 4.29502L13.0255 3.8154L13.4109 3.53301H12.9313L12.7834 3.08477Z" fill="white"/>
<path d="M15.4729 3.08477L15.3249 3.53301H14.8453L15.2308 3.8154L15.0694 4.29502L15.4729 3.9947L15.8763 4.29502L15.7149 3.8154L16.1004 3.53301H15.6208L15.4729 3.08477Z" fill="white"/>
<path d="M3.23584 4.2502L3.08792 4.69844H2.6083L2.99379 4.98083L2.83242 5.46045L3.23584 5.16013L3.63926 5.46045L3.47789 4.98083L3.86338 4.69844H3.38376L3.23584 4.2502Z" fill="white"/>
<path d="M5.97012 4.2502L5.8222 4.69844H5.34258L5.72807 4.98083L5.5667 5.46045L5.97012 5.16013L6.37354 5.46045L6.21217 4.98083L6.59766 4.69844H6.11804L5.97012 4.2502Z" fill="white"/>
<path d="M8.7044 4.2502L8.55648 4.69844H8.07686L8.46234 4.98083L8.30098 5.46045L8.7044 5.16013L9.10781 5.46045L8.94645 4.98083L9.33193 4.69844H8.85232L8.7044 4.2502Z" fill="white"/>
<path d="M11.3938 4.2502L11.2459 4.69844H10.7663L11.1518 4.98083L10.9904 5.46045L11.3938 5.16013L11.7973 5.46045L11.6359 4.98083L12.0214 4.69844H11.5418L11.3938 4.2502Z" fill="white"/>
<path d="M14.1281 4.2502L13.9802 4.69844H13.5006L13.8861 4.98083L13.7247 5.46045L14.1281 5.16013L14.5315 5.46045L14.3702 4.98083L14.7557 4.69844H14.276L14.1281 4.2502Z" fill="white"/>
<path d="M1.84629 5.41562L1.69837 5.86387H1.21875L1.60424 6.14626L1.44287 6.62588L1.84629 6.32556L2.24971 6.62588L2.08834 6.14626L2.47383 5.86387H1.99421L1.84629 5.41562Z" fill="white"/>
<path d="M4.58057 5.41562L4.43265 5.86387H3.95303L4.33852 6.14626L4.17715 6.62588L4.58057 6.32556L4.98398 6.62588L4.82262 6.14626L5.20811 5.86387H4.72849L4.58057 5.41562Z" fill="white"/>
<path d="M7.31484 5.41562L7.16692 5.86387H6.68731L7.07279 6.14626L6.91143 6.62588L7.31484 6.32556L7.71826 6.62588L7.55689 6.14626L7.94238 5.86387H7.46276L7.31484 5.41562Z" fill="white"/>
<path d="M10.0491 5.41562L9.9012 5.86387H9.42158L9.80707 6.14626L9.6457 6.62588L10.0491 6.32556L10.4525 6.62588L10.2912 6.14626L10.6767 5.86387H10.197L10.0491 5.41562Z" fill="white"/>
<path d="M12.7834 5.41562L12.6355 5.86387H12.1559L12.5413 6.14626L12.38 6.62588L12.7834 6.32556L13.1868 6.62588L13.0255 6.14626L13.4109 5.86387H12.9313L12.7834 5.41562Z" fill="white"/>
<path d="M15.4729 5.41562L15.3249 5.86387H14.8453L15.2308 6.14626L15.0694 6.62588L15.4729 6.32556L15.8763 6.62588L15.7149 6.14626L16.1004 5.86387H15.6208L15.4729 5.41562Z" fill="white"/>
<path d="M3.23584 6.58105L3.08792 7.0293H2.6083L2.99379 7.31169L2.83242 7.79131L3.23584 7.49099L3.63926 7.79131L3.47789 7.31169L3.86338 7.0293H3.38376L3.23584 6.58105Z" fill="white"/>
<path d="M5.97012 6.58105L5.8222 7.0293H5.34258L5.72807 7.31169L5.5667 7.79131L5.97012 7.49099L6.37354 7.79131L6.21217 7.31169L6.59766 7.0293H6.11804L5.97012 6.58105Z" fill="white"/>
<path d="M8.7044 6.58105L8.55648 7.0293H8.07686L8.46234 7.31169L8.30098 7.79131L8.7044 7.49099L9.10781 7.79131L8.94645 7.31169L9.33193 7.0293H8.85232L8.7044 6.58105Z" fill="white"/>
<path d="M11.3938 6.58105L11.2459 7.0293H10.7663L11.1518 7.31169L10.9904 7.79131L11.3938 7.49099L11.7973 7.79131L11.6359 7.31169L12.0214 7.0293H11.5418L11.3938 6.58105Z" fill="white"/>
<path d="M14.1281 6.58105L13.9802 7.0293H13.5006L13.8861 7.31169L13.7247 7.79131L14.1281 7.49099L14.5315 7.79131L14.3702 7.31169L14.7557 7.0293H14.276L14.1281 6.58105Z" fill="white"/>
<path d="M1.84629 7.70166L1.69837 8.1499H1.21875L1.60424 8.43229L1.44287 8.91191L1.84629 8.61159L2.24971 8.91191L2.08834 8.43229L2.47383 8.1499H1.99421L1.84629 7.70166Z" fill="white"/>
<path d="M4.58057 7.70166L4.43265 8.1499H3.95303L4.33852 8.43229L4.17715 8.91191L4.58057 8.61159L4.98398 8.91191L4.82262 8.43229L5.20811 8.1499H4.72849L4.58057 7.70166Z" fill="white"/>
<path d="M7.31484 7.70166L7.16692 8.1499H6.68731L7.07279 8.43229L6.91143 8.91191L7.31484 8.61159L7.71826 8.91191L7.55689 8.43229L7.94238 8.1499H7.46276L7.31484 7.70166Z" fill="white"/>
<path d="M10.0491 7.70166L9.9012 8.1499H9.42158L9.80707 8.43229L9.6457 8.91191L10.0491 8.61159L10.4525 8.91191L10.2912 8.43229L10.6767 8.1499H10.197L10.0491 7.70166Z" fill="white"/>
<path d="M12.7834 7.70166L12.6355 8.1499H12.1559L12.5413 8.43229L12.38 8.91191L12.7834 8.61159L13.1868 8.91191L13.0255 8.43229L13.4109 8.1499H12.9313L12.7834 7.70166Z" fill="white"/>
<path d="M15.4729 7.70166L15.3249 8.1499H14.8453L15.2308 8.43229L15.0694 8.91191L15.4729 8.61159L15.8763 8.91191L15.7149 8.43229L16.1004 8.1499H15.6208L15.4729 7.70166Z" fill="white"/>
<path d="M3.38376 9.31533L3.23584 8.86709L3.08792 9.31533H2.6083L2.99379 9.59772L2.83242 10.0773L3.23584 9.77702L3.63926 10.0773L3.47789 9.59772L3.86338 9.31533H3.38376Z" fill="white"/>
<path d="M6.11804 9.31533L5.97012 8.86709L5.8222 9.31533H5.34258L5.72807 9.59772L5.5667 10.0773L5.97012 9.77702L6.37354 10.0773L6.21217 9.59772L6.59766 9.31533H6.11804Z" fill="white"/>
<path d="M8.85232 9.31533L8.7044 8.86709L8.55648 9.31533H8.07686L8.46234 9.59772L8.30098 10.0773L8.7044 9.77702L9.10781 10.0773L8.94645 9.59772L9.33193 9.31533H8.85232Z" fill="white"/>
<path d="M11.5418 9.31533L11.3938 8.86709L11.2459 9.31533H10.7663L11.1518 9.59772L10.9904 10.0773L11.3938 9.77702L11.7973 10.0773L11.6359 9.59772L12.0214 9.31533H11.5418Z" fill="white"/>
<path d="M14.276 9.31533L14.1281 8.86709L13.9802 9.31533H13.5006L13.8861 9.59772L13.7247 10.0773L14.1281 9.77702L14.5315 10.0773L14.3702 9.59772L14.7557 9.31533H14.276Z" fill="white"/>
<path d="M1.99421 10.4808L1.84629 10.0325L1.69837 10.4808H1.21875L1.60424 10.7632L1.44287 11.2428L1.84629 10.9425L2.24971 11.2428L2.08834 10.7632L2.47383 10.4808H1.99421Z" fill="white"/>
<path d="M4.72849 10.4808L4.58057 10.0325L4.43265 10.4808H3.95303L4.33852 10.7632L4.17715 11.2428L4.58057 10.9425L4.98398 11.2428L4.82262 10.7632L5.20811 10.4808H4.72849Z" fill="white"/>
<path d="M7.46276 10.4808L7.31484 10.0325L7.16692 10.4808H6.68731L7.07279 10.7632L6.91143 11.2428L7.31484 10.9425L7.71826 11.2428L7.55689 10.7632L7.94238 10.4808H7.46276Z" fill="white"/>
<path d="M10.197 10.4808L10.0491 10.0325L9.9012 10.4808H9.42158L9.80707 10.7632L9.6457 11.2428L10.0491 10.9425L10.4525 11.2428L10.2912 10.7632L10.6767 10.4808H10.197Z" fill="white"/>
<path d="M12.9313 10.4808L12.7834 10.0325L12.6355 10.4808H12.1559L12.5413 10.7632L12.38 11.2428L12.7834 10.9425L13.1868 11.2428L13.0255 10.7632L13.4109 10.4808H12.9313Z" fill="white"/>
<path d="M15.6208 10.4808L15.4729 10.0325L15.3249 10.4808H14.8453L15.2308 10.7632L15.0694 11.2428L15.4729 10.9425L15.8763 11.2428L15.7149 10.7632L16.1004 10.4808H15.6208Z" fill="white"/>
</g>
<defs>
<clipPath id="clip0_404_27719">
<rect width="28.6875" height="21.5156" fill="white" transform="translate(0.5 0.242188)"/>
</clipPath>
</defs>
</svg>
