<svg xmlns="http://www.w3.org/2000/svg" width="46" height="45" viewBox="0 0 46 45" fill="none"><script xmlns=""/><path d="M29.0198 16.1535C33.1019 16.1889 35.5745 15.955 37.064 15.5649C39.5321 14.9181 41.0896 14.1152 41.0896 14.5572" stroke="#442068" stroke-width="1.75846" stroke-miterlimit="10" stroke-linecap="round" stroke-linejoin="round"/><path d="M41.2108 14.5577C41.2108 13.6523 41.949 12.9141 42.8545 12.9141C43.7599 12.9141 44.4982 13.6523 44.4983 14.5577C44.4983 14.5577 44.4983 14.5577 44.4983 14.5578V30.0513C44.4983 30.9569 43.76 31.6951 42.8546 31.6951C42.7262 31.6951 42.6015 31.6803 42.4817 31.6523C42.4568 30.7385 42.0507 29.8508 41.2108 29.2149V14.5577Z" stroke="#442068" stroke-width="2"/><path d="M7.27692 35.6343L7.26216 35.6235C6.25435 34.8832 6.03745 33.4661 6.77772 32.4582L9.01164 29.4169C9.75191 28.4091 11.169 28.1922 12.1769 28.9324L12.1917 28.9433C13.1995 29.6835 13.4164 31.1006 12.6761 32.1085L10.4422 35.1498C9.7019 36.1577 8.28481 36.3746 7.27692 35.6343Z" stroke="#442068" stroke-width="1.75846" stroke-miterlimit="10" stroke-linecap="round" stroke-linejoin="round"/><path d="M32.5062 36.498C33.6285 37.3312 33.8656 38.9134 33.0392 40.0385C33.0366 40.042 33.034 40.0456 33.0314 40.0491C32.1956 41.1751 30.6061 41.4101 29.4803 40.5743L27.8544 39.3669" stroke="#442068" stroke-width="1.75846" stroke-miterlimit="10" stroke-linecap="round" stroke-linejoin="round"/><path d="M18.9181 38.9731L18.8795 38.9448" stroke="#442068" stroke-width="1.75846" stroke-miterlimit="10" stroke-linecap="round" stroke-linejoin="round"/><path d="M4.9104 13.8989C4.9104 13.8989 11.2303 14.5652 15.961 15.0249" stroke="#442068" stroke-width="1.75846" stroke-miterlimit="10" stroke-linecap="round" stroke-linejoin="round"/><path d="M7.87 30.9703L4.9104 28.676" stroke="#442068" stroke-width="1.75846" stroke-miterlimit="10" stroke-linecap="round" stroke-linejoin="round"/><path d="M27.8309 39.3496L27.8543 39.3668C28.973 40.2005 29.208 41.7812 28.3826 42.9048C28.3799 42.9083 28.3774 42.9119 28.3747 42.9155C27.5395 44.0406 25.9496 44.2764 24.8236 43.4407L22.5322 41.653" stroke="#442068" stroke-width="1.75846" stroke-miterlimit="10" stroke-linecap="round" stroke-linejoin="round"/><path d="M33.8827 31.197L36.2503 32.9613C37.3623 33.7966 37.5947 35.3732 36.772 36.4934C36.7694 36.4969 36.7668 36.5005 36.7642 36.504C35.9285 37.6299 34.3383 37.8644 33.2131 37.0292L32.5063 36.4979L30.8569 35.2733" stroke="#442068" stroke-width="1.75846" stroke-miterlimit="10" stroke-linecap="round" stroke-linejoin="round"/><path d="M21.2184 18.3472L15.4659 23.1122C15.4659 23.1122 16.7728 27.4273 20.7225 25.1259L24.3237 22.0568C24.3237 22.0568 29.2193 27.4943 34.3391 25.1329L40.5874 29.9971C41.709 30.8297 41.7335 32.2557 40.907 33.3808C40.9044 33.3843 40.9018 33.3879 40.8992 33.3914C40.064 34.5167 38.4733 34.7518 37.3481 33.9166L36.2503 32.9612" stroke="#442068" stroke-width="1.75846" stroke-miterlimit="10" stroke-linecap="round" stroke-linejoin="round"/><path d="M10.9413 38.3259L10.9266 38.3151C9.91878 37.5748 9.70188 36.1578 10.4422 35.1499L12.6761 32.1085C13.4163 31.1007 14.8334 30.8838 15.8413 31.6241L15.8561 31.6349C16.8639 32.3752 17.0808 33.7923 16.3405 34.8002L14.1066 37.8415C13.3662 38.8493 11.9492 39.0662 10.9413 38.3259Z" stroke="#442068" stroke-width="1.75846" stroke-miterlimit="10" stroke-linecap="round" stroke-linejoin="round"/><path d="M14.6058 41.0173L14.591 41.0065C13.5832 40.2663 13.3663 38.8492 14.1066 37.8413L16.3405 34.7999C17.0808 33.7921 18.4979 33.5752 19.5058 34.3155L19.5205 34.3263C20.5283 35.0666 20.7452 36.4837 20.005 37.4916L17.771 40.5329C17.0308 41.5407 15.6137 41.7576 14.6058 41.0173Z" stroke="#442068" stroke-width="1.75846" stroke-miterlimit="10" stroke-linecap="round" stroke-linejoin="round"/><path d="M18.2329 43.6816L18.2181 43.6708C17.2103 42.9306 16.9934 41.5135 17.7337 40.5056L19.9676 37.4642C20.7078 36.4564 22.1249 36.2395 23.1328 36.9798L23.1476 36.9906C24.1554 37.7309 24.3723 39.148 23.632 40.1559L21.3981 43.1972C20.6577 44.205 19.2407 44.4219 18.2329 43.6816Z" stroke="#442068" stroke-width="1.75846" stroke-miterlimit="10" stroke-linecap="round" stroke-linejoin="round"/><path d="M3.1455 29.8789C2.24005 29.8789 1.50177 29.1406 1.50177 28.2352V13.6752C1.50177 12.7697 2.24 12.0315 3.1455 12.0315C4.051 12.0315 4.78924 12.7697 4.78924 13.6752V28.2352C4.78924 29.1406 4.05103 29.8789 3.1455 29.8789Z" stroke="#442068" stroke-width="2"/><path d="M23.2398 1.00374C28.0444 1.1364 31.8318 5.13889 31.6992 9.94356C31.5665 14.7482 27.564 18.5356 22.7593 18.403C17.9547 18.2703 14.1673 14.2678 14.2999 9.46315C14.4326 4.65848 18.4351 0.871075 23.2398 1.00374Z" stroke="#442068" stroke-width="2"/><path d="M24.502 6.37328C24.3699 6.25076 23.6748 5.58238 22.3295 5.98174C21.1291 6.37627 20.8191 8.00174 21.6413 8.64666C22.1134 9.01693 22.8237 9.32137 23.7812 9.65982C25.9238 10.4171 25.1317 13.439 22.9521 13.4535C22.1015 13.4592 21.7039 13.4051 20.9567 12.9163" stroke="#F8A629" stroke-width="1.75846" stroke-miterlimit="10" stroke-linecap="round" stroke-linejoin="round"/><path d="M22.9523 14.9976V13.4534" stroke="#F8A629" stroke-width="1.75846" stroke-miterlimit="10" stroke-linecap="round" stroke-linejoin="round"/><path d="M22.9523 5.86348V4.40845" stroke="#F8A629" stroke-width="1.75846" stroke-miterlimit="10" stroke-linecap="round" stroke-linejoin="round"/><script xmlns=""/></svg>