<svg width="45" height="46" viewBox="0 0 45 46" fill="none" xmlns="http://www.w3.org/2000/svg">
<g clip-path="url(#clip0_2114_13091)">
<path d="M16.2221 19.6531C21.5079 19.6531 25.7014 23.8807 25.7014 29.2004C25.7014 34.3791 21.4022 38.6771 16.1751 38.6302C10.7718 38.5832 6.66064 34.2147 6.71937 29.0007C6.76636 23.8807 11.042 19.5709 16.2221 19.6531Z" fill="url(#paint0_linear_2114_13091)"/>
<path d="M23.5513 0.5C24.2208 0.922756 24.3265 1.25157 24.0094 2.00313C23.5983 2.98956 22.9522 3.82333 22.3179 4.66884C22.177 4.85673 22.036 5.04462 21.8716 5.26775C22.2709 5.36169 22.6116 5.30297 22.9522 5.31472C23.5748 5.3382 23.9037 5.64353 23.9037 6.26592C23.9154 7.81602 23.9037 9.36613 23.9037 10.928C23.9037 11.1276 23.8919 11.339 23.751 11.4682C23.4338 11.75 23.6453 11.8909 23.8332 12.0906C27.6507 16.0715 30.4581 20.6631 32.0086 25.9828C32.267 26.8518 32.4315 27.756 32.4785 28.6602C32.502 29.036 32.6429 29.0712 32.9483 29.0712C36.4957 29.0595 40.0313 29.0712 43.5787 29.0712C43.6962 29.0712 43.8136 29.0712 43.9311 29.0712C44.6476 29.083 44.9765 29.4001 44.9765 30.1281C44.9765 32.0305 44.9765 33.9329 44.9765 35.8353C44.9765 38.6772 44.9765 41.5191 44.9765 44.3609C44.9765 45.2064 44.6828 45.5 43.8489 45.5C39.1621 45.5 34.4753 45.5 29.7886 45.5C29.0016 45.5 28.6962 45.2064 28.6844 44.4196C28.6727 43.1866 28.6844 41.9653 28.6844 40.7323C28.6844 40.5796 28.7314 40.4152 28.6022 40.239C28.3203 40.5209 28.0501 40.8145 27.78 41.0845C25.2428 43.5271 22.2005 44.8894 18.7236 45.3356C15.6343 45.7466 12.6038 45.4648 9.71417 44.2787C4.5693 42.1532 1.52702 38.2662 0.352388 32.8643C0.211433 32.2419 0.246672 31.596 0 30.9971C0 30.0342 0 29.0595 0 28.0966C0.0939702 27.756 0.082224 27.4037 0.117463 27.0632C0.281911 25.2664 0.986687 23.6459 1.69146 22.0371C3.06578 18.9368 4.87471 16.1067 7.05951 13.5232C7.44714 13.0652 7.83477 12.6073 8.26938 12.1962C8.50431 11.9731 8.61002 11.7265 8.46907 11.4094C8.38684 11.2333 8.39859 11.0337 8.39859 10.8458C8.39859 9.35438 8.38684 7.863 8.39859 6.35986C8.39859 5.5261 8.75098 5.1738 9.59671 5.12683C9.73767 5.11508 9.91386 5.16206 9.99608 5.02114C10.1018 4.84499 9.9491 4.71581 9.85513 4.59838C9.32655 3.88205 8.78622 3.16571 8.39859 2.35543C8.35161 2.24974 8.29287 2.14405 8.25764 2.03836C7.94049 1.20459 8.14017 0.770094 8.96241 0.523486C13.8254 0.5 18.6883 0.5 23.5513 0.5ZM30.8927 30.8092C30.5403 30.8092 30.4464 30.9149 30.4464 31.2555C30.4699 32.0188 30.4699 32.7821 30.4464 33.5337C30.4346 33.8507 30.5286 33.9682 30.8692 33.9682C34.863 33.9564 38.8567 33.9564 42.8622 33.9682C43.1793 33.9682 43.2498 33.8507 43.2498 33.5571C43.2381 32.8056 43.2263 32.0658 43.2498 31.3142C43.2616 30.9267 43.1676 30.7975 42.7565 30.7975C40.7948 30.821 38.8332 30.8092 36.8716 30.8092C34.8747 30.821 32.8896 30.8327 30.8927 30.8092ZM30.9045 40.5796C30.5638 40.5796 30.4464 40.6735 30.4581 41.0258C30.4816 41.8009 30.4698 42.5759 30.4581 43.351C30.4581 43.6211 30.5168 43.7385 30.8222 43.7385C34.8512 43.7268 38.8684 43.7268 42.8974 43.7385C43.1676 43.7385 43.2498 43.6681 43.2498 43.398C43.2381 42.6112 43.2263 41.8126 43.2498 41.0258C43.2616 40.6735 43.1558 40.5796 42.8034 40.5796C40.8301 40.5913 38.8567 40.5913 36.8716 40.5913C34.8865 40.5913 32.9013 40.6031 30.9045 40.5796ZM42.8269 38.8416C43.1558 38.8416 43.2498 38.7477 43.2381 38.4188C43.2146 37.6555 43.2146 36.8922 43.2381 36.1407C43.2498 35.8236 43.1676 35.7179 42.8269 35.7179C38.8332 35.7296 34.8395 35.7296 30.8457 35.7179C30.5403 35.7179 30.4346 35.8001 30.4464 36.1172C30.4699 36.857 30.4699 37.6086 30.4464 38.3601C30.4346 38.7359 30.5403 38.8651 30.928 38.8533C32.9013 38.8299 34.8747 38.8416 36.8481 38.8416C38.8567 38.8299 40.8418 38.8299 42.8269 38.8416ZM10.7713 7.06446C10.4894 7.06446 10.3485 7.11143 10.3602 7.44024C10.3837 8.20355 10.3837 8.96686 10.3602 9.71842C10.3485 10.0003 10.4424 10.0942 10.7361 10.0942C11.7345 10.0825 12.7212 10.0942 13.7197 10.0942C16.3626 10.0942 19.0172 10.0825 21.6601 10.106C22.0713 10.106 22.177 9.97677 22.1652 9.58925C22.13 8.88466 22.1417 8.18006 22.1652 7.48721C22.177 7.1584 22.0713 7.06446 21.7424 7.06446C19.9099 7.08794 18.0893 7.0762 16.2569 7.0762C14.4244 7.0762 12.592 7.0762 10.7713 7.06446ZM10.6304 2.29671C11.3704 3.29489 12.0752 4.23434 12.7682 5.1738C12.8739 5.31472 13.0149 5.31472 13.1558 5.31472C15.2232 5.31472 17.2905 5.31472 19.3461 5.31472C19.4988 5.31472 19.628 5.31472 19.7337 5.1738C20.4268 4.23434 21.1198 3.29489 21.8716 2.29671C18.101 2.29671 14.4127 2.29671 10.6304 2.29671ZM17.7839 14.7328C17.4315 15.3317 16.9616 15.5078 16.48 15.2377C16.0102 14.9676 15.928 14.4392 16.2569 13.8638C16.574 13.3236 16.8912 12.7717 17.22 12.2432C17.3962 11.9614 17.3845 11.8557 17.0086 11.8557C15.4699 11.8674 13.9311 11.8909 12.3923 11.8439C11.758 11.8205 11.2882 12.0201 10.8301 12.4428C7.05951 15.9541 4.4166 20.2051 2.61942 25.0081C1.67972 27.5211 1.52702 30.0929 2.11433 32.7234C3.07753 37.0801 5.47377 40.333 9.52623 42.2824C12.4511 43.6798 15.5521 44.0204 18.7471 43.5506C22.6468 42.9752 25.8418 41.1785 28.1676 37.9374C28.5435 37.4207 28.7431 36.904 28.7197 36.2346C28.6727 35.0603 28.7079 33.8977 28.7079 32.7234C28.7079 31.8426 28.6962 30.9619 28.7079 30.0929C28.7197 29.3883 29.0368 29.0712 29.7298 29.0595C29.953 29.0595 30.1762 29.036 30.3876 29.0595C30.7165 29.0947 30.787 28.9421 30.74 28.6485C30.6578 28.1905 30.6226 27.7208 30.5286 27.2628C30.0235 24.8672 29.0485 22.6477 27.8739 20.5104C26.1472 17.3867 24.0916 14.5214 21.3782 12.1728C21.1081 11.9379 20.8262 11.8439 20.4738 11.8439C20.0861 11.8439 20.0392 11.9261 20.2036 12.2784C20.9436 13.8873 21.6719 15.4961 22.4002 17.1166C22.6821 17.739 22.5294 18.244 22.0243 18.4554C21.5309 18.6668 21.0728 18.4554 20.8027 17.8565C20.1919 16.5177 19.581 15.1673 18.9702 13.8168C18.888 13.6289 18.794 13.4528 18.6766 13.2179C18.3594 13.7581 18.0775 14.2396 17.7839 14.7328Z" fill="#101010"/>
<path d="M15.4452 30.9149C15.4452 30.9032 15.4452 30.8797 15.4452 30.8679C15.551 30.0224 15.4217 29.4118 14.4703 29.0008C13.4954 28.578 13.1312 27.6033 13.2722 26.5347C13.4131 25.4661 13.9887 24.691 15.0106 24.2917C15.269 24.186 15.4452 24.1156 15.4922 23.775C15.551 23.3758 15.8564 23.1526 16.2675 23.1292C16.6786 23.1057 17.0192 23.2936 17.1132 23.6811C17.1954 24.0334 17.3951 24.1391 17.6888 24.2213C18.2174 24.3857 18.6755 24.6793 19.0161 25.1138C19.3567 25.5365 19.3333 26.0532 18.9809 26.382C18.6285 26.7108 18.1116 26.6756 17.724 26.2998C17.6653 26.2411 17.6066 26.1707 17.5361 26.1119C17.4539 26.0532 17.3834 25.9593 17.2659 26.018C17.1719 26.065 17.1954 26.1706 17.1954 26.2529C17.1954 26.84 17.2072 27.4272 17.1837 28.0143C17.1719 28.3197 17.3951 28.3549 17.5948 28.4371C18.6755 28.8716 19.4507 29.5997 19.7561 30.7505C20.1555 32.2654 19.3215 33.6746 17.7475 34.1443C17.4304 34.2382 17.1719 34.3087 17.0427 34.6845C16.937 35.0015 16.6081 35.1425 16.2557 35.119C15.8799 35.0955 15.5862 34.9076 15.504 34.5553C15.4335 34.2617 15.2573 34.1678 15.0106 34.0973C14.3411 33.8977 13.742 33.5689 13.2839 33.0287C12.9198 32.6059 12.9198 32.1127 13.2604 31.7722C13.6128 31.4199 14.1414 31.4316 14.5525 31.8191C14.7874 32.0423 15.0576 32.4063 15.3395 32.2889C15.6097 32.1832 15.41 31.7369 15.4452 31.4434C15.4687 31.2672 15.4452 31.0911 15.4452 30.9149ZM17.2072 32.1949C17.2072 32.4415 17.3246 32.4533 17.5126 32.3711C17.9002 32.2067 18.1351 31.8191 18.0999 31.3846C18.0764 30.9736 17.677 30.3747 17.3834 30.2925C17.1719 30.2338 17.2072 30.3865 17.2072 30.4922C17.1954 30.774 17.2072 31.0441 17.2072 31.3259C17.2072 31.6078 17.2072 31.9013 17.2072 32.1949ZM15.1868 27.3802C15.2338 27.4272 15.3043 27.4741 15.363 27.4741C15.4335 27.4741 15.4335 27.3919 15.4335 27.345C15.4335 26.9457 15.4335 26.5464 15.4335 26.0884C14.9636 26.4525 14.8697 27.0631 15.1868 27.3802Z" fill="#2A2A2A"/>
</g>
<defs>
<linearGradient id="paint0_linear_2114_13091" x1="16.2101" y1="19.652" x2="16.2101" y2="38.6306" gradientUnits="userSpaceOnUse">
<stop stop-color="#FF4722"/>
<stop offset="1" stop-color="#FF4722" stop-opacity="0"/>
</linearGradient>
<clipPath id="clip0_2114_13091">
<rect width="45" height="45" fill="white" transform="translate(0 0.5)"/>
</clipPath>
</defs>
</svg>
