<svg width="49" height="41" viewBox="0 0 49 41" fill="none" xmlns="http://www.w3.org/2000/svg">
<path d="M48.9999 27.8158C48.7569 28.3767 48.2708 28.6445 47.7464 28.8739C43.6151 30.7351 39.5733 32.8258 35.4165 34.636C32.6921 35.8215 29.9038 36.8158 26.962 37.2875C24.2505 37.7209 21.5261 37.7082 18.8145 37.3003C15.796 36.8413 12.8158 36.7903 9.88685 37.8357C9.8101 37.8612 9.73336 37.8994 9.66941 37.9249C9.49034 37.9377 9.40081 37.8229 9.38802 37.6699C9.31128 37.1218 9.31128 36.5864 9.38802 36.0382C9.40081 35.898 9.50313 35.8215 9.60546 35.745C9.74615 35.6175 9.93801 35.5538 10.1171 35.5028C12.1891 34.9419 14.2995 34.7124 16.4611 34.8782C17.9064 34.9929 19.3389 35.2351 20.7843 35.3626C23.7388 35.6303 26.6423 35.3243 29.4817 34.5212C32.091 33.7946 34.5467 32.6983 36.9897 31.5637C40.0082 30.1615 42.9884 28.67 46.0197 27.2932C46.8767 26.9107 46.9406 26.3498 46.1988 25.7634C45.7 25.381 45.15 25.3555 44.5616 25.5085C43.6407 25.7634 42.707 25.9674 41.7861 26.2224C39.2152 26.9107 36.6316 27.5354 34.0479 28.211C33.6386 28.3258 33.2933 28.5042 32.9607 28.7847C31.784 29.779 30.4026 30.2889 28.8678 30.4292C27.6783 30.5311 26.5271 30.3782 25.376 30.0722C24.0458 29.7153 22.69 29.5113 21.3087 29.7535C20.6947 29.8683 20.1064 30.0595 19.5436 30.3399C19.1215 30.5439 18.6866 30.5949 18.2518 30.3909C17.8425 30.1997 17.6378 29.83 17.625 29.3838C17.625 28.9377 17.8041 28.5552 18.2262 28.3258C19.4157 27.6629 20.7075 27.3442 22.0633 27.2804C23.5981 27.2039 25.0818 27.5099 26.5527 27.8923C27.8062 28.2238 29.0469 28.1218 30.2619 27.6756C30.5817 27.5609 30.8759 27.3952 31.1189 27.1784C31.4131 26.9107 31.5538 26.592 31.4387 26.1969C31.3235 25.8272 31.0677 25.6105 30.684 25.5595C29.8271 25.432 28.9701 25.4192 28.1259 25.2408C26.7957 24.9731 25.4911 24.6034 24.2121 24.17C22.5238 23.609 20.8482 22.9717 19.0703 22.7039C16.832 22.3598 14.7216 22.7549 12.7263 23.813C11.8566 24.2719 11.0124 24.8073 10.2322 25.4065C10.0531 25.534 9.88685 25.6997 9.63104 25.6487C9.43918 25.585 9.36244 25.4447 9.34965 25.2535C9.32407 24.7946 9.23453 24.3484 9.04268 23.9277C8.97873 23.7875 9.00431 23.6473 9.10663 23.5326C10.5264 22.5255 12.0101 21.6331 13.66 21.0595C16.3076 20.1289 18.9552 20.3201 21.6028 21.085C23.7005 21.6841 25.7341 22.5 27.8701 22.9717C28.8422 23.1884 29.8143 23.3158 30.7991 23.3923C32.2189 23.4943 33.1782 24.2592 33.5235 25.6487C33.6258 26.0694 33.7793 26.0821 34.1246 25.9929C37.3606 25.1515 40.5966 24.3229 43.8453 23.4943C46.3778 22.8442 48.1429 23.8258 48.9231 26.3243C48.9359 26.3498 48.9615 26.3626 48.9871 26.3881C48.9999 26.8598 48.9999 27.3442 48.9999 27.8158Z" fill="#101010"/>
<path d="M9.78643 35.847C9.72248 35.9235 9.62015 35.9872 9.62015 36.0637C9.63294 36.6883 9.50504 37.3257 9.67132 37.9376C9.59457 38.1289 9.53062 38.3201 9.45388 38.524C8.96784 39.7861 7.9574 40.5 6.60162 40.5127C5.38653 40.5127 4.18424 40.5255 2.96915 40.5127C1.24245 40.4872 0.0145688 39.2634 0.00177837 37.5424C-0.011012 33.4631 0.00177837 29.3711 0.00177837 25.2917C0.00177837 23.6855 0.986639 22.4872 2.59823 22.3342C4.05633 22.194 5.52723 22.245 6.99812 22.3215C7.89345 22.3725 8.58413 22.8441 9.13412 23.5453C9.53062 24.1572 9.56899 24.8583 9.68411 25.5467C9.81201 25.6869 9.81201 25.8654 9.81201 26.0439C9.81201 29.3073 9.83759 32.5708 9.78643 35.847Z" fill="url(#paint0_linear_2114_13104)"/>
<path d="M32.6576 12.0849C32.6832 12.0722 32.7343 12.0339 32.7343 12.0467C33.2587 12.4546 33.8727 12.7733 34.282 13.3087C32.9645 16.3682 30.7134 18.3696 27.4519 19.16C21.9392 20.4858 16.3754 16.5339 15.7743 10.9121C15.1859 5.30306 19.3428 0.484364 25.0089 0.26765C26.9275 0.191163 28.6926 0.701078 30.3425 1.66992C30.1507 2.32006 30.1251 3.00844 29.7669 3.60759C29.4472 3.76057 29.2298 3.50561 28.9867 3.37813C27.8356 2.72799 26.5821 2.39654 25.2775 2.40929C23.7427 2.42204 22.2846 2.86822 21.0183 3.77332C18.9719 5.23932 17.8975 7.26623 17.8591 9.73932C17.8079 13.4362 20.4044 16.5467 24.1264 17.1713C27.5031 17.7322 30.8286 15.871 32.1843 12.6968C32.2867 12.4674 32.325 12.1614 32.6576 12.0849Z" fill="#101010"/>
<path d="M4.82468 28.0197C4.30027 28.0325 3.8654 27.6246 3.85261 27.1146C3.82703 26.592 4.27469 26.1331 4.81189 26.1331C5.3235 26.1331 5.74559 26.5537 5.75838 27.0764C5.75838 27.6118 5.34908 28.0197 4.82468 28.0197Z" fill="#2B2B2B"/>
<path d="M27.6664 6.73076C27.6664 7.10045 27.5002 7.36816 27.1804 7.54663C26.8223 7.75059 26.4641 7.7251 26.1572 7.47014C25.799 7.17694 25.4153 7.12595 24.9932 7.26617C24.7374 7.34266 24.6095 7.53388 24.5712 7.78884C24.5328 8.04379 24.6863 8.15852 24.8781 8.27326C25.3386 8.52821 25.8374 8.70668 26.3234 8.8979C27.4234 9.30583 28.1141 10.0707 28.1653 11.2563C28.2292 12.4546 27.6792 13.3724 26.6304 13.9588C26.3234 14.1245 26.2083 14.2903 26.2083 14.6472C26.2083 15.1954 25.7735 15.5905 25.2746 15.5905C24.7758 15.5905 24.3409 15.1954 24.3281 14.6472C24.3153 14.3285 24.2002 14.2138 23.9061 14.15C23.5479 14.0735 23.2282 13.8823 22.9212 13.6784C22.4352 13.3469 22.3073 12.8115 22.5886 12.3526C22.8572 11.9191 23.3944 11.7662 23.8805 12.0594C24.3409 12.3271 24.8142 12.4546 25.3386 12.3908C25.8502 12.3398 26.2083 11.9956 26.2595 11.5112C26.3234 11.014 26.0165 10.7973 25.6072 10.6571C24.9932 10.4404 24.3921 10.1854 23.8165 9.86674C22.077 8.88515 22.4224 6.46306 23.9188 5.65994C24.1747 5.51971 24.3281 5.39224 24.3281 5.06079C24.3281 4.49988 24.7246 4.11745 25.249 4.1047C25.7735 4.09195 26.1955 4.44889 26.2083 5.0098C26.2211 5.31575 26.3618 5.40498 26.592 5.50697C27.3467 5.83841 27.6792 6.2336 27.6664 6.73076Z" fill="#101010"/>
<defs>
<linearGradient id="paint0_linear_2114_13104" x1="4.90725" y1="22.246" x2="4.90725" y2="40.5184" gradientUnits="userSpaceOnUse">
<stop stop-color="#FF4722"/>
<stop offset="1" stop-color="#FF4722" stop-opacity="0"/>
</linearGradient>
</defs>
</svg>
