<?xml version="1.0" encoding="iso-8859-1"?>
<!-- Uploaded to: SVG Repo, www.svgrepo.com, Generator: SVG Repo Mixer Tools -->
<svg fill="#000000" height="800px" width="800px" version="1.1" id="Layer_1" xmlns="http://www.w3.org/2000/svg" xmlns:xlink="http://www.w3.org/1999/xlink" 
	 viewBox="0 0 512 512" xml:space="preserve">
<g>
	<g>
		<path d="M374.263,206.02c0.595-6.113,0.918-12.281,0.918-18.429C375.182,84.153,291.029,0,187.591,0S0,84.153,0,187.591
			s84.153,187.591,187.591,187.591c6.149,0,12.316-0.323,18.429-0.918C213.885,451.518,279.319,512,358.614,512
			C443.191,512,512,443.191,512,358.614C512,279.319,451.518,213.885,374.263,206.02z M205.233,358.239
			c-5.846,0.595-11.753,0.909-17.641,0.909c-94.598,0.001-171.558-76.959-171.558-171.556S92.994,16.033,187.591,16.033
			s171.557,76.96,171.557,171.557c0,5.889-0.313,11.796-0.909,17.641C273.96,205.435,205.436,273.958,205.233,358.239z
			 M358.614,495.967c-75.736,0-137.353-61.616-137.353-137.353s61.616-137.353,137.353-137.353s137.353,61.616,137.353,137.353
			S434.35,495.967,358.614,495.967z"/>
	</g>
</g>
<g>
	<g>
		<path d="M358.614,239.432c-65.717,0-119.182,53.465-119.182,119.182s53.465,119.182,119.182,119.182
			s119.182-53.465,119.182-119.182S424.33,239.432,358.614,239.432z M358.614,461.762c-56.876,0-103.148-46.272-103.148-103.148
			c0-56.876,46.272-103.148,103.148-103.148c56.876,0,103.148,46.272,103.148,103.148
			C461.762,415.49,415.49,461.762,358.614,461.762z"/>
	</g>
</g>
<g>
	<g>
		<path d="M366.63,352.756v-36.709c11.014,2.054,18.171,8.14,18.171,13.706c0,4.427,3.589,8.017,8.017,8.017
			c4.427,0,8.017-3.589,8.017-8.017c0-15.098-14.492-27.298-34.205-29.93v-9.619c0-4.427-3.589-8.017-8.017-8.017
			s-8.017,3.589-8.017,8.017v9.619c-19.713,2.632-34.205,14.831-34.205,29.93c0,21.354,18.87,29.654,34.205,34.718v36.709
			c-11.014-2.054-18.171-8.139-18.171-13.706c0-4.427-3.589-8.017-8.017-8.017s-8.017,3.589-8.017,8.017
			c0,15.098,14.492,27.298,34.205,29.93v9.619c0,4.427,3.589,8.017,8.017,8.017s8.017-3.589,8.017-8.017v-9.619
			c19.713-2.632,34.205-14.831,34.205-29.93C400.835,366.12,381.965,357.82,366.63,352.756z M350.597,347.405
			c-13.678-5.219-18.171-9.94-18.171-17.652c0-5.567,7.157-11.652,18.171-13.706V347.405z M366.63,401.18v-31.358
			c13.678,5.219,18.171,9.94,18.171,17.652C384.802,393.041,377.644,399.126,366.63,401.18z"/>
	</g>
</g>
<g>
	<g>
		<path d="M270.879,122.812c-2.718-3.495-7.755-4.125-11.249-1.406l-58.179,45.251c-3.975-2.64-8.74-4.184-13.859-4.184
			c-4.007,0-7.794,0.948-11.158,2.623l-68.685-68.685c-3.131-3.131-8.207-3.131-11.337,0c-3.131,3.131-3.131,8.207,0,11.337
			l68.685,68.685c-1.676,3.364-2.623,7.152-2.623,11.158c0,13.851,11.268,25.119,25.119,25.119s25.117-11.268,25.117-25.119
			c0-2.902-0.5-5.689-1.41-8.285l58.173-45.245C272.969,131.342,273.598,126.306,270.879,122.812z M187.591,196.676
			c-5.01,0-9.086-4.076-9.086-9.086s4.076-9.086,9.086-9.086s9.086,4.076,9.086,9.086S192.601,196.676,187.591,196.676z"/>
	</g>
</g>
<g>
	<g>
		<path d="M187.591,34.205c-4.427,0-8.017,3.589-8.017,8.017v17.102c0,4.427,3.589,8.017,8.017,8.017s8.017-3.589,8.017-8.017
			V42.221C195.608,37.794,192.018,34.205,187.591,34.205z"/>
	</g>
</g>
<g>
	<g>
		<path d="M187.591,307.841c-4.427,0-8.017,3.589-8.017,8.017v17.102c0,4.427,3.589,8.017,8.017,8.017s8.017-3.589,8.017-8.017
			v-17.102C195.608,311.431,192.018,307.841,187.591,307.841z"/>
	</g>
</g>
<g>
	<g>
		<path d="M332.96,179.574h-17.102c-4.427,0-8.017,3.589-8.017,8.017s3.589,8.017,8.017,8.017h17.102
			c4.427,0,8.017-3.589,8.017-8.017S337.388,179.574,332.96,179.574z"/>
	</g>
</g>
<g>
	<g>
		<path d="M59.324,179.574H42.221c-4.427,0-8.017,3.589-8.017,8.017s3.589,8.017,8.017,8.017h17.102
			c4.427,0,8.017-3.589,8.017-8.017S63.751,179.574,59.324,179.574z"/>
	</g>
</g>
<g>
	<g>
		<path d="M264.284,54.755c-3.835-2.216-8.737-0.9-10.951,2.934l-4.276,7.405c-2.214,3.834-0.9,8.737,2.934,10.951
			c1.262,0.729,2.641,1.075,4.001,1.075c2.771,0,5.465-1.439,6.95-4.009l4.276-7.405C269.432,61.872,268.118,56.969,264.284,54.755z
			"/>
	</g>
</g>
<g>
	<g>
		<path d="M123.19,299.136c-3.834-2.216-8.737-0.9-10.951,2.934l-4.276,7.405c-2.214,3.834-0.9,8.737,2.934,10.951
			c1.262,0.729,2.641,1.075,4.001,1.075c2.771,0,5.465-1.439,6.95-4.009l4.276-7.405C128.338,306.253,127.024,301.35,123.19,299.136
			z"/>
	</g>
</g>
<g>
	<g>
		<path d="M126.124,65.095l-4.276-7.405c-2.214-3.835-7.117-5.149-10.951-2.934c-3.834,2.214-5.148,7.117-2.934,10.951l4.276,7.405
			c1.485,2.572,4.179,4.009,6.95,4.009c1.36,0,2.739-0.346,4.001-1.075C127.024,73.832,128.338,68.929,126.124,65.095z"/>
	</g>
</g>
<g>
	<g>
		<path d="M73.111,112.239l-7.405-4.276c-3.834-2.215-8.737-0.901-10.951,2.934c-2.214,3.834-0.9,8.737,2.934,10.951l7.405,4.276
			c1.262,0.729,2.641,1.075,4.001,1.075c2.771,0,5.465-1.439,6.95-4.009C78.259,119.356,76.945,114.453,73.111,112.239z"/>
	</g>
</g>
<g>
	<g>
		<path d="M320.427,110.898c-2.214-3.835-7.117-5.148-10.951-2.934l-7.405,4.276c-3.834,2.214-5.148,7.117-2.934,10.951
			c1.485,2.572,4.179,4.009,6.95,4.009c1.36,0,2.739-0.346,4.001-1.075l7.405-4.276C321.327,119.635,322.64,114.732,320.427,110.898
			z"/>
	</g>
</g>
<g>
	<g>
		<path d="M76.045,251.992c-2.214-3.835-7.118-5.148-10.951-2.934l-7.405,4.276c-3.834,2.214-5.148,7.117-2.934,10.951
			c1.485,2.572,4.179,4.009,6.95,4.009c1.36,0,2.739-0.346,4.001-1.075l7.405-4.276C76.945,260.729,78.259,255.826,76.045,251.992z"
			/>
	</g>
</g>
</svg>