<svg width="101" height="26" viewBox="0 0 101 26" fill="none" xmlns="http://www.w3.org/2000/svg">
<path d="M59.7325 19.7722C58.687 19.7722 57.8471 18.9324 57.8471 17.8868V10.5765C57.8471 6.12 54.9933 3.00903 50.9053 3.00903C48.5057 3.00903 46.2603 4.12315 44.9662 5.93145C43.6978 4.09744 41.9238 3.00903 39.9698 3.00903C36.2846 3.00903 34.8791 5.93145 34.8791 5.93145V3.44611H29V5.17728H29.5228C30.5683 5.17728 31.4082 6.01715 31.4082 7.06271V21.5034H37.2873V19.7722H36.7646C35.719 19.7722 34.8791 19.0781 34.8791 18.0411V10.5165C34.8791 8.11684 36.4732 6.22284 39.1213 6.22284C41.2467 6.22284 42.8922 7.95401 42.8922 10.4308V21.5034H48.7713V19.7722H48.2485C47.203 19.7722 46.3631 18.9324 46.3631 17.8868V10.5165C46.3631 8.11684 47.9486 6.22284 50.5968 6.22284C52.765 6.22284 54.3848 8.02257 54.3848 10.5165V21.5034H60.2553V19.7722H59.7325Z" fill="#101010"/>
</svg>
