<svg width="156" height="179" viewBox="0 0 156 179" fill="none" xmlns="http://www.w3.org/2000/svg">
<path d="M109.365 103.965C108.011 108.456 110.511 113.131 114.926 114.463C119.417 115.817 124.093 113.318 125.425 108.902L133.575 111.36C130.863 120.353 121.385 125.303 112.468 122.614C103.475 119.902 98.5254 110.423 101.215 101.506L109.365 103.965Z" fill="white"/>
<path d="M47.2928 85.4423C50.2724 85.602 52.8261 86.5072 54.9012 88.1034C56.9764 89.7529 58.2001 91.881 58.6258 94.4882L51.4959 95.4462C51.1235 94.0096 50.3789 92.945 49.1551 92.2001C47.9845 91.4552 46.494 91.1889 44.7381 91.455C43.142 91.6679 41.8648 92.1999 41.0135 92.998C40.109 93.7961 39.7904 94.8611 39.95 96.0849C40.0565 96.9891 40.4817 97.6807 41.12 98.1064C41.7585 98.532 42.6637 98.7978 43.7811 99.0107C44.8984 99.1703 46.6009 99.33 48.8885 99.4364C51.1233 99.4364 53.0925 99.7031 54.742 100.129C56.3914 100.555 57.7751 101.352 58.8924 102.47C60.0097 103.64 60.7543 105.29 61.0204 107.418C61.3928 110.185 60.7543 112.632 59.0516 114.867C57.349 117.049 54.955 118.592 51.869 119.497L52.5604 124.604L46.5477 125.403L45.8563 120.188C42.5573 120.082 39.843 119.124 37.6082 117.368C35.3736 115.612 34.0437 113.324 33.618 110.451L40.7479 109.6C41.1204 111.249 41.9719 112.526 43.3553 113.378C44.7387 114.229 46.4414 114.494 48.5164 114.228C50.2191 114.016 51.6026 113.43 52.5604 112.579C53.5711 111.728 53.9436 110.611 53.784 109.334C53.6776 108.429 53.2516 107.737 52.6131 107.311C51.9215 106.833 51.0172 106.567 49.9002 106.407C48.7828 106.248 47.0261 106.088 44.7381 105.929C42.4503 105.822 40.4818 105.503 38.8856 105.077C37.2893 104.598 35.9053 103.799 34.7879 102.629C33.6708 101.458 32.926 99.7554 32.66 97.5741C32.2876 94.967 32.9261 92.6258 34.5223 90.5507C36.1186 88.4755 38.3536 86.986 41.2801 86.1347L40.5877 80.9735L46.6004 80.1747L47.2928 85.4423Z" fill="white"/>
<path d="M46.0692 16.536L44.7918 21.6972C47.5055 22.9742 49.527 24.7305 50.8573 27.0185C52.1874 29.3063 52.5606 31.7536 51.9754 34.3075L45.0047 32.5517C45.2175 31.062 44.898 29.7852 44.0467 28.6679C43.1954 27.5505 41.9716 26.7518 40.2157 26.3261C38.6195 25.9537 37.2891 25.9541 36.1717 26.3798C35.0544 26.8055 34.363 27.657 34.0438 28.8808C33.831 29.7852 33.9375 30.5304 34.3631 31.1689C34.7888 31.8072 35.5336 32.3923 36.4911 32.9775C37.4488 33.5628 38.9921 34.3078 41.0672 35.2655C43.1956 36.1701 44.9519 37.1813 46.2821 38.1923C47.6653 39.2032 48.6231 40.4272 49.2616 41.9169C49.9 43.4067 49.9528 45.1627 49.4207 47.2909C48.729 50.0045 47.1861 52.0262 44.7918 53.4628C42.3975 54.8994 39.6307 55.4314 36.4383 55.1122L35.161 60.1142L29.2547 58.6249L30.5321 53.5165C27.5524 52.1863 25.3174 50.3239 23.8807 47.8232C22.4441 45.3755 22.0718 42.715 22.7635 39.9482L29.7332 41.8105C29.4672 43.5131 29.7872 45.0032 30.745 46.2802C31.7027 47.6102 33.1925 48.5152 35.2674 48.9941C36.97 49.4197 38.4069 49.4192 39.6307 48.9403C40.8543 48.5147 41.6522 47.6102 41.9715 46.3866C42.1844 45.4821 42.0783 44.7366 41.5995 44.0448C41.1206 43.3532 40.4287 42.7678 39.4178 42.1825C38.4068 41.5972 36.8631 40.8527 34.7879 39.8417C32.7131 38.8841 31.0106 37.8731 29.6805 36.8622C28.3504 35.8513 27.3923 34.5741 26.7538 33.0312C26.1153 31.4882 26.1153 29.6789 26.6473 27.5507C27.2858 24.9968 28.7223 23.0806 30.9569 21.6972C33.1917 20.3137 35.8527 19.7812 38.8856 20.1005L40.1629 15.0458L46.0692 16.536Z" fill="white"/>
<path fill-rule="evenodd" clip-rule="evenodd" d="M111.389 76.0507C105.758 74.3416 99.7368 77.5525 98.0291 83.1689L98.0272 83.1737L89.5145 111.055C87.8581 116.511 90.819 122.332 96.1122 124.243L96.6317 124.416L96.6366 124.417L124.517 132.931C130.15 134.641 136.171 131.43 137.879 125.813L137.88 125.809L146.393 97.9267C148.103 92.2949 144.893 86.274 139.276 84.5663L139.271 84.5644L111.389 76.0507ZM74.369 98.9735C72.2768 83.4916 57.9994 72.6104 42.5194 74.7021C27.0376 76.7945 16.157 91.0716 18.2489 106.552C20.3415 122.033 34.6178 132.914 50.0975 130.822C65.5791 128.73 76.4604 114.453 74.369 98.9735ZM44.3807 10.0194C29.2351 6.20981 13.8366 15.4559 10.0213 30.623C6.2119 45.7685 15.4577 61.1682 30.6248 64.9833C45.7703 68.7926 61.17 59.5457 64.9852 44.3788C68.7948 29.2333 59.5476 13.8349 44.3807 10.0194Z" fill="white"/>
<path d="M109.364 103.965C108.01 108.456 110.51 113.131 114.925 114.463C119.417 115.818 124.092 113.318 125.424 108.903L133.574 111.361C130.862 120.354 121.384 125.304 112.467 122.615C103.474 119.902 98.5248 110.423 101.214 101.506L109.364 103.965Z" fill="#171717"/>
<path d="M47.2922 85.4427C50.2718 85.6023 52.8255 86.5076 54.9006 88.1038C56.9757 89.7533 58.1995 91.8814 58.6252 94.4886L51.4953 95.4466C51.1229 94.01 50.3782 92.9454 49.1545 92.2005C47.9839 91.4556 46.4934 91.1893 44.7375 91.4554C43.1414 91.6682 41.8642 92.2003 41.0129 92.9983C40.1083 93.7965 39.7898 94.8614 39.9494 96.0853C40.0559 96.9895 40.4811 97.6811 41.1193 98.1067C41.7579 98.5324 42.6631 98.7982 43.7805 99.011C44.8978 99.1706 46.6003 99.3304 48.8879 99.4368C51.1227 99.4368 53.0919 99.7035 54.7414 100.129C56.3908 100.555 57.7745 101.353 58.8918 102.47C60.0091 103.641 60.7537 105.29 61.0197 107.418C61.3922 110.185 60.7536 112.633 59.051 114.867C57.3483 117.049 54.9544 118.593 51.8684 119.497L52.5598 124.605L46.5471 125.404L45.8557 120.189C42.5567 120.082 39.8424 119.124 37.6076 117.368C35.373 115.613 34.0431 113.325 33.6174 110.451L40.7473 109.6C41.1197 111.249 41.9712 112.527 43.3547 113.378C44.7381 114.229 46.4408 114.495 48.5158 114.229C50.2185 114.016 51.602 113.431 52.5598 112.579C53.5705 111.728 53.9429 110.611 53.7834 109.334C53.677 108.43 53.251 107.737 52.6125 107.312C51.9209 106.833 51.0166 106.567 49.8996 106.408C48.7822 106.248 47.0255 106.089 44.7375 105.929C42.4497 105.823 40.4811 105.503 38.885 105.077C37.2887 104.599 35.9047 103.8 34.7873 102.629C33.6702 101.459 32.9254 99.7558 32.6594 97.5745C32.287 94.9674 32.9255 92.6262 34.5217 90.5511C36.118 88.4759 38.353 86.9864 41.2795 86.1351L40.5871 80.9739L46.5998 80.1751L47.2922 85.4427Z" fill="#171717"/>
<path d="M46.0686 16.5364L44.7912 21.6976C47.5049 22.9746 49.5264 24.7309 50.8566 27.0189C52.1868 29.3067 52.56 31.754 51.9748 34.3079L45.0041 32.5521C45.2169 31.0623 44.8973 29.7856 44.0461 28.6683C43.1947 27.5509 41.971 26.7521 40.215 26.3265C38.6188 25.954 37.2885 25.9545 36.1711 26.3802C35.0538 26.8059 34.3624 27.6574 34.0432 28.8812C33.8304 29.7856 33.9369 30.5308 34.3625 31.1692C34.7882 31.8076 35.5329 32.3927 36.4904 32.9778C37.4482 33.5631 38.9914 34.3082 41.0666 35.2659C43.1949 36.1705 44.9512 37.1817 46.2814 38.1927C47.6647 39.2036 48.6225 40.4276 49.2609 41.9173C49.8994 43.4071 49.9522 45.163 49.4201 47.2913C48.7284 50.0049 47.1855 52.0266 44.7912 53.4632C42.3969 54.8998 39.6301 55.4318 36.4377 55.1126L35.1604 60.1146L29.2541 58.6253L30.5314 53.5169C27.5518 52.1867 25.3167 50.3243 23.8801 47.8235C22.4434 45.3759 22.0712 42.7154 22.7629 39.9485L29.7326 41.8108C29.4666 43.5135 29.7866 45.0036 30.7443 46.2806C31.7021 47.6106 33.1918 48.5156 35.2668 48.9944C36.9694 49.4201 38.4063 49.4196 39.6301 48.9407C40.8537 48.5151 41.6516 47.6106 41.9709 46.387C42.1837 45.4825 42.0777 44.7369 41.5988 44.0452C41.12 43.3535 40.4281 42.7682 39.4172 42.1829C38.4062 41.5976 36.8625 40.8531 34.7873 39.8421C32.7125 38.8844 31.01 37.8734 29.6799 36.8626C28.3497 35.8517 27.3916 34.5745 26.7531 33.0315C26.1147 31.4886 26.1147 29.6793 26.6467 27.5511C27.2852 24.9972 28.7216 23.081 30.9563 21.6976C33.191 20.3141 35.852 19.7816 38.885 20.1009L40.1623 15.0462L46.0686 16.5364Z" fill="#171717"/>
<path fill-rule="evenodd" clip-rule="evenodd" d="M2.09102 28.6292C7.00224 9.10408 26.8275 -2.82642 46.3742 2.09014C65.899 7.00158 77.8306 26.8269 72.9143 46.3733C70.587 55.6252 64.9084 63.1696 57.5002 68.0267C70.4455 72.2144 80.5297 83.507 82.4719 97.8782C82.7481 99.9225 82.8454 101.95 82.7824 103.947L89.885 80.6878C92.9193 70.7174 103.42 65.0124 113.396 67.7698L113.87 67.9075L113.875 67.9095L141.751 76.4212C151.883 79.5018 157.612 90.2919 154.536 100.409L154.535 100.413L146.023 128.289L146.024 128.29C143.348 137.09 134.857 142.567 126.042 141.84C127.133 144.153 127.743 146.734 127.743 149.454V178.4H112.845V173.984H114.122C116.783 173.984 118.964 171.802 118.964 169.142V149.826C118.964 144.24 114.388 139.663 108.801 139.663C103.214 139.664 98.6379 144.24 98.6379 149.826V178.4H83.7395V173.984H85.0168C87.6771 173.984 89.8584 171.802 89.8586 169.142V149.454C89.8586 142.831 93.4579 137.065 98.7893 133.976L94.1545 132.561C86.268 130.163 81.0494 123.094 80.5744 115.307C77.4875 123.705 71.3751 130.778 63.3879 135.014C66.7903 137.698 69.2293 141.609 69.9582 146.208L73.0979 165.683C73.5237 168.343 76.0244 170.153 78.6848 169.727L79.9084 169.514L80.5998 173.877L65.9143 176.218L61.3918 147.964C60.5486 142.483 55.4775 138.779 50.0559 139.484L50.0588 139.503C44.4188 139.503 39.8967 144.079 39.8967 149.666V168.982C39.8969 171.642 42.0781 173.824 44.7385 173.824H46.0148V178.24H31.1164V149.294C31.1164 144.835 32.7547 140.746 35.467 137.608C22.3533 133.512 12.1045 122.147 10.1447 107.647C8.20258 93.2749 14.9307 79.7144 26.301 72.2425C8.16879 66.3966 -2.62667 47.3857 2.09102 28.6292ZM111.389 76.0511C105.757 74.342 99.7362 77.5529 98.0285 83.1692L98.0266 83.1741L89.5139 111.055C87.8574 116.511 90.8184 122.332 96.1115 124.243L96.6311 124.416L96.6359 124.417L124.517 132.931C130.149 134.641 136.17 131.431 137.878 125.814L137.879 125.809L146.393 97.9271C148.102 92.2952 144.892 86.2744 139.276 84.5667L139.271 84.5648L111.389 76.0511ZM74.3684 98.9739C72.2762 83.492 57.9988 72.6108 42.5188 74.7024C27.037 76.7949 16.1563 91.072 18.2482 106.552C20.3409 122.033 34.6172 132.914 50.0969 130.823C65.5784 128.73 76.4597 114.454 74.3684 98.9739ZM44.3801 10.0198C29.2345 6.21019 13.836 15.4562 10.0207 30.6233C6.21128 45.7689 15.4571 61.1686 30.6242 64.9837C45.7697 68.793 61.1694 59.5461 64.9846 44.3792C68.7942 29.2337 59.5469 13.8353 44.3801 10.0198Z" fill="#171717"/>
</svg>
