<svg width="30" height="30" viewBox="0 0 30 30" fill="none" xmlns="http://www.w3.org/2000/svg">
<path fill-rule="evenodd" clip-rule="evenodd" d="M8.75 16.25C10.0761 16.25 11.3475 16.7772 12.2852 17.7148C13.2228 18.6525 13.75 19.9239 13.75 21.25V25C13.75 26.3261 13.2228 27.5975 12.2852 28.5352C11.3475 29.4728 10.0761 30 8.75 30H5C3.67392 30 2.40253 29.4728 1.46484 28.5352C0.527162 27.5975 0 26.3261 0 25V21.25C1.26283e-07 19.9239 0.527162 18.6525 1.46484 17.7148C2.40253 16.7772 3.67392 16.25 5 16.25H8.75ZM5 18.75C4.33696 18.75 3.70126 19.0136 3.23242 19.4824C2.76358 19.9513 2.5 20.587 2.5 21.25V25C2.5 25.663 2.76358 26.2987 3.23242 26.7676C3.70126 27.2364 4.33696 27.5 5 27.5H8.75C9.41304 27.5 10.0487 27.2364 10.5176 26.7676C10.9864 26.2987 11.25 25.663 11.25 25V21.25C11.25 20.587 10.9864 19.9513 10.5176 19.4824C10.0487 19.0136 9.41304 18.75 8.75 18.75H5Z" fill="#FF4929"/>
<path fill-rule="evenodd" clip-rule="evenodd" d="M25 16.25C26.3261 16.25 27.5975 16.7772 28.5352 17.7148C29.4728 18.6525 30 19.9239 30 21.25V25C30 26.3261 29.4728 27.5975 28.5352 28.5352C27.5975 29.4728 26.3261 30 25 30H21.25C19.9239 30 18.6525 29.4728 17.7148 28.5352C16.7772 27.5975 16.25 26.3261 16.25 25V21.25C16.25 19.9239 16.7772 18.6525 17.7148 17.7148C18.6525 16.7772 19.9239 16.25 21.25 16.25H25ZM21.25 18.75C20.587 18.75 19.9513 19.0136 19.4824 19.4824C19.0136 19.9513 18.75 20.587 18.75 21.25V25C18.75 25.663 19.0136 26.2987 19.4824 26.7676C19.9513 27.2364 20.587 27.5 21.25 27.5H25C25.663 27.5 26.2987 27.2364 26.7676 26.7676C27.2364 26.2987 27.5 25.663 27.5 25V21.25C27.5 20.587 27.2364 19.9513 26.7676 19.4824C26.2987 19.0136 25.663 18.75 25 18.75H21.25Z" fill="#FF4929"/>
<path fill-rule="evenodd" clip-rule="evenodd" d="M8.75 0C10.0761 0 11.3475 0.527162 12.2852 1.46484C13.2228 2.40253 13.75 3.67392 13.75 5V8.75C13.75 10.0761 13.2228 11.3475 12.2852 12.2852C11.3475 13.2228 10.0761 13.75 8.75 13.75H5C3.67392 13.75 2.40253 13.2228 1.46484 12.2852C0.527162 11.3475 0 10.0761 0 8.75V5C1.26283e-07 3.67392 0.527162 2.40253 1.46484 1.46484C2.40253 0.527162 3.67392 1.26282e-07 5 0H8.75ZM5 2.5C4.33696 2.5 3.70126 2.76358 3.23242 3.23242C2.76358 3.70126 2.5 4.33696 2.5 5V8.75C2.5 9.41304 2.76358 10.0487 3.23242 10.5176C3.70126 10.9864 4.33696 11.25 5 11.25H8.75C9.41304 11.25 10.0487 10.9864 10.5176 10.5176C10.9864 10.0487 11.25 9.41304 11.25 8.75V5C11.25 4.33696 10.9864 3.70126 10.5176 3.23242C10.0487 2.76358 9.41304 2.5 8.75 2.5H5Z" fill="#FF4929"/>
<path fill-rule="evenodd" clip-rule="evenodd" d="M25 0C26.3261 0 27.5975 0.527162 28.5352 1.46484C29.4728 2.40253 30 3.67392 30 5V8.75C30 10.0761 29.4728 11.3475 28.5352 12.2852C27.5975 13.2228 26.3261 13.75 25 13.75H21.25C19.9239 13.75 18.6525 13.2228 17.7148 12.2852C16.7772 11.3475 16.25 10.0761 16.25 8.75V5C16.25 3.67392 16.7772 2.40253 17.7148 1.46484C18.6525 0.527162 19.9239 1.26282e-07 21.25 0H25ZM21.25 2.5C20.587 2.5 19.9513 2.76358 19.4824 3.23242C19.0136 3.70126 18.75 4.33696 18.75 5V8.75C18.75 9.41304 19.0136 10.0487 19.4824 10.5176C19.9513 10.9864 20.587 11.25 21.25 11.25H25C25.663 11.25 26.2987 10.9864 26.7676 10.5176C27.2364 10.0487 27.5 9.41304 27.5 8.75V5C27.5 4.33696 27.2364 3.70126 26.7676 3.23242C26.2987 2.76358 25.663 2.5 25 2.5H21.25Z" fill="#FF4929"/>
</svg>
