<svg width="30" height="30" viewBox="0 0 30 30" fill="none" xmlns="http://www.w3.org/2000/svg">
<path d="M29.6338 27.8662L22.1725 20.405C23.9375 18.2487 25 15.4963 25 12.5C25 5.6075 19.3925 0 12.5 0C5.6075 0 0 5.6075 0 12.5C0 19.3925 5.6075 25 12.5 25C15.4963 25 18.2487 23.9375 20.405 22.1725L27.8662 29.6338C28.11 29.8775 28.43 30 28.75 30C29.07 30 29.39 29.8775 29.6338 29.6338C30.1225 29.145 30.1225 28.355 29.6338 27.8662ZM2.5 12.5C2.5 6.98625 6.98625 2.5 12.5 2.5C18.0137 2.5 22.5 6.98625 22.5 12.5C22.5 18.0137 18.0137 22.5 12.5 22.5C6.98625 22.5 2.5 18.0137 2.5 12.5ZM19.9162 10.9238C18.885 9.41125 16.5525 6.875 12.5 6.875C8.4475 6.875 6.115 9.4125 5.08375 10.9238C4.43125 11.8813 4.43125 13.1175 5.08375 14.075C6.115 15.5875 8.44875 18.125 12.5 18.125C16.5512 18.125 18.885 15.5875 19.9162 14.0762C20.5687 13.1187 20.5687 11.8813 19.9162 10.9238ZM17.8513 12.6675C16.9325 14.0175 15.2575 15.625 12.5013 15.625C9.745 15.625 8.07125 14.0163 7.15125 12.6663C7.08125 12.565 7.08125 12.435 7.15125 12.3325C8.07 10.9825 9.745 9.375 12.5013 9.375C15.2575 9.375 16.9325 10.9838 17.8513 12.3325C17.9213 12.435 17.9213 12.565 17.8513 12.6675ZM14.3763 12.5C14.3763 13.5362 13.5375 14.375 12.5013 14.375C11.465 14.375 10.6263 13.5362 10.6263 12.5C10.6263 11.4638 11.465 10.625 12.5013 10.625C13.5375 10.625 14.3763 11.4638 14.3763 12.5Z" fill="#171717"/>
</svg>
