<svg width="30" height="31" viewBox="0 0 30 31" fill="none" xmlns="http://www.w3.org/2000/svg">
<path d="M28.4263 18.75C22.0413 18.75 18.3188 21.4738 16.215 24.0313V19.9125C21.14 19.2938 24.965 15.0888 24.965 9.99875C24.965 4.48625 20.4788 0 14.965 0C9.45125 0 4.965 4.48625 4.965 10C4.965 15.09 8.79 19.295 13.715 19.9137V24.0287C11.6125 21.4712 7.895 18.75 1.52 18.75H0L0.2925 20.24C1.8275 28.0525 9.4375 30.0312 14.03 30.0312C14.36 30.0312 14.67 30.0188 14.965 29.9988C15.26 30.0188 15.57 30.0312 15.9 30.0312C20.4975 30.0312 28.1163 28.0525 29.6525 20.2413L29.945 18.75H28.4263ZM7.465 10C7.465 5.86375 10.8288 2.5 14.965 2.5C19.1013 2.5 22.465 5.86375 22.465 10C22.465 14.1363 19.1013 17.5 14.965 17.5C10.8288 17.5 7.465 14.1363 7.465 10ZM3.18375 21.3238C9.2525 21.8725 11.9888 25.3825 13.0975 27.49C10.3025 27.3125 5.03625 26.2988 3.18375 21.3238ZM16.8363 27.485C17.9475 25.3763 20.6875 21.8725 26.76 21.3238C24.9063 26.2762 19.635 27.2988 16.8363 27.485ZM13.965 16.2513V14.7512H13.715C12.2138 14.7512 10.9788 13.595 10.8513 12.1263H12.8763C12.9838 12.4875 13.3188 12.7513 13.715 12.7513H16.3725C16.7675 12.7513 17.09 12.43 17.09 12.0337C17.09 11.6937 16.8475 11.3975 16.5125 11.33L13.0238 10.6313C11.7575 10.3775 10.84 9.2575 10.84 7.9675C10.84 6.46875 12.0588 5.25125 13.5563 5.25125H13.965V3.75125H15.965V5.25125H16.215C17.7163 5.25125 18.9513 6.4075 19.0788 7.87625H17.0538C16.9463 7.515 16.6113 7.25125 16.215 7.25125H13.5563C13.1613 7.25125 12.84 7.5725 12.84 7.96875C12.84 8.30875 13.0825 8.605 13.4163 8.67125L16.9063 9.37C18.1725 9.6225 19.09 10.7437 19.09 12.0337C19.09 13.5325 17.8713 14.75 16.3725 14.75H15.965V16.25H13.965V16.2513Z" fill="#171717"/>
</svg>
