<svg width="30" height="31" viewBox="0 0 30 31" fill="none" xmlns="http://www.w3.org/2000/svg">
<path d="M27.2463 7.92371L18.4962 2.01871C16.3725 0.586211 13.6275 0.586211 11.5038 2.01871L2.75375 7.92371C1.02875 9.08871 0 11.025 0 13.1062V24.75C0 28.1962 2.80375 31 6.25 31H23.75C27.1962 31 30 28.1962 30 24.75V13.1062C30 11.0262 28.9713 9.08871 27.2463 7.92371ZM10 28.5C10 25.7425 12.2425 23.5 15 23.5C17.7575 23.5 20 25.7425 20 28.5H10ZM27.5 24.75C27.5 26.8175 25.8175 28.5 23.75 28.5H22.5C22.5 24.3637 19.1363 21 15 21C10.8637 21 7.5 24.3637 7.5 28.5H6.25C4.1825 28.5 2.5 26.8175 2.5 24.75V13.1062C2.5 11.8575 3.1175 10.695 4.1525 9.99746L12.9025 4.09246C13.54 3.66246 14.27 3.44746 15 3.44746C15.73 3.44746 16.46 3.66246 17.0975 4.09246L25.8475 9.99746C26.8825 10.6962 27.5 11.8575 27.5 13.1062V24.75ZM15 9.74996C12.2425 9.74996 10 11.9925 10 14.75C10 17.5075 12.2425 19.75 15 19.75C17.7575 19.75 20 17.5075 20 14.75C20 11.9925 17.7575 9.74996 15 9.74996ZM15 17.25C13.6212 17.25 12.5 16.1287 12.5 14.75C12.5 13.3712 13.6212 12.25 15 12.25C16.3788 12.25 17.5 13.3712 17.5 14.75C17.5 16.1287 16.3788 17.25 15 17.25Z" fill="#FF4929"/>
</svg>
