<svg width="111" height="118" viewBox="0 0 111 118" fill="none" xmlns="http://www.w3.org/2000/svg">
<path d="M110.764 117.51L61.0842 117.511L0.0976562 117.51C0.0976562 117.51 2.70726 90.834 14.6921 82.2319C15.272 81.8453 15.9486 81.3621 16.5285 80.9755C28.5134 73.2433 45.5242 70.2471 45.5242 70.2471L69.9772 71.3103C69.9772 71.3103 81.962 73.5332 91.7239 79.2357C92.6904 79.8156 93.657 80.3956 94.6235 81.0721C104.772 88.2244 110.764 117.51 110.764 117.51Z" fill="#FF4929"/>
<path d="M31.9919 117.51H0C0 117.51 2.60961 90.8341 14.5945 82.2321C15.1744 81.8455 15.851 81.3622 16.4309 80.9756C20.8769 84.8417 32.8617 97.4065 31.9919 117.51Z" fill="#FF4929"/>
<path d="M99.4529 117.511C99.8395 99.8232 94.7169 85.712 91.7207 79.2363C92.6872 79.8162 93.6537 80.3962 94.6203 81.0727C104.769 88.225 110.761 117.511 110.761 117.511H99.4529Z" fill="#FF4929"/>
<path d="M50.2598 56.6195C50.2598 56.6195 49.5832 67.058 44.2674 62.5153C40.3046 59.2291 43.3009 56.4262 39.2415 52.7534C37.5984 51.3037 32.6691 48.5974 34.0223 43.2815C35.3754 37.9657 38.8549 37.4824 36.5352 35.0661C34.2156 32.6498 30.2528 26.6574 37.5017 21.2448C44.7506 15.7357 37.4051 9.54992 46.587 6.65036C55.769 3.75079 59.7317 7.52022 67.2706 3.65414C74.9061 -0.115297 81.9617 -1.37177 86.891 1.81775C93.6566 6.07044 86.601 20.5683 80.9952 20.9549C75.486 21.3415 50.2598 56.6195 50.2598 56.6195Z" fill="#171717"/>
<path d="M70.2664 65.1243L69.9764 71.31C69.2032 71.8899 68.43 72.3732 67.7534 72.7598C56.7351 78.7522 45.5234 70.2468 45.5234 70.2468L46.3933 48.79L67.3668 63.0946L70.2664 65.1243Z" fill="#F1B19B"/>
<path d="M70.2664 65.1242L69.9765 71.31C69.2032 71.8899 68.43 72.3731 67.7535 72.7597C58.7648 68.797 52.4824 58.9385 52.4824 58.9385L67.3669 63.2878L70.2664 65.1242Z" fill="#CB7E61"/>
<path d="M79.1602 38.1594C79.1602 38.1594 82.8329 34.1967 84.6693 38.3527C86.5057 42.6054 84.5727 50.9175 79.3535 49.2744L79.1602 38.1594Z" fill="#F1B19B"/>
<path d="M83.1215 18.9251C83.1215 18.9251 87.1809 20.5682 85.1512 25.1108C83.2181 29.6535 83.3148 30.62 83.8947 33.5196C84.378 36.4192 82.0583 38.5455 81.1884 38.2555C80.4152 37.9656 73.4563 16.6055 83.1215 18.9251Z" fill="#171717"/>
<path d="M82.2511 52.8501C82.2511 52.8501 81.7679 65.6082 68.4299 65.0283C55.2852 64.4484 46.6831 53.6233 46.1999 53.1401V50.4338L46.0066 36.5159L45.9099 29.0737C45.9099 29.0737 44.7501 15.639 57.6048 13.706C66.9801 12.3529 75.6788 14.1893 79.8348 19.3118C79.9315 19.5051 80.1248 19.6018 80.2214 19.7951C81.5746 21.5348 82.3478 23.6612 82.4444 26.1741V39.4155V42.7016L82.2511 52.8501Z" fill="#F1B19B"/>
<path d="M72.7804 52.6558C73.0704 52.5592 73.167 52.3659 73.167 52.3659C73.457 52.1726 73.5536 51.786 73.3603 51.496C73.167 51.2061 72.7804 51.1094 72.4904 51.3027C72.3938 51.3994 70.4607 52.6558 68.3344 51.5927C68.0444 51.3994 67.6578 51.5927 67.4645 51.8826C67.2712 52.1726 67.4645 52.5592 67.7545 52.7525C69.8808 53.9123 71.9105 53.1391 72.7804 52.6558Z" fill="#F1B19B"/>
<path d="M80.3182 19.6979C78.2885 18.828 76.7421 19.5046 73.4559 20.7611C68.72 22.5975 63.5008 20.5678 58.9581 17.9582C54.4154 15.4452 51.5159 18.6347 52.9657 20.8577C54.4155 23.0807 54.2221 24.8205 52.3858 27.5267C50.5494 30.233 55.5753 31.6828 52.6757 33.7125C51.4192 34.5823 51.5159 35.9355 51.9025 37.1919C52.3858 38.6417 51.1293 39.9949 49.6795 39.6082C48.2297 39.125 46.2 36.4187 46.2 36.4187L42.1406 26.8502C42.1406 26.8502 45.7168 13.8021 58.4748 11.8691C67.8501 10.5159 76.5488 12.3523 80.7048 17.4749C80.8015 17.6682 80.2216 19.5046 80.3182 19.6979Z" fill="#171717"/>
<path d="M50.6455 48.1143C50.5488 48.2109 48.7124 52.077 46.2961 53.1402V50.4339C46.1995 50.4339 48.3258 50.144 50.6455 48.1143Z" fill="#171717"/>
<path d="M48.6167 38.875C48.6167 38.875 43.7841 31.6034 39.8213 36.9824C36.5351 41.4649 41.851 53.6174 48.1334 49.8322L48.6167 38.875Z" fill="#F1B19B"/>
<path d="M42.1377 39.1251C42.2344 38.8351 42.5245 38.7384 42.8145 38.8351C43.0114 38.9334 47.8399 41.1568 48.2266 47.0499C48.2266 47.3399 48.0331 47.63 47.6465 47.63C47.3568 47.6298 47.1632 47.4364 47.2598 47.0499C47.1439 45.4868 46.6796 44.2197 46.0831 43.2071C46.0264 43.2095 45.9684 43.2051 45.9102 43.1856C45.0405 42.9924 43.5909 43.7658 43.1075 44.1524C43.0109 44.249 42.914 44.2491 42.8174 44.2491C42.7208 44.2491 42.5273 44.249 42.334 43.9591C42.1408 43.6691 42.2374 43.3789 42.4307 43.1856C42.6641 43.1075 43.9564 42.1592 45.2569 42.0382C43.975 40.5136 42.5402 39.858 42.4278 39.8019C42.1379 39.7052 42.0412 39.415 42.1377 39.1251Z" fill="#CB7E61"/>
<path d="M63.9844 44.5381C64.1777 44.3448 64.4678 44.4415 64.6611 44.6348C64.6841 44.665 67.0933 47.8282 70.46 48.5977C73.8427 49.3708 75.293 47.3408 75.293 47.3408C75.4862 47.1478 75.7755 47.0513 75.9688 47.2442C76.1621 47.4375 76.2587 47.7276 76.0654 47.9209C76.065 48.0182 74.9049 49.6602 72.1992 49.7569C71.6194 49.7569 70.943 49.7568 70.2666 49.5635C66.4989 48.7906 63.9864 45.4108 63.8877 45.2149C63.6944 45.0216 63.7911 44.7314 63.9844 44.5381Z" fill="#171717"/>
<path d="M72.0068 32.6494C72.2967 32.6494 72.4902 32.9396 72.4902 33.2295L72.2969 36.709C73.1667 37.0956 75.0999 38.3527 75.9697 42.3155C76.1628 42.9917 75.873 43.2814 75.6797 43.4746C75.1964 43.8612 74.3268 43.8613 73.3604 43.7647C72.2005 43.5714 70.8475 43.0878 70.1709 42.7979C69.8811 42.7013 69.7844 42.4119 69.8809 42.1221C69.9775 41.8321 70.2677 41.7354 70.5576 41.8321C72.4906 42.6052 74.713 43.0878 75.0029 42.7012V42.6045C74.0363 38.159 71.7168 37.6758 71.7168 37.6758C71.4271 37.5791 71.3301 37.3856 71.3301 37.1924L71.4268 33.1328C71.4269 32.8431 71.717 32.6496 72.0068 32.6494Z" fill="#171717"/>
<path d="M75.293 33.1328C75.9695 33.1328 76.4531 34.1967 76.4531 35.4531C76.3564 36.7095 75.7761 37.7724 75.0996 37.6758C74.4232 37.6756 73.8439 36.6127 73.9404 35.3565C74.0371 34.1001 74.6165 33.0364 75.293 33.1328Z" fill="#171717"/>
<path d="M62.6289 32.8418C63.3055 32.8418 63.7891 33.9057 63.7891 35.1621C63.6923 36.4185 63.1121 37.4814 62.4355 37.3848C61.7592 37.3843 61.1798 36.3216 61.2764 35.0655C61.373 33.8092 61.9525 32.7457 62.6289 32.8418Z" fill="#171717"/>
<path d="M72.0986 26.5606C72.1953 26.5606 77.8018 24.3377 81.3779 26.8506C81.1844 28.3967 79.7346 29.5563 78.0918 29.3633C77.1253 29.2667 76.0612 29.17 74.998 29.2666C73.452 29.363 72.1954 28.1067 72.0986 26.5606Z" fill="#171717"/>
<path d="M57.5078 25.3047C61.1763 22.7947 66.9659 25.202 66.9795 25.1113C66.9793 26.7542 65.5297 27.914 63.9834 27.8174C62.8236 27.7208 61.7604 27.8174 60.7939 27.9141C59.2476 28.1074 57.7013 26.9476 57.5078 25.3047Z" fill="#171717"/>
<path d="M45.715 66.2852C45.715 66.2852 49.4844 73.0508 60.5994 74.8872L53.1572 84.3591L39.3359 71.6977L45.715 66.2852Z" fill="white"/>
<path d="M70.1679 66.8643C70.1679 66.8643 70.4578 71.8902 63.0156 74.983L70.1679 82.9085L75.8704 72.8567L70.1679 66.8643Z" fill="white"/>
</svg>
