<?xml version="1.0" encoding="UTF-8"?>
<svg id="Capa_2" data-name="Capa 2" xmlns="http://www.w3.org/2000/svg" viewBox="0 0 45.55 38.17">
  <defs>
    <style>
      .cls-1 {
        fill: #181818;
        stroke-width: 0px;
      }
    </style>
  </defs>
  <g id="Capa_8" data-name="Capa 8">
    <g id="Súmate_al_equipo" data-name="Súmate al equipo">
      <g>
        <path class="cls-1" d="m32.19,0H9.33C4.18,0,0,4.19,0,9.33v15.3c0,5.14,4.18,9.32,9.33,9.32h16.91c-.45-.92-.78-1.9-.97-2.94h-15.94c-3.53,0-6.38-2.86-6.38-6.38v-14.53h35.63v7.82c1.04.21,2.03.55,2.94,1.03v-9.61c0-5.14-4.18-9.33-9.32-9.33Z"/>
        <g>
          <path class="cls-1" d="m14.25,13.4c0-.35-.28-.6-.67-.6h-5.43c-.39,0-.67.25-.67.6v2.7c0,.35.28.6.67.6h5.43c.39,0,.67-.25.67-.6v-2.7Z"/>
          <path class="cls-1" d="m24.14,13.4c0-.35-.28-.6-.67-.6h-5.43c-.39,0-.67.25-.67.6v2.7c0,.35.28.6.67.6h5.43c.39,0,.67-.25.67-.6v-2.7Z"/>
          <path class="cls-1" d="m34.03,13.4c0-.35-.28-.6-.67-.6h-5.43c-.39,0-.67.25-.67.6v2.7c0,.35.28.6.67.6h5.43c.39,0,.67-.25.67-.6v-2.7Z"/>
        </g>
        <g>
          <path class="cls-1" d="m14.25,18.99c0-.35-.28-.6-.67-.6h-5.43c-.39,0-.67.25-.67.6v2.7c0,.35.28.6.67.6h5.43c.39,0,.67-.25.67-.6v-2.7Z"/>
          <path class="cls-1" d="m24.14,18.99c0-.35-.28-.6-.67-.6h-5.43c-.39,0-.67.25-.67.6v2.7c0,.35.28.6.67.6h5.43c.39,0,.67-.25.67-.6v-2.7Z"/>
          <path class="cls-1" d="m32.47,18.39c-2.01.74-3.75,2.04-5.04,3.71-.11-.1-.17-.24-.17-.41v-2.7c0-.35.28-.6.67-.6h4.54Z"/>
        </g>
        <g>
          <path class="cls-1" d="m14.25,24.57c0-.35-.28-.6-.67-.6h-5.43c-.39,0-.67.25-.67.6v2.7c0,.35.28.6.67.6h5.43c.39,0,.67-.25.67-.6v-2.7Z"/>
          <path class="cls-1" d="m24.14,24.57c0-.35-.28-.6-.67-.6h-5.43c-.39,0-.67.25-.67.6v2.7c0,.35.28.6.67.6h5.43c.39,0,.67-.25.67-.6v-2.7Z"/>
        </g>
        <path class="cls-1" d="m41.52,21.38c-.88-.6-1.87-1.05-2.94-1.31-.71-.18-1.44-.27-2.2-.27-.81,0-1.59.11-2.34.3-1.49.39-2.84,1.15-3.93,2.19-.54.5-1.02,1.07-1.42,1.69-.69,1.05-1.16,2.24-1.37,3.52-.08.48-.12.98-.12,1.48,0,.69.08,1.37.23,2.02.24,1.06.66,2.06,1.24,2.94,1.64,2.54,4.48,4.22,7.72,4.22,5.06,0,9.18-4.12,9.18-9.18,0-3.16-1.6-5.95-4.04-7.6Zm-2.07,11.43c-.55.55-1.27.89-2.16,1.01v1.44h-1.7v-1.47c-.29-.05-.56-.12-.82-.22-.54-.19-.99-.49-1.37-.87-.47-.49-.74-1.06-.82-1.71-.02-.11-.03-.23-.03-.35l1.69.03h.33c.04.48.23.86.58,1.15.35.29.82.43,1.4.43.48,0,.88-.1,1.19-.31s.46-.49.46-.86c0-.26-.09-.46-.26-.61-.17-.15-.41-.27-.71-.36-.29-.08-.74-.18-1.33-.31-.03,0-.06-.01-.09-.02-.63-.12-1.16-.27-1.59-.46-.43-.19-.78-.47-1.05-.84-.13-.18-.23-.39-.29-.62-.07-.25-.11-.53-.11-.85,0-.73.26-1.36.77-1.88.15-.15.31-.29.49-.4.43-.29.95-.48,1.55-.58v-1.45h1.7v1.48c.48.09.92.25,1.29.48.26.15.5.34.71.55.51.53.78,1.16.79,1.9h-2.01c-.05-.42-.22-.74-.52-.99-.3-.25-.7-.38-1.19-.38-.46,0-.82.1-1.1.29-.27.19-.41.47-.41.82,0,.26.08.45.25.6.16.14.4.26.7.34.3.08.77.19,1.4.31.11.02.21.04.3.06.51.11.95.24,1.32.39.44.18.79.45,1.06.81.06.08.12.18.17.28.16.32.24.71.24,1.17,0,.78-.28,1.44-.83,1.99Z"/>
      </g>
    </g>
  </g>
</svg>