<?xml version="1.0" encoding="UTF-8"?>
<svg id="Capa_2" data-name="Capa 2" xmlns="http://www.w3.org/2000/svg" viewBox="0 0 40.27 37.24">
  <defs>
    <style>
      .cls-1 {
        fill: #181818;
        stroke-width: 0px;
      }
    </style>
  </defs>
  <g id="Capa_8" data-name="Capa 8">
    <g id="Súmate_al_equipo" data-name="Súmate al equipo">
      <g>
        <path class="cls-1" d="m39.06,31.84h-.79V13.89c0-1.76-1.44-3.2-3.2-3.2s-3.2,1.44-3.2,3.2v17.94h-1.57v-11.48c0-1.76-1.44-3.2-3.2-3.2s-3.2,1.43-3.2,3.2v11.48h-1.57v-5.77c0-1.76-1.43-3.2-3.2-3.2s-3.2,1.44-3.2,3.2v5.77h-1.57v-1.78c0-1.76-1.44-3.2-3.2-3.2s-3.2,1.44-3.2,3.2v1.78h-2.57V1.21c0-.67-.54-1.21-1.21-1.21s-1.21.54-1.21,1.21v30.63h-1.78c-.67,0-1.21.54-1.21,1.21s.54,1.21,1.21,1.21h1.78v1.78c0,.67.54,1.21,1.21,1.21s1.21-.54,1.21-1.21v-1.78h33.66c.67,0,1.21-.54,1.21-1.21s-.54-1.21-1.21-1.21Z"/>
        <path class="cls-1" d="m8.47,24.61s.08,0,.12,0c.24,0,.47-.07.67-.21L34.82,6.25l-.11,1.06c-.03.31.06.61.25.85.19.24.47.39.78.42.63.07,1.21-.39,1.27-1.03l.38-3.61c0-.06,0-.11-.01-.19,0-.06,0-.14-.03-.22-.02-.08-.05-.14-.11-.25-.01-.03-.03-.08-.09-.15-.05-.07-.11-.12-.16-.16l-.16.19.11-.24s-.07-.06-.12-.1c-.05-.03-.11-.05-.15-.06l-.08.24v-.27c-.06-.02-.13-.04-.15-.04l-3.7-.41c-.31-.03-.61.06-.85.25-.24.19-.39.47-.42.78-.03.31.06.61.25.85s.47.39.78.42l.57.06L7.93,22.52c-.25.18-.42.45-.47.75-.05.31.02.61.2.86.19.27.49.45.82.48Z"/>
      </g>
    </g>
  </g>
</svg>