<?xml version="1.0" encoding="UTF-8"?>
<svg id="Capa_2" data-name="Capa 2" xmlns="http://www.w3.org/2000/svg" viewBox="0 0 42.8 33.8">
  <defs>
    <style>
      .cls-1 {
        fill: #181818;
        stroke-width: 0px;
      }
    </style>
  </defs>
  <g id="Capa_8" data-name="Capa 8">
    <g id="Súmate_al_equipo" data-name="Súmate al equipo">
      <g>
        <path class="cls-1" d="m42.01,19.44l-5.68-12.31c-.89-1.93-2.62-3.37-4.66-3.91C31.08,1.36,29.38.06,27.4,0c-.04,0-.09,0-.13,0C24.8,0,22.75,1.97,22.66,4.45c-.01.12-.01.34.03,2.72l.03,1.62h-2.66c0-.35.01-.75.02-1.16v-.21c.03-1.25.04-1.95.04-2.37h0s0-.51,0-.51c-.03-2.14-1.51-3.97-3.61-4.44-2.35-.52-4.69.85-5.41,3.11-2.05.54-3.77,1.98-4.67,3.91L.78,19.4l-.02.04c-1.27,3.41-.95,7.11.88,9.89,1.76,2.69,4.79,4.27,8.55,4.47,5.16,0,9.53-3.9,10.19-8.96h2.03c1.05,6.53,6.11,9.18,10.79,8.89,4.63-.29,9.61-3.61,9.59-10.21,0-1.4-.27-2.78-.79-4.09Zm-19.64,1.84l-.03.92h-1.91l-.03-.92h1.97Zm7.97-7.72c-2.05.45-3.85,1.44-5.17,2.79l.19-6.09v-.03c-.02-1.75.98-3.37,2.57-4.12.62-.3,1.28-.44,1.93-.44,1.68,0,3.3.95,4.07,2.56l2.67,5.78c-1.87-.75-4.1-.93-6.25-.46Zm2.23,2.34c.1,0,.2,0,.3,0,4.11.09,7.37,3.51,7.28,7.63,0,5.06-3.83,7.47-7.39,7.57-3.67.11-7.51-2.21-7.8-7.59.01-4.19,3.42-7.6,7.62-7.61Zm-7.27-11.36c0-.5.2-.97.56-1.33.36-.35.82-.54,1.32-.54h.03c.47,0,.92.17,1.27.45-1.18.23-2.27.75-3.19,1.51v-.1Zm-11.04-1.42c.36-.31.84-.48,1.32-.48.52.01,1,.22,1.37.6.35.37.55.85.54,1.4-.93-.77-2.04-1.29-3.23-1.52Zm-1,2.56c1.21.09,2.31.64,3.1,1.55h0c.71.84,1.08,1.91,1.06,3.04l.19,6.14c-1.92-2-4.57-3.16-7.42-3.16-1.39.02-2.75.29-4.03.81l2.68-5.82c.27-.56.65-1.06,1.12-1.46.91-.79,2.08-1.18,3.29-1.1ZM2.63,23.22c.07-4.06,3.39-7.33,7.45-7.33.04,0,.08,0,.12,0,4.2.01,7.62,3.43,7.62,7.6-.29,5.4-4.12,7.71-7.8,7.61-3.57-.1-7.41-2.51-7.4-7.57v-.02c0-.1,0-.19,0-.29Zm20.06-11.78l-.23,7.19h-2.13l-.23-7.19h2.59Z"/>
        <path class="cls-1" d="m32.56,29.77c4.09-.03,6.24-3.17,6.24-6.25,0-3.07-2.14-6.21-6.24-6.24h-.01c-4.1.03-6.24,3.17-6.24,6.25,0,3.08,2.14,6.21,6.26,6.25Zm-3.87-6.25c0-2.11,1.73-3.84,3.84-3.85h.02c2.12,0,3.85,1.72,3.86,3.83,0,2.11-1.73,3.84-3.84,3.85-1.03,0-2-.39-2.74-1.12-.73-.73-1.14-1.69-1.15-2.72Z"/>
        <path class="cls-1" d="m10.23,29.77c4.09-.03,6.24-3.17,6.24-6.25,0-2.98-1.95-6.2-6.24-6.24h-.01c-4.1.03-6.24,3.17-6.24,6.25,0,3.08,2.14,6.21,6.25,6.25Zm-.11-10.07s.07,0,.1,0c2.63.03,3.83,2,3.83,3.81,0,1.82-1.2,3.8-3.83,3.82h-.01c-.05,0-.11,0-.16,0-2.07-.03-3.72-1.74-3.69-3.83,0-.05,0-.11,0-.16.05-2.03,1.72-3.65,3.76-3.65Z"/>
      </g>
    </g>
  </g>
</svg>