<?xml version="1.0" encoding="UTF-8"?>
<svg id="Capa_2" data-name="Capa 2" xmlns="http://www.w3.org/2000/svg" viewBox="0 0 74.33 93.02">
  <defs>
    <style>
      .cls-1 {
        fill: #181818;
        stroke-width: 0px;
      }
    </style>
  </defs>
  <g id="Capa_8" data-name="Capa 8">
    <g id="Súmate_al_equipo" data-name="Súmate al equipo">
      <g>
        <g>
          <g>
            <path class="cls-1" d="m12.8,28.72l.21-.43c.99-2.06,2-4.19,3.07-6.49l.09-.21,10.07-2.51.18.13c2.25,1.71,4.41,3.31,6.15,4.6,7.41,5.47,12.91,9.53,16.18,14.67,1.36-1.12,2.9-2.05,4.59-2.74-3.78-6.02-9.88-10.54-17.61-16.23l-.11-.07c-.63-.47-1.28-.95-1.94-1.44l-.79-.58.95-.24c1.45-.36,2.32-1.81,1.97-3.23s-1.81-2.3-3.23-1.94l-.89.22.31-.84c.77-1.83,1.23-3.45,1.41-4.92.22-1.87-.47-3.68-1.92-4.95-1.48-1.31-3.51-1.81-5.42-1.33L7.45,4.82c-1.92.48-3.47,1.87-4.17,3.73-.67,1.8-.44,3.72.64,5.27.85,1.22,2.01,2.42,3.56,3.68l.71.59-.89.22c-1.47.37-2.34,1.82-1.99,3.24s1.8,2.29,3.23,1.94l.95-.24-.4.88c-.36.75-.71,1.49-1.06,2.21l-.04.09C2.51,37.9-1.46,46.19.52,56.12c1.23,6.14,4.06,10.66,8.43,13.43,5.82,3.69,13.96,4.16,24.89,1.44,5.77-1.44,10.43-3.3,14.05-5.62-1.31-1.21-2.43-2.64-3.34-4.23-3.07,1.88-7.08,3.44-12.01,4.67-9.31,2.32-16.28,2.06-20.75-.76-3.13-1.98-5.11-5.25-6.05-9.98-1.63-8.18,1.82-15.42,7.07-26.35Zm-4.53-18.4c.11-.16.3-.28.46-.32l14.6-3.64c1.26-.31,2.52-.64,3.78-.94.3-.08.73-.17.93.14.1.17.08.37.02.55-.66,2.1-1.4,4.19-2.37,6.17-.25.51-.49.99-.7,1.44l-.1.2-10,2.49-.18-.13c-.4-.31-.84-.62-1.28-.94-1.04-.74-2.03-1.55-2.99-2.4-.48-.42-.95-.86-1.41-1.3-.29-.27-1.09-.83-.78-1.31Z"/>
            <path class="cls-1" d="m32.83,42.76c-1.15-.16-2.54-.2-4.13-.1-1.62.09-2.85.13-3.65.1-.85-.03-1.56-.19-2.11-.46-.61-.31-1.02-.85-1.21-1.61-.26-1.02-.05-1.92.6-2.68.61-.71,1.54-1.22,2.74-1.52,1.31-.33,2.47-.25,3.46.23.88.42,1.53,1.09,1.95,1.98l4.07-1.01c-.51-1.47-1.41-2.61-2.77-3.45-1.48-.93-3.25-1.34-5.25-1.22l-.38.02-.88-3.54-3.26.81.87,3.49-.37.15c-1.88.78-3.28,1.94-4.17,3.43-.89,1.49-1.12,3.04-.7,4.72.35,1.39.93,2.44,1.74,3.11.82.68,1.78,1.12,2.85,1.3,1.12.19,2.49.24,4.07.15,1.65-.08,2.9-.1,3.71-.08.87.03,1.6.19,2.16.49.63.33,1.04.88,1.23,1.64.26,1.05.02,1.99-.71,2.8-.68.76-1.67,1.3-2.94,1.62-1.53.38-2.88.3-4.01-.23-1.03-.48-1.77-1.26-2.22-2.32l-4.07.96c.53,1.63,1.51,2.88,2.98,3.8,1.61,1,3.54,1.43,5.73,1.26l.39-.03.88,3.52,3.26-.81-.86-3.46.37-.15c1.99-.81,3.48-2.02,4.44-3.61.96-1.58,1.21-3.22.76-5.01-.34-1.37-.92-2.39-1.72-3.04-.81-.66-1.77-1.07-2.86-1.23Z"/>
          </g>
          <path class="cls-1" d="m56.69,38.53c-.56.14-1.09.31-1.61.51-1.74.65-3.28,1.63-4.58,2.84-3.68,3.4-5.44,8.65-4.15,13.86.28,1.13.69,2.2,1.22,3.19.86,1.62,2,3.03,3.35,4.18,3.37,2.87,8.03,4.12,12.64,2.97,7.6-1.89,12.23-9.61,10.34-17.21-1.89-7.6-9.61-12.23-17.21-10.34Zm9.8,16.22c-.17.44-.52.75-.96.86-.26.06-.57.04-.84-.04l-5.08-1.96c-.41-.17-.74-.53-.85-.96l-1.82-7.28c-.02-.09-.04-.17-.03-.26,0-.01,0-.02,0-.04,0-.06,0-.12,0-.19,0,0,0,0,0-.02t0-.01s0-.06.02-.1c0-.06.02-.12.05-.19,0-.03.02-.07.04-.09.09-.24.26-.44.47-.59.06-.05.13-.09.21-.12.08-.04.17-.07.27-.1.76-.19,1.52.27,1.7,1.02l1.64,6.58,4.4,1.71c.71.25,1.07,1.06.78,1.77Z"/>
        </g>
        <path class="cls-1" d="m64.95,70.54c-.14.21-.17.63-.31.82-1.17,1.63-2.06,2.82-4.49,2.01-7.18-2.38-14.38-6.44-22.15-7.4-1.47.34-2.89.76-4.33,1.23-6.29,4.69-10.85,11.21-15.87,16.88-1.7,1.91-3.12,1.24-4.91.39-.21-.1-.45-.46-.67-.57-.69.74-1.37,1.52-2.08,2.26,1.23,1.05,2.01,1.74,3.35,2.88s3.21,2.8,4.66,3.98c5.19-5.33,9.75-12.84,15.19-17.48,3.13-2.66,5.09-3.46,9.1-2.43,6.98,1.79,14.52,6.06,21.7,8.22.69-1.71,1.54-4.06,2.16-5.69.62-1.63.97-2.6,1.54-4.11-.97-.31-1.94-.68-2.9-1Z"/>
      </g>
    </g>
  </g>
</svg>