<?xml version="1.0" encoding="UTF-8"?>
<svg id="Capa_2" data-name="Capa 2" xmlns="http://www.w3.org/2000/svg" viewBox="0 0 82.59 86.45">
  <defs>
    <style>
      .cls-1 {
        fill: #181818;
        stroke-width: 0px;
      }
    </style>
  </defs>
  <g id="Capa_8" data-name="Capa 8">
    <g id="Súmate_al_equipo" data-name="Súmate al equipo">
      <g>
        <g>
          <g>
            <path class="cls-1" d="m58.18,0l1.58,6.35-3.79.94-.64-2.56-5.37,1.34c.25.92.72,1.73,1.33,2.39l-4.09,1.02c-.45-.75-.8-1.58-1.03-2.46l-25.68,6.4c.21.89.29,1.79.24,2.66l-4.09,1.02c.23-.87.26-1.8.06-2.73l-5.45,1.36.64,2.56-3.79.94-1.58-6.35L58.18,0Z"/>
            <rect class="cls-1" x="32.28" y="11.95" width="2.84" height=".89" transform="translate(-2 8.52) rotate(-14)"/>
          </g>
          <g>
            <path class="cls-1" d="m64.36,5.21l1.93,7.74-4.46,1.11-.82-3.28-6.33,1.58c.18.67.46,1.28.81,1.84.28.45.61.85.99,1.2l-4.9,1.22c-.6-.95-1.07-2-1.37-3.15l-30.25,7.54c.28,1.15.36,2.3.26,3.42l-4.88,1.22c.16-.49.26-1.01.31-1.53.05-.65.01-1.33-.14-2l-6.43,1.6.82,3.28-4.46,1.11-1.93-7.74,60.84-15.17Z"/>
            <path class="cls-1" d="m0,29.48l10.86,43.55,71.73-17.88-10.86-43.55L0,29.48Zm6.57,3.95l7.57-1.89c.15.68.21,1.36.19,2.03h0c-.06,1.62-.62,3.15-1.55,4.41-.04.05-.08.09-.1.14-1,1.3-2.39,2.29-4.05,2.79-.06.02-.12.04-.18.05l-1.88-7.54Zm8.24,33.03l-1.87-7.52c4.14-.94,8.31,1.55,9.45,5.63l-7.57,1.89Zm61.21-15.26l-7.46,1.86c-.9-4.1,1.56-8.22,5.59-9.37l1.87,7.51Zm-3.18-12.77l-.19.05c-3.3.95-5.98,3.08-7.67,5.82-1.81,2.91-2.52,6.5-1.68,10.08l-35.66,8.89c-.94-3.55-3.25-6.39-6.21-8.11-2.81-1.64-6.22-2.26-9.62-1.51-.06,0-.13.02-.19.04l-1.86-7.46c.06-.02.12-.03.18-.05,1.51-.42,2.89-1.08,4.1-1.93.05-.04.09-.06.13-.1.04-.03.08-.05.12-.09,1.26-.93,2.34-2.06,3.19-3.34.32-.47.61-.97.86-1.48.72-1.44,1.18-3.01,1.35-4.65.14-1.38.06-2.81-.26-4.23,0-.04-.01-.09-.03-.12l35.87-8.94c-.06.05-.12.1-.18.16.38,1.4.98,2.7,1.75,3.86.92,1.38,2.07,2.55,3.39,3.49.46.34.94.63,1.45.9,1.32.71,2.76,1.2,4.27,1.44.05.01.1.02.15.02.09.02.17.03.25.03,1.45.19,2.94.13,4.44-.18l.19-.05,1.86,7.47Zm-3.17-12.73c-.06.02-.12.03-.19.04-1.71.32-3.41.06-4.89-.64-.06-.03-.11-.06-.17-.09-1.36-.68-2.51-1.75-3.29-3.09h0c-.33-.58-.61-1.21-.79-1.89l7.46-1.86,1.88,7.53Z"/>
            <rect class="cls-1" x="33.89" y="19.27" width="3.34" height="1.32" transform="translate(-3.77 9.19) rotate(-14)"/>
          </g>
          <g>
            <path class="cls-1" d="m55.27,21.28c-.06.05-.12.1-.18.16-.02-.04-.02-.07-.03-.11l.21-.05Z"/>
            <path class="cls-1" d="m50.75,44.26c.31,1.26.27,2.46-.13,3.61-.15.45-.36.88-.62,1.32-.93,1.54-2.36,2.7-4.28,3.49l.81,3.23-3.82.95-.82-3.29c-2.12.15-3.97-.25-5.53-1.23-.34-.21-.64-.44-.92-.69-1.05-.9-1.75-2.06-2.12-3.48l4.54-1.07c.34,1.04,1,1.79,1.95,2.24.95.45,2.09.51,3.4.19,1.09-.27,1.92-.72,2.49-1.36.57-.63.76-1.36.55-2.18-.14-.58-.45-.99-.91-1.23-.15-.08-.32-.15-.5-.19-.38-.13-.81-.19-1.3-.21-.73-.02-1.86,0-3.37.07-1.48.08-2.76.04-3.83-.14-1.07-.18-2.01-.61-2.83-1.29-.81-.67-1.39-1.71-1.73-3.08v-.02c-.29-1.16-.25-2.27.1-3.33.04-.13.09-.26.14-.39.06-.14.11-.27.19-.41.08-.17.17-.34.27-.5.53-.89,1.23-1.65,2.12-2.28.56-.4,1.2-.76,1.92-1.05l-.82-3.27,3.82-.95.83,3.33c1.94-.11,3.63.28,5.07,1.19.09.05.18.11.26.17.36.24.68.51.97.81.72.71,1.23,1.58,1.55,2.59.03.08.06.17.08.27l-4.53,1.13c-.03-.09-.07-.18-.11-.26-.23-.52-.55-.94-.97-1.27-.19-.16-.4-.3-.64-.41-.82-.39-1.78-.46-2.89-.18-1.03.26-1.8.68-2.3,1.26-.12.13-.2.26-.29.4-.28.5-.33,1.06-.18,1.68.03.11.06.21.1.31.16.42.42.71.79.89.45.22,1.04.35,1.76.38.73.02,1.83,0,3.32-.09.12,0,.24-.02.35-.02,1.35-.07,2.53-.03,3.53.11,1.09.15,2.03.57,2.84,1.22.58.47,1.04,1.12,1.37,1.96.14.33.25.68.35,1.07Z"/>
          </g>
        </g>
        <path class="cls-1" d="m74.65,63.98c-.14.21-.17.63-.31.82-1.17,1.63-2.06,2.82-4.49,2.01-7.18-2.38-14.38-6.44-22.15-7.4-1.47.34-2.89.76-4.33,1.23-6.29,4.69-10.85,11.21-15.87,16.88-1.7,1.91-3.12,1.24-4.91.39-.21-.1-.45-.46-.67-.57-.69.74-1.37,1.52-2.08,2.26,1.23,1.05,2.01,1.74,3.35,2.88s3.21,2.8,4.66,3.98c5.19-5.33,9.75-12.84,15.19-17.48,3.13-2.66,5.09-3.46,9.1-2.43,6.98,1.79,14.52,6.06,21.7,8.22.69-1.71,1.54-4.06,2.16-5.69.62-1.63.97-2.6,1.54-4.11-.97-.31-1.94-.68-2.9-1Z"/>
      </g>
    </g>
  </g>
</svg>