<?xml version="1.0" encoding="UTF-8"?>
<svg id="Capa_2" data-name="Capa 2" xmlns="http://www.w3.org/2000/svg" viewBox="0 0 78.41 92.45">
  <defs>
    <style>
      .cls-1 {
        fill: #181818;
        stroke-width: 0px;
      }
    </style>
  </defs>
  <g id="Capa_8" data-name="Capa 8">
    <g id="Súmate_al_equipo" data-name="Súmate al equipo">
      <g>
        <g>
          <path class="cls-1" d="m53.96,9.53l-.02-.02c-.2-.27-.45-.49-.72-.65L38.59.06l-.12.03c-.1-.03-.2-.05-.31-.06-.33-.05-.66-.04-1.01.04L5.47,7.97C1.61,8.93-.75,12.86.22,16.73l12.97,52.04c.46,1.84,1.65,3.46,3.28,4.45,1.66.99,3.6,1.28,5.47.82l31.4-7.83-.33-.25c-1.43-1.1-2.68-2.41-3.73-3.88l-.08-.11-28.51,7.11c-1.13.28-2.27-.41-2.55-1.53L5.17,15.49c-.28-1.13.4-2.28,1.53-2.56l29.2-7.28,1.64,6.57c.65,2.62,3.31,4.22,5.93,3.57l6.57-1.64,5.37,21.52.22-.12c1.29-.68,2.65-1.2,4.04-1.55.14-.04.23-.06.35-.08l.21-.04-5.85-23.47c-.09-.31-.23-.6-.42-.88Z"/>
          <path class="cls-1" d="m71.45,39.28c-3.15-1.9-6.91-2.5-10.5-1.71-.12.02-.24.05-.36.08-1.44.36-2.81.94-4.05,1.71-1.94,1.2-3.58,2.84-4.78,4.83-1.96,3.26-2.54,7.17-1.62,10.86.57,2.27,1.68,4.36,3.21,6.07.95,1.07,2.07,2.01,3.32,2.76.54.32,1.1.61,1.68.86,2.88,1.26,6.11,1.53,9.18.77,3.69-.92,6.88-3.27,8.83-6.53,1.96-3.27,2.54-7.17,1.62-10.86-.92-3.69-3.27-6.87-6.53-8.83Zm-.55,16.41c-.21.36-.57.62-.97.72h-.02s0,0-.02,0c-.4.1-.83.04-1.2-.18l-3.64-2.2-.45-.27-2.46,4.11c-.22.36-.57.62-.98.72h-.02s0,0-.02,0c-.17.04-.35.05-.52.03-.23-.02-.46-.09-.67-.21-.37-.22-.63-.57-.73-.98s-.04-.85.18-1.22l.95-1.56,1.53-2.54-2.54-1.52-1.57-.94c-.76-.45-1.01-1.44-.55-2.2.23-.38.59-.63.98-.73.05-.01.11-.03.17-.02.35-.06.72.01,1.05.21l4.1,2.48.27-.45,2.18-3.66c.23-.38.6-.63.99-.73s.83-.04,1.21.18c.38.23.63.59.73.99s.04.83-.18,1.21l-2.47,4.11,4.11,2.46c.37.22.63.57.74.99s.04.84-.19,1.21Z"/>
          <path class="cls-1" d="m38.91,28.87l-21.6,5.39c-.92.23-1.48,1.16-1.25,2.08s1.16,1.48,2.08,1.25l21.6-5.39c.44-.11.82-.39,1.05-.78.23-.39.3-.86.19-1.3h0c-.11-.44-.39-.82-.78-1.06-.39-.23-.85-.3-1.29-.19Z"/>
          <path class="cls-1" d="m19.79,44.22l11.63-2.9c.92-.23,1.48-1.16,1.25-2.08s-1.16-1.48-2.08-1.25l-11.63,2.9c-.92.23-1.48,1.16-1.25,2.08s1.16,1.48,2.08,1.25Z"/>
          <path class="cls-1" d="m42.22,42.16l-21.6,5.39c-.92.23-1.48,1.16-1.25,2.08s1.16,1.48,2.08,1.25l21.6-5.39c.44-.11.82-.39,1.05-.78s.3-.86.19-1.3h0c-.11-.44-.39-.82-.78-1.05-.39-.23-.86-.3-1.3-.19Z"/>
          <path class="cls-1" d="m33.91,51.29l-11.63,2.9c-.92.23-1.48,1.16-1.25,2.08s1.16,1.48,2.08,1.25l11.63-2.9c.44-.11.82-.39,1.05-.78.23-.39.3-.86.19-1.3h0c-.11-.44-.39-.82-.78-1.05s-.86-.3-1.3-.19Z"/>
        </g>
        <path class="cls-1" d="m69.59,69.97c-.14.21-.17.63-.31.82-1.17,1.63-2.06,2.82-4.49,2.01-7.18-2.38-14.38-6.44-22.15-7.4-1.47.34-2.89.76-4.33,1.23-6.29,4.69-10.85,11.21-15.87,16.88-1.7,1.91-3.12,1.24-4.91.39-.21-.1-.45-.46-.67-.57-.69.74-1.37,1.52-2.08,2.26,1.23,1.05,2.01,1.74,3.35,2.88s3.21,2.8,4.66,3.98c5.19-5.33,9.75-12.84,15.19-17.48,3.13-2.66,5.09-3.46,9.1-2.43,6.98,1.79,14.52,6.06,21.7,8.22.69-1.71,1.54-4.06,2.16-5.69.62-1.63.97-2.6,1.54-4.11-.97-.31-1.94-.68-2.9-1Z"/>
      </g>
    </g>
  </g>
</svg>