<?xml version="1.0" encoding="UTF-8"?>
<svg id="Capa_2" data-name="Capa 2" xmlns="http://www.w3.org/2000/svg" viewBox="0 0 133.96 90.74">
  <defs>
    <style>
      .cls-1 {
        fill: #181818;
        stroke-width: 0px;
      }
    </style>
  </defs>
  <g id="Capa_8" data-name="Capa 8">
    <g id="Súmate_al_equipo" data-name="Súmate al equipo">
      <g>
        <g>
          <path class="cls-1" d="m53.32,87.66h-.88c-1.87,0-3.39-1.52-3.39-3.39v-13.76c0-6.9-5.59-12.49-12.49-12.49h-1.49c-6.9,0-12.49,5.59-12.49,12.49v20.22h10.41v-3.08h-.88c-1.87,0-3.39-1.52-3.39-3.39v-13.49c0-3.92,3.18-7.09,7.09-7.09h0c3.92,0,7.09,3.18,7.09,7.09v19.96h10.41v-3.08Z"/>
          <g>
            <path class="cls-1" d="m71.59,48.84l.71-9.53.13-1.8.05-.68-.12.66-1,5.26-1.42,7.48-1,5.26-.38,1.99-1.05,5.53-7.47-1.42-5.26-1-35.67-6.77-5.26-.99-7.58-1.44,1.43-7.51,1-5.27,1.42-7.47,1-5.26,1.43-7.54,7.58,1.44,5.26.99,35.67,6.77,5.27,1,.92.18,5.76,1.09.06-.83c.12-1.64.78-3.12,1.79-4.27l-6.19-1.18L8.28,12.07,0,55.65l27.21,5.16,20.4,3.88,24.15,4.59,1.52-8.01,1.16-6.07c-1.9-1.45-3.04-3.8-2.85-6.35Z"/>
            <path class="cls-1" d="m59.98,61.83l-5.26-1c1.36-7.18,8.31-11.9,15.49-10.54l-1,5.26c-4.27-.81-8.41,2.01-9.22,6.28Z"/>
            <path class="cls-1" d="m72.43,37.51l-.13,1.8-.67,3.51c-.09-.02-.18-.04-.28-.06-1.86-.39-3.54-1.16-4.99-2.2-3.99-2.88-6.21-7.88-5.32-13.02.02-.07.02-.14.04-.21l5.26,1c-.02.07-.02.14-.03.21-.27,1.59-.03,3.14.6,4.52.99,2.18,2.95,3.88,5.43,4.44.03,0,.05.02.08.02Z"/>
            <path class="cls-1" d="m9.94,31.1l1-5.26c4.27.81,8.41-2.01,9.22-6.28l5.26,1c-1.36,7.18-8.31,11.9-15.49,10.54Z"/>
            <path class="cls-1" d="m19.06,54.05l-5.26-1c.81-4.27-2.01-8.41-6.28-9.22l1-5.26c7.18,1.36,11.9,8.31,10.54,15.49Z"/>
            <path class="cls-1" d="m45.37,40.64c.91.59,1.59,1.35,2.04,2.27.45.93.55,2.07.29,3.42-.33,1.75-1.24,3.12-2.71,4.12-1.48,1-3.24,1.45-5.29,1.36l-.61,3.24-3.82-.73.63-3.3c-1.97-.74-3.45-1.86-4.45-3.38-1-1.52-1.34-3.19-1.01-5l4.52.92c-.12,1.08.15,2.02.82,2.82.67.8,1.66,1.32,2.97,1.57,1.09.21,2.02.14,2.8-.19.78-.33,1.24-.91,1.4-1.73.11-.58,0-1.07-.31-1.48-.32-.41-.8-.78-1.45-1.11-.65-.33-1.67-.77-3.05-1.33-1.37-.54-2.49-1.11-3.38-1.71-.89-.6-1.55-1.38-2-2.33s-.54-2.11-.28-3.49c.31-1.64,1.16-2.94,2.54-3.89s3.05-1.39,4.99-1.32l.62-3.27,3.82.73-.63,3.33c1.78.7,3.14,1.76,4.06,3.17.92,1.41,1.25,2.95.97,4.62l-4.53-.86c.07-.94-.18-1.76-.75-2.46-.57-.69-1.41-1.15-2.52-1.36-1.03-.2-1.89-.14-2.59.18-.7.31-1.12.87-1.28,1.67-.11.58,0,1.06.3,1.45.31.39.78.75,1.43,1.07.64.32,1.64.75,3.01,1.29,1.39.54,2.54,1.1,3.45,1.69Z"/>
          </g>
        </g>
        <g>
          <path class="cls-1" d="m86.78,64.24c-3.75-.55-7.26,2.02-7.86,5.77l-3.1,19.3-5.94-.96-4.13-.66.48-2.97.85.14c1.81.29,3.51-.94,3.8-2.75l2.14-13.3c1.07-6.67,7.35-11.21,14.02-10.14l-.26,5.58Z"/>
          <path class="cls-1" d="m86.69,64.24l.73-5.55c6.76,0,12.24,5.48,12.24,12.24v19.81h-10.2v-3.01h.86c1.83,0,3.32-1.49,3.32-3.32v-13.22c0-3.84-3.11-6.95-6.95-6.95h0Z"/>
          <g>
            <path class="cls-1" d="m101.18,17.9l-19.86-1.47c-5.42-.4-10.32,2.55-12.66,7.11-.78,1.52-1.27,3.21-1.41,5.02l-.02.17-.32,4.34-.55,7.5-.58,7.86c-.05.6-.05,1.19,0,1.78.11,1.87.62,3.64,1.45,5.23.37.73.82,1.42,1.33,2.07,1.26,1.6,2.87,2.9,4.73,3.78.94.45,1.95.79,3.01.99.53.11,1.07.18,1.62.22l8.93.66,10.61.79.32.02c1.33.09,2.62,0,3.86-.29,5.49-1.24,9.77-5.95,10.21-11.85l1.46-19.86c.54-7.22-4.9-13.53-12.12-14.06Zm6.32,13.63l-1.46,19.86c-.3,4.02-3.81,7.05-7.84,6.75l-19.86-1.46c-1.47-.11-2.81-.65-3.9-1.49-1.9-1.45-3.04-3.8-2.85-6.35l.71-9.53.13-1.8.05-.68.52-7.02.06-.83c.12-1.64.78-3.12,1.79-4.27s2.37-1.98,3.89-2.33c.69-.15,1.41-.21,2.15-.15l19.86,1.47c4.02.29,7.05,3.81,6.75,7.83Z"/>
            <path class="cls-1" d="m100.97,42.43c-.22,3.07-1.64,5.89-3.98,7.9-1.46,1.26-3.17,2.11-4.99,2.53-1.1.25-2.25.33-3.41.25-6.36-.47-11.15-6.03-10.68-12.38l5.8.43c-.23,3.16,2.15,5.92,5.31,6.15,1.53.12,3.01-.38,4.17-1.38,1.16-1,1.86-2.4,1.98-3.92l5.8.43Z"/>
          </g>
        </g>
        <g>
          <polygon class="cls-1" points="126.7 0 130.97 33.52 124.27 34.6 117.8 1.44 126.7 0"/>
          <path class="cls-1" d="m124.13,42c0-2.71,2.2-4.91,4.91-4.91s4.91,2.2,4.91,4.91-2.2,4.91-4.91,4.91-4.91-2.2-4.91-4.91"/>
        </g>
      </g>
    </g>
  </g>
</svg>