<?xml version="1.0" encoding="UTF-8"?>
<svg id="Capa_2" data-name="Capa 2" xmlns="http://www.w3.org/2000/svg" viewBox="0 0 440.9 199.36">
  <defs>
    <style>
      .cls-1 {
        stroke: #e7e4de;
        stroke-miterlimit: 10;
      }

      .cls-2 {
        fill: #e7e4de;
      }

      .cls-2, .cls-3 {
        stroke-width: 0px;
      }
    </style>
  </defs>
  <g id="Capa_8" data-name="Capa 8">
    <g id="Súmate_al_equipo" data-name="Súmate al equipo">
      <g>
        <path class="cls-1" d="m406.01,72.05c-3.34-20.54,20.48-30.34,18.03-45.4-1.28-7.88-7.9-11.28-17.05-9.79-8.86,1.44-14.72,7.16-16.18,15.92l-15.21-5.61c3.03-14.22,14.48-23.73,29.25-26.14,8.3-1.35,16.01-.15,22.84,3.65,6.83,3.8,11,9.91,12.38,18.35,3.44,21.11-20.3,31.47-17.87,46.38l-16.18,2.63Zm22.31,19.04c.94,5.77-3.07,11.33-8.83,12.27-5.77.94-11.33-3.07-12.27-8.83-.94-5.77,2.78-11.29,8.83-12.27,5.77-.94,11.33,3.07,12.27,8.84Z"/>
        <g>
          <path class="cls-3" d="m107.73,193.03h-1.81c-3.85,0-6.98-3.12-6.98-6.98v-28.33c0-14.21-11.52-25.72-25.72-25.72h-3.07c-14.21,0-25.72,11.52-25.72,25.72v41.64h21.44v-6.33h-1.81c-3.85,0-6.98-3.12-6.98-6.98v-27.79c0-8.07,6.54-14.61,14.61-14.61h0c8.07,0,14.61,6.54,14.61,14.61v41.1h21.44v-6.33Z"/>
          <g>
            <path class="cls-3" d="m48.55,58.73h45.88c13.48,0,25.27,7.38,31.53,18.31,2.78,4.84,4.47,10.37,4.75,16.26l9.04-15.66c-1.72-4.48-4.09-8.64-6.99-12.36-8.89-11.42-22.77-18.78-38.33-18.78h-45.88C21.78,46.5,0,68.27,0,95.04s21.78,48.55,48.55,48.55h46.15c6.57-.03,12.84-1.38,18.55-3.79,4.92-2.08,9.42-4.94,13.36-8.44h-.98c-3.53,0-6.68-1.84-8.44-4.89-.44-.76-.77-1.56-1-2.37-3.28,2.46-6.99,4.38-10.99,5.63-3.41,1.06-7.02,1.63-10.77,1.63h-45.88c-20.03,0-36.32-16.3-36.32-36.32s16.29-36.31,36.32-36.31Zm86.13,37.08c0,5.84,2.08,11.22,5.53,15.41,1.71-4.83,2.68-10.02,2.76-15.41h-8.29Z"/>
            <path class="cls-2" d="m125.96,77.04l-19.37,33.56c-3.43,5.95-3.9,12.9-1.39,19.13,4-1.25,7.71-3.17,10.99-5.63-.66-2.46-.33-5.09,1-7.38l13.52-23.41h0c-.28-5.9-1.97-11.43-4.75-16.27Z"/>
          </g>
          <path class="cls-3" d="m95.81,96.43c0,13.4-10.91,24.31-24.32,24.31s-24.32-10.91-24.32-24.31h12.25c0,6.66,5.4,12.08,12.07,12.08s12.07-5.42,12.07-12.08h12.25Z"/>
        </g>
        <g>
          <path class="cls-3" d="m194.19,193.03h-1.81c-3.85,0-6.98-3.12-6.98-6.98v-28.33c0-14.21-11.52-25.72-25.72-25.72h-3.07c-14.21,0-25.72,11.52-25.72,25.72v41.64h21.44v-6.33h-1.81c-3.85,0-6.98-3.12-6.98-6.98v-27.79c0-8.07,6.54-14.61,14.61-14.61h0c8.07,0,14.61,6.54,14.61,14.61v41.1h21.44v-6.33Z"/>
          <path class="cls-3" d="m183.3,95.81c0,13.4-10.91,24.31-24.31,24.31-7.56,0-14.32-3.47-18.78-8.9-3.45-4.19-5.53-9.57-5.53-15.41h12.23c0,6.65,5.42,12.07,12.08,12.07s12.08-5.42,12.08-12.07h12.23Z"/>
          <g>
            <path class="cls-3" d="m211.76,124.68c-.14-.21-.28-.42-.41-.63-.15-.25-.3-.5-.44-.76-.05-.08-.09-.17-.14-.26,0-.02-.03-.05-.03-.08-.1-.2-.2-.4-.3-.61-.03-.07-.07-.14-.09-.21-.1-.22-.19-.45-.28-.68-.1-.25-.19-.5-.27-.75-.09-.27-.17-.55-.24-.83-.04-.14-.08-.29-.11-.44-.03-.14-.07-.29-.1-.45-.04-.22-.08-.44-.11-.66-.12-.76-.18-1.54-.18-2.34v-9.42l-12.24-21.21-18.77-32.53c-2-3.45-4.78-6.2-8.04-8.08-3.28-1.89-7.05-2.92-11.02-2.92-7.94,0-15.07,4.12-19.04,11l-7.19,12.46-6.8,11.76-19.37,33.56c-3.43,5.95-3.9,12.9-1.39,19.13.39.97.85,1.93,1.39,2.86,1.7,2.96,3.98,5.39,6.66,7.21,3.57,2.45,7.84,3.79,12.38,3.79h66.72c5.74,0,11.03-2.14,15.03-5.92,1.55-1.45,2.9-3.15,4.01-5.08,1.04-1.8,1.81-3.69,2.3-5.62-.71-.69-1.36-1.46-1.93-2.29Zm-12.18,3.47c-.11.13-.23.25-.35.37-.3.3-.61.58-.95.84-.15.12-.31.23-.47.34-.32.22-.66.42-1,.59-.13.07-.27.13-.4.19-.71.33-1.45.57-2.23.71-.12.02-.24.04-.37.06-.13.02-.27.04-.41.05-.14.02-.29.03-.43.04-.21.01-.41.02-.62.02h-66.72c-3.53,0-6.68-1.84-8.44-4.89-.44-.76-.77-1.56-1-2.37-.66-2.46-.33-5.09,1-7.38l13.52-23.41h0s9.04-15.67,9.04-15.67l10.8-18.71c1.76-3.04,4.92-4.87,8.44-4.87s6.68,1.83,8.45,4.87l29.38,50.9,3.98,6.89c1.76,3.05,1.76,6.71,0,9.75-.16.28-.33.54-.52.8-.01.03-.03.05-.05.08-.18.25-.37.48-.56.71,0,.01-.03.02-.04.04-.01.02-.03.03-.05.05Z"/>
            <path class="cls-2" d="m200.8,116.72l-3.98-6.89v6.15c0,4.35,1.01,8.46,2.81,12.12,0-.02.03-.03.04-.04.19-.23.38-.46.56-.71.02-.03.04-.05.05-.08.19-.26.36-.52.52-.8,1.76-3.04,1.76-6.7,0-9.75Z"/>
          </g>
        </g>
        <g>
          <path class="cls-3" d="m281.44,193.03h-1.81c-3.85,0-6.98-3.12-6.98-6.98v-28.33c0-14.21-11.52-25.72-25.72-25.72h-3.07c-14.21,0-25.72,11.52-25.72,25.72v41.64h21.44v-6.33h-1.81c-3.85,0-6.98-3.12-6.98-6.98v-27.79c0-8.07,6.54-14.61,14.61-14.61h0c8.07,0,14.61,6.54,14.61,14.61v41.1h21.44v-6.33Z"/>
          <g>
            <path class="cls-3" d="m291.12,62.03c-4.48-9.19-13.92-15.53-24.82-15.53h-41.88c-15.22,0-27.6,12.38-27.6,27.6v41.88c0,4.35,1.01,8.46,2.81,12.12,1.83,3.75,4.5,7.02,7.75,9.57,4.2,3.32,9.39,5.43,15.04,5.84h.01c.66.05,1.32.08,1.99.08h41.88c.69,0,1.39-.03,2.06-.09,11.69-.86,21.38-9.03,24.5-19.95.68-2.4,1.05-4.94,1.05-7.57v-41.88c0-4.32-1-8.42-2.79-12.07Zm-9.44,53.95c0,8.48-6.9,15.38-15.38,15.38h-41.88c-.26,0-.53-.01-.79-.02-.15-.01-.29-.02-.44-.03-.19-.01-.37-.03-.55-.06-.19-.01-.37-.04-.55-.07-.51-.08-1.01-.18-1.5-.3-.74-.2-1.45-.44-2.14-.73-.29-.12-.57-.25-.85-.4-.06-.02-.12-.05-.17-.08-.3-.15-.58-.31-.86-.48-.21-.12-.42-.25-.62-.39-.25-.16-.48-.33-.71-.5-.26-.19-.51-.39-.75-.6-.04-.03-.08-.06-.12-.1-.23-.2-.46-.41-.68-.63-.71-.69-1.36-1.46-1.93-2.29-.14-.21-.28-.42-.41-.63-.15-.25-.3-.5-.44-.76-.05-.09-.1-.18-.14-.26,0-.02-.03-.05-.03-.08-.1-.2-.2-.4-.3-.61-.03-.07-.07-.14-.09-.21-.1-.22-.19-.45-.28-.68-.1-.25-.19-.5-.27-.75-.09-.27-.17-.55-.24-.83-.04-.14-.08-.29-.11-.44-.03-.14-.07-.29-.1-.45-.04-.22-.08-.44-.11-.66-.12-.76-.18-1.54-.18-2.34v-41.88c0-8.47,6.89-15.37,15.36-15.37h41.88c8.48,0,15.38,6.9,15.38,15.37v41.88Z"/>
            <path class="cls-2" d="m222.09,131.18c-.51-.08-1.01-.18-1.5-.3.49.12.99.23,1.5.3Z"/>
          </g>
          <path class="cls-3" d="m269.67,97.96c0,13.4-10.89,24.31-24.31,24.31s-24.31-10.91-24.31-24.31h12.25c0,6.65,5.41,12.08,12.06,12.08s12.08-5.43,12.08-12.08h12.23Z"/>
        </g>
        <g>
          <path class="cls-3" d="m369.88,193.02h-1.82c-3.86,0-6.99-3.13-6.99-6.99v-28.38c0-14.23-11.54-25.77-25.77-25.77h-3.08c-14.23,0-25.77,11.54-25.77,25.77v41.71h21.48v-6.35h-1.82c-3.86,0-6.99-3.13-6.99-6.99v-27.83c0-8.08,6.55-14.63,14.63-14.63h0c8.08,0,14.63,6.55,14.63,14.63v41.17h21.48v-6.35Z"/>
          <path class="cls-3" d="m333.71,39.74c-28.61,0-51.88,23.27-51.88,51.87,0,21.59,13.25,40.15,32.06,47.95,6.11,2.53,12.8,3.93,19.82,3.93s13.77-1.41,19.89-3.97c18.76-7.83,31.97-26.36,31.97-47.91,0-28.6-23.27-51.87-51.87-51.87Zm0,91.49c-21.85,0-39.62-17.78-39.62-39.62s17.77-39.61,39.62-39.61,39.61,17.77,39.61,39.61-17.77,39.62-39.61,39.62Z"/>
          <path class="cls-3" d="m358.06,95.62c0,13.43-10.92,24.36-24.35,24.36s-24.36-10.93-24.36-24.36h12.26c0,6.67,5.42,12.1,12.11,12.1s12.09-5.44,12.09-12.1h12.26Z"/>
        </g>
      </g>
    </g>
  </g>
</svg>