<?xml version="1.0" encoding="UTF-8"?>
<svg id="Capa_2" data-name="Capa 2" xmlns="http://www.w3.org/2000/svg" viewBox="0 0 23.85 21.86">
  <defs>
    <style>
      .cls-1 {
        fill: #181818;
        stroke-width: 0px;
      }
    </style>
  </defs>
  <g id="Capa_8" data-name="Capa 8">
    <g id="Súmate_al_equipo" data-name="Súmate al equipo">
      <g>
        <path class="cls-1" d="m15.85,2.27c-.82-1.42-2.29-2.27-3.93-2.27s-3.11.85-3.93,2.27L.61,15.06c-.82,1.42-.82,3.11,0,4.53.82,1.42,2.29,2.27,3.93,2.27h14.77c1.64,0,3.11-.85,3.93-2.27.82-1.42.82-3.11,0-4.53L15.85,2.27Zm5.62,16.31c-.45.78-1.26,1.25-2.16,1.25H4.54c-.9,0-1.71-.47-2.16-1.25-.45-.78-.45-1.71,0-2.5L9.77,3.29c.45-.78,1.26-1.25,2.16-1.25s1.71.47,2.16,1.25l7.39,12.79c.45.78.45,1.71,0,2.5Z"/>
        <g>
          <path class="cls-1" d="m13.1,5.78l-.34,8.89h-1.63s-.36-8.89-.36-8.89h2.34Z"/>
          <path class="cls-1" d="m12.12,15.75c-.07-.01-.13-.02-.19-.02-.59,0-1.12.43-1.22,1.04-.11.67.35,1.3,1.02,1.41.67.11,1.3-.35,1.41-1.02h0c.05-.32-.03-.65-.22-.92-.19-.27-.48-.44-.8-.49Z"/>
          <path class="cls-1" d="m13.36,16.97h0c-.13.79-.87,1.33-1.66,1.2-.79-.13-1.33-.87-1.2-1.66.12-.71.73-1.22,1.43-1.22.08,0,.15,0,.23.02.38.06.72.27.94.58.23.31.32.69.26,1.08Z"/>
        </g>
      </g>
    </g>
  </g>
</svg>