<?xml version="1.0" encoding="UTF-8"?>
<svg id="Capa_2" data-name="Capa 2" xmlns="http://www.w3.org/2000/svg" viewBox="0 0 20.84 25.57">
  <defs>
    <style>
      .cls-1 {
        fill: #181818;
        stroke-width: 0px;
      }
    </style>
  </defs>
  <g id="Capa_8" data-name="Capa 8">
    <g id="Súmate_al_equipo" data-name="Súmate al equipo">
      <g>
        <path class="cls-1" d="m15.6,7.64l-.03-.04c-.18-.22-.37-.44-.56-.67l-.23-.27h.36c.54,0,.97-.43.97-.97s-.43-.97-.97-.97h-.34l.18-.27c.43-.58.73-1.1.93-1.61.24-.64.16-1.33-.24-1.91-.41-.59-1.08-.94-1.79-.94h-6.95c-.71,0-1.38.35-1.79.94-.39.57-.48,1.27-.24,1.91.19.5.5,1.03.93,1.61l.2.27h-.34c-.55,0-.98.43-.98.97s.43.97.97.97h.36l-.22.27c-.19.23-.38.46-.56.68l-.02.03C2.31,11.2.19,13.76.01,17.43c-.11,2.27.49,4.1,1.78,5.46,1.72,1.81,4.54,2.69,8.62,2.69s6.9-.88,8.62-2.69c1.29-1.36,1.89-3.19,1.79-5.46-.17-3.66-2.3-6.23-5.23-9.78ZM6.75,2.01c.05-.05.13-.08.19-.08h5.45c.47,0,.94,0,1.41,0,.11,0,.27,0,.31.13.02.06,0,.14-.04.19-.42.68-.86,1.35-1.37,1.96-.13.16-.26.3-.37.44l-.05.06h-3.73l-.05-.06c-.11-.14-.24-.29-.37-.44-.3-.35-.58-.73-.84-1.11-.13-.19-.26-.39-.38-.58-.08-.12-.31-.39-.16-.53Zm10.95,19.49l-.06.06c-1.32,1.38-3.75,2.09-7.23,2.09s-5.91-.7-7.23-2.09c-.93-.97-1.34-2.29-1.25-4.04.14-3.02,1.99-5.26,4.79-8.65l.11-.13c.53-.64,1.07-1.3,1.65-2.02l.05-.06h3.76l.05.06c.64.8,1.26,1.55,1.76,2.15,2.8,3.39,4.65,5.62,4.79,8.64.08,1.71-.31,3.01-1.2,3.98Z"/>
        <path class="cls-1" d="m12.54,15.56c-.39-.16-.87-.29-1.44-.4-.58-.11-1.01-.2-1.29-.29-.3-.09-.53-.2-.7-.35-.19-.16-.28-.39-.28-.67,0-.38.15-.68.45-.89.28-.19.65-.29,1.1-.29.49,0,.89.13,1.2.38.27.23.44.52.51.87h1.52c-.05-.56-.27-1.04-.67-1.46-.44-.46-1.03-.76-1.74-.89l-.14-.03v-1.32h-1.22v1.3l-.14.02c-.73.11-1.32.39-1.77.84-.44.45-.66.97-.66,1.6,0,.52.11.94.34,1.25.23.31.53.55.89.71.38.17.86.3,1.42.41.59.12,1.03.22,1.31.3.3.09.54.21.72.36.19.17.29.4.29.68,0,.39-.17.7-.49.92-.31.21-.7.31-1.18.31-.57,0-1.04-.15-1.39-.43-.32-.26-.51-.6-.58-1.01l-1.52-.02c.04.62.28,1.14.72,1.6.48.49,1.12.81,1.9.95l.14.02v1.31h1.22v-1.29l.14-.02c.77-.11,1.4-.41,1.88-.88.48-.47.71-1.03.71-1.7,0-.51-.11-.92-.34-1.22-.23-.3-.53-.53-.9-.68Z"/>
      </g>
    </g>
  </g>
</svg>