<?xml version="1.0" encoding="UTF-8"?>
<svg id="Capa_2" data-name="Capa 2" xmlns="http://www.w3.org/2000/svg" viewBox="0 0 21.84 21.84">
  <defs>
    <style>
      .cls-1 {
        fill: #181818;
        stroke-width: 0px;
      }
    </style>
  </defs>
  <g id="Capa_8" data-name="Capa 8">
    <g id="Súmate_al_equipo" data-name="Súmate al equipo">
      <g>
        <path class="cls-1" d="m11.67,10.7v-6.27c0-.57-.47-1.04-1.04-1.04s-1.04.47-1.04,1.04v6.85c0,.28.12.56.33.75l2.94,2.94c.39.39,1.07.39,1.46,0,.4-.4.4-1.06,0-1.47l-2.57-2.57c-.07-.07-.1-.16-.09-.24Z"/>
        <path class="cls-1" d="m21.84,10.92c0-.54-.44-.97-.97-.97s-.96.42-.97.95c0,0,0,.02,0,.03,0,4.95-4.03,8.98-8.98,8.98S1.94,15.87,1.94,10.92c0-4.63,3.49-8.47,8.12-8.94,2.68-.26,5.31.69,7.21,2.59.05.05.07.11.07.17s-.03.13-.07.17l-.94.94,3.95.35-.35-3.95-.94.94c-.1.1-.25.1-.35,0C16.39.94,13.36-.18,10.11.02,4.35.5,0,5.18,0,10.92c0,6.02,4.9,10.92,10.92,10.92,6.02,0,10.92-4.9,10.92-10.92Z"/>
      </g>
    </g>
  </g>
</svg>