<?xml version="1.0" encoding="UTF-8"?>
<svg id="Capa_2" data-name="Capa 2" xmlns="http://www.w3.org/2000/svg" viewBox="0 0 114.59 126.94">
  <defs>
    <style>
      .cls-1 {
        fill: #171717;
        stroke-width: 0px;
      }
    </style>
  </defs>
  <g id="Productos">
    <g>
      <path class="cls-1" d="m109.62,106.91l-.92,1.42c-1.96,3.02-5.99,3.88-9.01,1.92l-35.78-23.19-3.38,5.21-3.91-.84-.94-6.13-42.15,6.48c-3.56.55-6.88-1.89-7.43-5.45l-.26-1.67-5.85.9,1.25,8.11,1.8,11.68,44.51-6.84c6.4-.98,12.93.42,18.36,3.94l37.78,24.49,6.43-9.92,4.47-6.89-4.97-3.22Z"/>
      <g>
        <path class="cls-1" d="m89.47,102.08l-62.63-12.3c-7.46-1.47-13.39-6.64-15.85-13.83-2.46-7.2-.95-14.91,4.06-20.64L57.02,7.22C62.02,1.49,69.46-1.06,76.93.41c0,0,0,0,0,0,7.46,1.47,13.39,6.64,15.85,13.83l20.66,60.39c2.46,7.2.95,14.91-4.06,20.64-5,5.73-12.44,8.27-19.9,6.81Zm-14.8-90.19c-3.31-.65-6.61.48-8.83,3.02h0S23.87,63,23.87,63c-2.22,2.54-2.89,5.96-1.8,9.16,1.09,3.19,3.72,5.49,7.03,6.14l62.63,12.3c3.31.65,6.61-.48,8.83-3.02,2.22-2.54,2.89-5.96,1.8-9.16l-20.66-60.39c-1.09-3.19-3.72-5.49-7.03-6.14Z"/>
        <g>
          <polygon class="cls-1" points="78.92 26.04 69.33 63.51 60.19 61.55 66.77 23.44 78.92 26.04"/>
          <path class="cls-1" d="m68.92,75.88c-1.35,3.49-5.28,5.21-8.76,3.86-3.49-1.35-5.21-5.28-3.86-8.76,1.36-3.48,5.28-5.21,8.76-3.85s5.21,5.28,3.86,8.76Z"/>
        </g>
      </g>
    </g>
  </g>
</svg>