<?xml version="1.0" encoding="UTF-8"?>
<svg id="Capa_2" data-name="Capa 2" xmlns="http://www.w3.org/2000/svg" viewBox="0 0 440.9 199.36">
  <defs>
    <style>
      .cls-1, .cls-2 {
        fill: #171717;
        stroke-width: 0px;
      }

      .cls-2 {
        fill: white;
      }

      .cls-3 {
        stroke: #171717;
        stroke-miterlimit: 10;
      }
    </style>
  </defs>
  <g id="Nosotros">
    <g>
      <path class="cls-3" d="m406.01,72.05c-3.34-20.54,20.48-30.34,18.03-45.4-1.28-7.88-7.9-11.28-17.05-9.79-8.86,1.44-14.72,7.16-16.18,15.92l-15.21-5.61c3.03-14.22,14.48-23.73,29.25-26.14,8.3-1.35,16.01-.15,22.84,3.65,6.83,3.8,11,9.91,12.38,18.35,3.44,21.11-20.3,31.47-17.87,46.38l-16.18,2.63Zm22.31,19.04c.94,5.77-3.07,11.33-8.83,12.27-5.77.94-11.33-3.07-12.27-8.83-.94-5.77,2.78-11.29,8.83-12.27,5.77-.94,11.33,3.07,12.27,8.84Z"/>
      <g>
        <path class="cls-1" d="m107.73,193.03h-1.81c-3.85,0-6.98-3.12-6.98-6.98v-28.33c0-14.21-11.52-25.72-25.72-25.72h-3.07c-14.21,0-25.72,11.52-25.72,25.72v41.64h21.44v-6.33h-1.81c-3.85,0-6.98-3.12-6.98-6.98v-27.79c0-8.07,6.54-14.61,14.61-14.61h0c8.07,0,14.61,6.54,14.61,14.61v41.1h21.44v-6.33Z"/>
        <g>
          <path class="cls-1" d="m94.43,46.49h-45.89C21.78,46.49,0,68.27,0,95.04s21.78,48.55,48.55,48.55h46.15c26.64-.14,48.28-21.87,48.28-48.55s-21.78-48.55-48.55-48.55Zm0,84.86h-45.89c-20.02,0-36.31-16.29-36.31-36.31s16.29-36.31,36.31-36.31h45.89c20.02,0,36.31,16.29,36.31,36.31s-16.29,36.31-36.31,36.31Z"/>
          <path class="cls-2" d="m94.43,58.72h-45.89c-20.02,0-36.31,16.29-36.31,36.31s16.29,36.31,36.31,36.31h45.89c20.02,0,36.31-16.29,36.31-36.31s-16.29-36.31-36.31-36.31Zm-22.94,62.01c-13.42,0-24.32-10.91-24.32-24.31h12.24c0,6.66,5.41,12.08,12.08,12.08s12.07-5.42,12.07-12.08h12.24c0,13.4-10.91,24.31-24.31,24.31Z"/>
        </g>
        <path class="cls-1" d="m95.81,96.42c0,13.4-10.91,24.31-24.31,24.31s-24.32-10.91-24.32-24.31h12.24c0,6.66,5.41,12.08,12.08,12.08s12.07-5.42,12.07-12.08h12.24Z"/>
      </g>
      <g>
        <path class="cls-1" d="m194.19,193.03h-1.81c-3.85,0-6.98-3.12-6.98-6.98v-28.33c0-14.21-11.52-25.72-25.72-25.72h-3.07c-14.21,0-25.72,11.52-25.72,25.72v41.64h21.44v-6.33h-1.81c-3.85,0-6.98-3.12-6.98-6.98v-27.79c0-8.07,6.54-14.61,14.61-14.61h0c8.07,0,14.61,6.54,14.61,14.61v41.1h21.44v-6.33Z"/>
        <path class="cls-1" d="m183.3,95.8c0,13.4-10.91,24.31-24.31,24.31s-24.31-10.91-24.31-24.31h12.23c0,6.66,5.42,12.08,12.08,12.08s12.08-5.42,12.08-12.08h12.23Z"/>
        <g>
          <path class="cls-1" d="m211.4,110.59l-33.35-57.77c-2-3.45-4.77-6.2-8.03-8.08-3.28-1.88-7.05-2.91-11.02-2.91-7.94,0-15.07,4.11-19.04,11l-33.36,57.77c-3.97,6.89-3.97,15.11,0,21.99,3.97,6.89,11.1,11,19.04,11h66.72c7.96,0,15.07-4.11,19.04-11,3.98-6.89,3.98-15.11,0-21.99Zm-10.59,15.87c-1.77,3.05-4.93,4.89-8.45,4.89h-66.72c-3.53,0-6.68-1.83-8.44-4.89-1.77-3.04-1.77-6.7,0-9.75l33.36-57.79c1.76-3.04,4.91-4.87,8.44-4.87s6.68,1.83,8.45,4.87l33.36,57.79c1.76,3.05,1.76,6.71,0,9.75Z"/>
          <path class="cls-2" d="m200.8,116.71l-33.36-57.79c-1.77-3.04-4.93-4.87-8.45-4.87s-6.68,1.83-8.44,4.87l-33.36,57.79c-1.77,3.05-1.77,6.71,0,9.75,1.76,3.05,4.91,4.89,8.44,4.89h66.72c3.53,0,6.68-1.83,8.45-4.89,1.76-3.04,1.76-6.7,0-9.75Zm-41.81,3.4c-13.4,0-24.31-10.91-24.31-24.31h12.23c0,6.66,5.42,12.08,12.08,12.08s12.08-5.42,12.08-12.08h12.23c0,13.4-10.91,24.31-24.31,24.31Z"/>
        </g>
      </g>
      <g>
        <path class="cls-1" d="m281.45,193.03h-1.81c-3.85,0-6.98-3.12-6.98-6.98v-28.33c0-14.21-11.52-25.72-25.72-25.72h-3.07c-14.21,0-25.72,11.52-25.72,25.72v41.64h21.44v-6.33h-1.81c-3.85,0-6.98-3.12-6.98-6.98v-27.79c0-8.07,6.54-14.61,14.61-14.61h0c8.07,0,14.61,6.54,14.61,14.61v41.1h21.44v-6.33Z"/>
        <g>
          <path class="cls-1" d="m266.3,46.49h-41.88c-15.22,0-27.61,12.38-27.61,27.61v41.88c0,14.55,11.32,26.51,25.61,27.53.66.05,1.32.08,2,.08h41.88c.69,0,1.39-.03,2.06-.09,14.27-1.04,25.55-12.98,25.55-27.52v-41.88c0-15.22-12.38-27.61-27.61-27.61Zm15.38,69.48c0,8.48-6.9,15.38-15.38,15.38h-41.88c-8.48,0-15.36-6.9-15.36-15.38v-41.88c0-8.48,6.89-15.38,15.36-15.38h41.88c8.48,0,15.38,6.9,15.38,15.38v41.88Z"/>
          <path class="cls-2" d="m266.3,58.72h-41.88c-8.48,0-15.36,6.9-15.36,15.38v41.88c0,8.48,6.89,15.38,15.36,15.38h41.88c8.48,0,15.38-6.9,15.38-15.38v-41.88c0-8.48-6.9-15.38-15.38-15.38Zm-20.94,63.54c-13.4,0-24.31-10.91-24.31-24.31h12.24c0,6.66,5.41,12.08,12.07,12.08s12.08-5.42,12.08-12.08h12.23c0,13.4-10.9,24.31-24.31,24.31Z"/>
        </g>
        <path class="cls-1" d="m269.67,97.95c0,13.4-10.9,24.31-24.31,24.31s-24.31-10.91-24.31-24.31h12.24c0,6.66,5.41,12.08,12.07,12.08s12.08-5.42,12.08-12.08h12.23Z"/>
      </g>
      <g>
        <path class="cls-1" d="m369.88,193.02h-1.82c-3.86,0-6.99-3.13-6.99-6.99v-28.38c0-14.23-11.54-25.77-25.77-25.77h-3.08c-14.23,0-25.77,11.54-25.77,25.77v41.71h21.48v-6.35h-1.82c-3.86,0-6.99-3.13-6.99-6.99v-27.83c0-8.08,6.55-14.63,14.63-14.63h0c8.08,0,14.63,6.55,14.63,14.63v41.17h21.48v-6.35Z"/>
        <g>
          <path class="cls-1" d="m333.71,39.74c-28.61,0-51.88,23.27-51.88,51.87,0,21.59,13.25,40.15,32.06,47.95,6.11,2.53,12.8,3.93,19.82,3.93s13.77-1.41,19.89-3.97c18.76-7.83,31.97-26.36,31.97-47.91,0-28.6-23.27-51.87-51.87-51.87Zm0,91.49c-21.85,0-39.62-17.78-39.62-39.62s17.77-39.61,39.62-39.61,39.61,17.77,39.61,39.61-17.77,39.62-39.61,39.62Z"/>
          <path class="cls-2" d="m333.71,52c-21.85,0-39.62,17.77-39.62,39.61s17.77,39.62,39.62,39.62,39.61-17.78,39.61-39.62-17.77-39.61-39.61-39.61Zm0,67.98c-13.43,0-24.36-10.93-24.36-24.36h12.26c0,6.67,5.42,12.1,12.11,12.1s12.09-5.44,12.09-12.1h12.26c0,13.43-10.92,24.36-24.35,24.36Z"/>
        </g>
        <path class="cls-1" d="m358.06,95.62c0,13.43-10.92,24.36-24.35,24.36s-24.36-10.93-24.36-24.36h12.26c0,6.67,5.42,12.1,12.11,12.1s12.09-5.44,12.09-12.1h12.26Z"/>
      </g>
    </g>
  </g>
</svg>