<?xml version="1.0" encoding="UTF-8"?>
<svg id="Capa_2" data-name="Capa 2" xmlns="http://www.w3.org/2000/svg" viewBox="0 0 108.61 133.74">
  <defs>
    <style>
      .cls-1 {
        fill: #171717;
      }

      .cls-1, .cls-2, .cls-3 {
        fill: #171717;
        stroke-width: 0px;
      }

      .cls-3 {
        fill: none;
      }
    </style>
  </defs>
  <g id="Contáctanos">
    <g>
      <g>
        <path class="cls-2" d="m81.46,128.98h-1.36c-2.9,0-5.24-2.35-5.24-5.24v-21.3c0-10.68-8.66-19.34-19.34-19.34h-2.31c-10.68,0-19.34,8.66-19.34,19.34v31.31h16.12v-4.76h-1.36c-2.9,0-5.24-2.35-5.24-5.24v-20.89c0-6.07,4.92-10.98,10.98-10.98h0c6.07,0,10.98,4.92,10.98,10.98v30.9h16.12v-4.76Z"/>
        <path class="cls-2" d="m91.09,40.1c-5.3-15.22-19.78-26.16-36.79-26.16s-31.48,10.95-36.78,26.16c-1.4,4-2.15,8.3-2.15,12.77,0,5.17,1.01,10.12,2.86,14.64.94,2.31,2.09,4.5,3.42,6.56h.46c1.52-2.68,4.37-4.4,7.58-4.41h.08c-3.28-4.78-5.2-10.56-5.2-16.79,0-16.4,13.35-29.73,29.73-29.73s29.74,13.34,29.74,29.73-13.35,29.73-29.74,29.73c-3.86,0-7.54-.73-10.93-2.09-.35,1.48-1.12,2.85-2.2,3.96-1.47,1.51-3.38,2.42-5.45,2.61,1.2.65,2.44,1.25,3.71,1.78,4.58,1.9,9.6,2.95,14.87,2.95s10.35-1.07,14.95-2.98c9.57-4,17.23-11.71,21.14-21.32,1.84-4.52,2.86-9.47,2.86-14.64,0-4.47-.76-8.76-2.15-12.77Zm-50.6,39.09c-3.12-1.63-5.92-3.82-8.26-6.42h-2.55c-2.31.01-4.33,1.41-5.19,3.48-.12.3-.22.61-.29.93h-.3c2.05,2.57,4.42,4.86,7.05,6.84h4.05c2.8-.04,5.11-2.12,5.49-4.82Z"/>
        <path class="cls-2" d="m54.31,74.16c-10.08,0-18.28-8.2-18.28-18.28h9.2c0,5.01,4.07,9.08,9.08,9.08s9.08-4.07,9.08-9.08h9.2c0,10.08-8.2,18.28-18.28,18.28Z"/>
      </g>
      <g>
        <path class="cls-3" d="m16.4,79.55s.07.01.11.02c-.06,0-.12,0-.18-.01-.16-.01-.31-.03-.47-.06-.11-.02-.22-.04-.32-.06-.06-.01-.12-.02-.18-.04-.02-.01-.03-.01-.05-.01-.11-.02-.23-.05-.34-.08-.14-.04-.29-.08-.42-.13-.05-.02-.1-.03-.14-.05.19.06.38.12.57.18.03.01.05.01.08.02.24.06.48.11.71.16.18.03.36.06.55.08h.07Z"/>
        <path class="cls-3" d="m24.21,79.6h0s-6.95.01-6.95.01c-.23,0-.44-.01-.66-.03-.03,0-.05,0-.08-.01.09,0,.19.01.28.01.16.01.31.02.47.02h6.95Z"/>
        <path class="cls-3" d="m24.41,80.27c-.03-.06-.05-.12-.07-.19h.01c.02.06.04.11.06.19Z"/>
        <path class="cls-3" d="m34.98,72.77s-.07-.01-.11-.01h.06s.04.01.05.01Z"/>
        <path class="cls-2" d="m108.61,47.79v13.75c-.01,5.03-4.09,9.11-9.12,9.12h-5.51c-1.84-.01-3.35-1.39-3.58-3.16-.02-.14-.03-.3-.03-.44v-24.8c.01-.81.28-1.55.73-2.16.57-.77,1.45-1.29,2.46-1.42h.25c-4.14-17.98-20.27-31.44-39.5-31.44S18.95,20.7,14.82,38.68h.25c1.01.12,1.89.65,2.46,1.42.46.61.73,1.36.73,2.16v24.79c0,.16-.01.3-.03.46-.23,1.78-1.75,3.16-3.58,3.16h-3.51s-.1-.01-.1-.01v.3c0,.36.04.71.1,1.06.02.17.06.33.1.5.04.16.08.3.13.44.08.23.17.44.28.66.03.07.06.14.1.22.02.04.04.07.06.1.12.25.28.49.44.7.02.02.03.04.05.06,0,.01.01.02.01.02.01.01.02.02.03.03.02.03.04.06.06.08.04.05.07.1.11.14.11.13.23.26.35.38.07.06.14.13.22.2.07.07.14.13.22.2.08.06.16.12.24.19,0,0,.01,0,.01.01.07.05.16.1.23.16.14.09.28.19.42.26.03.02.06.04.08.05.04.02.07.04.1.05.12.07.25.12.37.18.21.09.41.18.63.24.2.07.39.12.6.16.17.04.34.07.52.08.03.01.06.02.09.02.21.02.41.03.63.03h6.95c.07-.32.17-.63.29-.93.86-2.07,2.89-3.47,5.19-3.48h5.17s.07.01.11.01c.36,0,.71.03,1.06.1.02,0,.04.01.06.01.34.07.67.18.98.31.02,0,.04.01.05.02.32.13.62.3.91.49.01.01.02.02.03.03.29.19.56.4.8.64l.03.03c.24.24.47.51.66.79,0,.01.01.02.01.03.2.29.37.6.52.92v.02c.14.32.26.66.33,1.02h0c.08.37.12.74.13,1.13,0,.3-.02.59-.06.87-.38,2.7-2.69,4.78-5.49,4.82h-5.31c-.21,0-.41-.01-.61-.04-.14-.01-.28-.03-.41-.06-.12-.02-.25-.05-.36-.08-.05-.01-.1-.02-.14-.04-.1-.02-.21-.05-.31-.09-.36-.12-.7-.29-1.03-.49-.16-.09-.3-.19-.44-.29-.16-.11-.31-.24-.44-.36-.14-.13-.29-.28-.42-.42-.1-.11-.21-.24-.3-.36-.28-.37-.52-.79-.7-1.23-.03-.08-.06-.17-.09-.25h0c-.02-.08-.04-.13-.06-.2-.04-.11-.07-.24-.1-.35-.01-.04-.02-.08-.03-.12h0s-6.95-.01-6.95-.01c-.16,0-.31-.01-.47-.02-.13,0-.27-.01-.39-.03h-.07c-.19-.02-.37-.05-.55-.08-.24-.04-.48-.09-.71-.16-.03-.01-.05-.01-.08-.02-.19-.05-.38-.11-.57-.18-.04-.01-.08-.03-.12-.04-.01-.01-.02-.01-.03-.01-.19-.07-.36-.14-.54-.22-.24-.11-.48-.23-.7-.36-.13-.07-.27-.16-.4-.25-.07-.04-.13-.08-.21-.12-.13-.09-.27-.19-.39-.29-.04-.03-.08-.07-.12-.1-.02-.01-.03-.03-.05-.04-.12-.1-.26-.2-.37-.31-.17-.16-.33-.31-.49-.48-.08-.09-.17-.18-.24-.27-.13-.16-.27-.31-.38-.47-.11-.16-.23-.31-.33-.48-.12-.19-.25-.38-.36-.59-.03-.05-.05-.11-.08-.17-.08-.16-.16-.32-.23-.49-.08-.19-.17-.37-.24-.58-.01-.02-.01-.04-.02-.06-.01-.01-.01-.03-.02-.04-.07-.22-.13-.43-.2-.66-.18-.69-.28-1.41-.28-2.14v-.32c-1.1-.07-2.14-.32-3.1-.74-3.23-1.41-5.48-4.61-5.49-8.36v-13.74c.01-4.44,3.19-8.13,7.39-8.96C11.59,16.75,31.03,0,54.3,0s42.73,16.75,46.93,38.83c4.2.83,7.38,4.52,7.38,8.96Z"/>
        <path class="cls-1" d="m24.41,80.27c-.03-.06-.05-.12-.07-.19h.01c.02.06.04.11.06.19Z"/>
        <path class="cls-2" d="m11.83,73.93s-.04-.06-.06-.1c-.04-.07-.07-.14-.1-.22.05.1.1.22.17.32Z"/>
        <path class="cls-2" d="m14.98,79.29c-.14-.04-.29-.08-.42-.12-.05-.02-.1-.03-.14-.05.19.06.38.12.57.18Z"/>
        <path class="cls-2" d="m15.78,79.47c-.13-.02-.27-.04-.4-.07-.02-.01-.03-.01-.05-.01-.08-.02-.18-.05-.26-.07.24.06.48.11.71.16Z"/>
      </g>
    </g>
  </g>
</svg>