<?xml version="1.0" encoding="UTF-8"?>
<svg id="Capa_2" data-name="Capa 2" xmlns="http://www.w3.org/2000/svg" viewBox="0 0 61.4 67.23">
  <defs>
    <style>
      .cls-1, .cls-2, .cls-3 {
        stroke-width: 0px;
        fill: #171717;
      }

      .cls-2 {
        fill: #171717;
      }

      .cls-3 {
        fill: #fff;
      }
    </style>
  </defs>
  <g id="Capa_1-2" data-name="Capa 1">
    <g>
      <g>
        <path class="cls-1" d="m58.74,56.5l-.49.76c-1.05,1.62-3.21,2.08-4.83,1.03l-19.17-12.43-1.81,2.79-2.09-.45-.51-3.29-22.58,3.47c-1.91.29-3.69-1.01-3.98-2.92l-.14-.9-3.13.48.67,4.35.96,6.26,23.85-3.67c3.43-.53,6.93.22,9.84,2.11l20.24,13.12,3.45-5.31,2.39-3.69-2.66-1.72Z"/>
        <path class="cls-1" d="m47.35,29.37s-.01.03-.01.04c-1.39,6.31-7.64,10.33-13.96,8.96-2.24-.48-4.19-1.58-5.72-3.07-.34-.33-.66-.68-.95-1.05-.1-.13-.2-.26-.3-.39-.01-.02-.02-.03-.03-.04-1.92-2.63-2.75-6.02-2.01-9.43l5.79,1.25s-.01.03-.01.04c-.38,1.79.11,3.56,1.19,4.88.09.13.2.25.32.37.78.81,1.8,1.4,2.97,1.66,3.14.68,6.26-1.33,6.94-4.48l5.78,1.26Z"/>
      </g>
      <g>
        <g>
          <path class="cls-1" d="m41.62.57C28.13-2.36,14.78,6.22,11.85,19.72c-2.21,10.18,2.13,20.29,10.19,25.89.2.14.4.28.61.4,2.47,1.63,5.28,2.82,8.34,3.49,3.14.69,6.27.75,9.26.26.19-.03.37-.06.55-.09,9.64-1.77,17.76-9.16,19.97-19.32,2.93-13.5-5.65-26.85-19.15-29.78Zm13.37,28.52c-2.24,10.31-12.43,16.86-22.74,14.62-10.31-2.24-16.86-12.43-14.62-22.74S30.06,4.11,40.37,6.35s16.86,12.43,14.62,22.74Z"/>
          <path class="cls-2" d="m41.57,28.11c-.68,3.15-3.8,5.16-6.94,4.48-1.17-.26-2.19-.85-2.97-1.66.78.83,1.81,1.44,3,1.7,3.15.69,6.26-1.33,6.94-4.46l5.74,1.24s.01-.03.01-.04l-5.78-1.26Zm-15.19,5.71c-1.89-2.62-2.7-6-1.97-9.39l5.74,1.25s.01-.03.01-.04l-5.79-1.25c-.74,3.41.09,6.8,2.01,9.43Z"/>
          <path class="cls-3" d="m40.37,6.35c-10.31-2.24-20.5,4.31-22.74,14.62s4.31,20.5,14.62,22.74c10.31,2.24,20.5-4.31,22.74-14.62,2.24-10.31-4.31-20.5-14.62-22.74Zm-6.97,32.06c-2.25-.49-4.22-1.6-5.74-3.11-.34-.33-.66-.68-.95-1.05-.11-.13-.21-.26-.3-.39-.01-.02-.02-.03-.03-.04-1.92-2.63-2.75-6.02-2.01-9.43l5.79,1.25s-.01.03-.01.04h.04c-.38,1.79.09,3.56,1.15,4.88.09.13.2.25.32.37.78.81,1.8,1.4,2.97,1.66,3.14.68,6.26-1.33,6.94-4.48l5.78,1.26s-.01.03-.01.04h.04c-1.37,6.34-7.64,10.38-13.98,9Z"/>
        </g>
        <path class="cls-1" d="m47.38,29.42c-1.37,6.33-7.64,10.37-13.98,8.99-2.25-.49-4.22-1.6-5.74-3.11-.34-.33-.66-.68-.95-1.05-.1-.13-.2-.26-.3-.39-.01-.02-.02-.03-.03-.04-1.89-2.62-2.7-6-1.97-9.39l5.74,1.25h.04c-.38,1.79.09,3.56,1.15,4.88.09.13.2.25.32.37.78.83,1.81,1.44,3,1.7,3.15.69,6.26-1.33,6.94-4.46l5.74,1.24h.04Z"/>
      </g>
    </g>
  </g>
</svg>