<?xml version="1.0" encoding="UTF-8"?>
<svg id="Capa_2" data-name="Capa 2" xmlns="http://www.w3.org/2000/svg" viewBox="0 0 38.68 59.52">
  <defs>
    <style>
      .cls-1, .cls-2 {
        stroke-width: 0px;
        fill: #171717;
      }
      .cls-2 {
        fill: #fff;
      }
    </style>
  </defs>
  <g id="Capa_1-2" data-name="Capa 1">
    <g>
      <path class="cls-1" d="m32.83,57.15h-.68c-1.44,0-2.61-1.17-2.61-2.61v-10.58c0-5.31-4.3-9.61-9.61-9.61h-1.15c-5.31,0-9.61,4.3-9.61,9.61v15.55h8.01v-2.37h-.68c-1.44,0-2.61-1.17-2.61-2.61v-10.38c0-3.01,2.44-5.46,5.46-5.46h0c3.01,0,5.46,2.44,5.46,5.46v15.35h8.01v-2.37Z"/>
      <g>
        <path class="cls-1" d="m19.34,0C8.67,0,0,8.67,0,19.34c0,8.05,4.94,14.97,11.94,17.88,2.28.95,4.78,1.47,7.4,1.47s5.14-.53,7.43-1.48c6.99-2.92,11.91-9.83,11.91-17.87C38.68,8.67,30.01,0,19.34,0Zm0,34.11c-8.15,0-14.77-6.62-14.77-14.77s6.62-14.77,14.77-14.77,14.77,6.62,14.77,14.77-6.62,14.77-14.77,14.77Z"/>
        <path class="cls-2" d="m19.34,4.57c-8.15,0-14.77,6.62-14.77,14.77s6.62,14.77,14.77,14.77,14.77-6.62,14.77-14.77-6.62-14.77-14.77-14.77Zm0,25.35c-5.01,0-9.08-4.08-9.08-9.08h4.57c0,2.48,2.02,4.51,4.51,4.51s4.51-2.03,4.51-4.51h4.57c0,5-4.07,9.08-9.08,9.08Z"/>
      </g>
      <path class="cls-1" d="m28.42,20.84c0,5-4.07,9.08-9.08,9.08s-9.08-4.08-9.08-9.08h4.57c0,2.48,2.02,4.51,4.51,4.51s4.51-2.03,4.51-4.51h4.57Z"/>
    </g>
  </g>
</svg>