<svg width="118" height="186" viewBox="0 0 118 186" fill="none" xmlns="http://www.w3.org/2000/svg">
<g clip-path="url(#clip0_6451_1472)">
<path d="M103.089 84.4104C103.089 94.7104 94.7094 103.09 84.4094 103.09H33.5394C23.2394 103.09 14.8594 94.7104 14.8594 84.4104V33.5404C14.8594 23.2404 23.2394 14.8604 33.5394 14.8604H84.4094C94.7094 14.8604 103.089 23.2404 103.089 33.5404V84.4104Z" fill="white"/>
<path d="M84.41 0H33.54C15.05 0 0 15.05 0 33.54V84.41C0 102.09 13.75 116.6 31.11 117.86C27.82 122.81 25.9 128.75 25.9 135.13V185.72H51.95V178.02H49.75C45.07 178.02 41.28 174.23 41.28 169.55V135.79C41.28 125.99 49.22 118.04 59.03 118.04C68.84 118.04 76.78 125.98 76.78 135.79V185.72H102.83V178.02H100.63C95.95 178.02 92.16 174.23 92.16 169.55V135.13C92.16 128.74 90.24 122.8 86.95 117.85C104.28 116.56 117.99 102.06 117.99 84.41V33.54C117.96 15.05 102.91 0 84.41 0ZM103.09 84.41C103.09 94.71 94.71 103.09 84.41 103.09H33.54C23.24 103.09 14.86 94.71 14.86 84.41V33.54C14.86 23.24 23.24 14.86 33.54 14.86H84.41C94.71 14.86 103.09 23.24 103.09 33.54V84.41Z" fill="#171717"/>
<path d="M58.9814 77.2003C50.8914 77.2003 44.3114 70.6203 44.3114 62.5303H29.4414C29.4414 78.8203 42.6914 92.0703 58.9814 92.0703C75.2714 92.0703 88.5214 78.8203 88.5214 62.5303H73.6514C73.6514 70.6203 67.0714 77.2003 58.9814 77.2003Z" fill="#171717"/>
</g>
<defs>
<clipPath id="clip0_6451_1472">
<rect width="117.96" height="185.72" fill="white"/>
</clipPath>
</defs>
</svg>
