<svg width="155" height="166" viewBox="0 0 155 166" fill="none" xmlns="http://www.w3.org/2000/svg">
<g clip-path="url(#clip0_6451_1477)">
<path d="M141.812 102.63L153.622 53.1503C157.912 35.1603 146.772 17.0303 128.782 12.7303L79.3117 0.920287C61.3217 -3.37971 43.1917 7.77029 38.8917 25.7603L27.0817 75.2403C23.0317 92.2203 32.7217 109.31 48.9517 114.8L17.5617 119.63C12.9517 120.34 8.63172 117.17 7.92172 112.56L7.59172 110.39L0.0117188 111.56L1.63172 122.08L3.96172 137.23L61.6717 128.36C69.9617 127.09 78.4317 128.9 85.4817 133.47L134.472 165.23L142.812 152.37L148.602 143.44L142.162 139.27L140.972 141.11C138.432 145.03 133.202 146.14 129.282 143.6L105.512 128.19C122.082 130.03 137.862 119.27 141.832 102.65L141.812 102.63ZM104.842 113.01L55.3617 101.2C45.3417 98.8103 39.1417 88.7103 41.5317 78.6903L53.3417 29.2103C55.7317 19.1903 65.8317 12.9903 75.8517 15.3803L125.332 27.1903C135.352 29.5803 141.552 39.6803 139.162 49.7003L127.352 99.1803C124.962 109.2 114.862 115.4 104.842 113.01Z" fill="#171717"/>
<path d="M104.842 113.011L55.3619 101.201C45.3419 98.8105 39.1419 88.7105 41.5319 78.6905L53.3419 29.2105C55.7319 19.1905 65.8319 12.9905 75.8519 15.3805L125.332 27.1905C135.352 29.5805 141.552 39.6805 139.162 49.7005L127.352 99.1805C124.962 109.201 114.862 115.401 104.842 113.011Z" fill="white"/>
<path d="M86.1223 81.9103C78.2523 80.0303 73.3823 72.1003 75.2623 64.2303L60.8023 60.7803C57.0223 76.6203 66.8323 92.5903 82.6723 96.3703C98.5123 100.15 114.482 90.3403 118.262 74.5003L103.802 71.0503C101.922 78.9203 93.9923 83.7903 86.1223 81.9103Z" fill="#171717"/>
</g>
<defs>
<clipPath id="clip0_6451_1477">
<rect width="154.54" height="165.21" fill="white"/>
</clipPath>
</defs>
</svg>
