<?xml version="1.0" encoding="UTF-8"?>
<svg id="Capa_2" data-name="Capa 2" xmlns="http://www.w3.org/2000/svg" viewBox="0 0 162.62 249.88">
  <defs>
    <style>
      .cls-1 {
        fill: #171717;
        stroke-width: 0px;
      }
    </style>
  </defs>
  <g id="Productos">
    <g>
      <path class="cls-1" d="m136.56,240.06h-2.81c-5.97,0-10.81-4.84-10.81-10.81v-43.91c0-22.02-17.85-39.88-39.88-39.88h-4.76c-22.02,0-39.88,17.85-39.88,39.88v64.55h33.24v-9.82h-2.81c-5.97,0-10.81-4.84-10.81-10.81v-43.07c0-12.5,10.14-22.64,22.64-22.64h0c12.5,0,22.64,10.14,22.64,22.64v63.7h33.24v-9.82Z"/>
      <path class="cls-1" d="m81.31,162.62C36.48,162.62,0,126.15,0,81.31S36.48,0,81.31,0s81.31,36.48,81.31,81.31-36.48,81.31-81.31,81.31Zm0-144.41c-34.79,0-63.09,28.3-63.09,63.09s28.3,63.09,63.09,63.09,63.09-28.3,63.09-63.09-28.3-63.09-63.09-63.09Z"/>
      <path class="cls-1" d="m113.67,98h-30.17c-7.99,0-14.48-6.5-14.48-14.48v-43.11h18.22v39.37h26.44v18.22Z"/>
    </g>
  </g>
</svg>