<?xml version="1.0" encoding="UTF-8"?>
<svg id="Capa_2" data-name="Capa 2" xmlns="http://www.w3.org/2000/svg" viewBox="0 0 149.58 264.23">
  <defs>
    <style>
      .cls-1 {
        fill: #171717;
        stroke-width: 0px;
      }
    </style>
  </defs>
  <g id="Productos">
    <g>
      <path class="cls-1" d="m136.92,254.41h-2.81c-5.97,0-10.81-4.84-10.81-10.81v-43.91c0-22.02-17.85-39.87-39.87-39.87h-4.76c-22.02,0-39.87,17.85-39.87,39.87v64.54h33.24v-9.82h-2.81c-5.97,0-10.81-4.84-10.81-10.81v-43.07c0-12.5,10.14-22.64,22.64-22.64h0c12.5,0,22.64,10.14,22.64,22.64v63.7h33.24v-9.82Z"/>
      <g>
        <path class="cls-1" d="m149.39,176.73H0L.19,51.73,51.88,0h97.7s-.19,176.73-.19,176.73Zm-132.24-17.12h115.13l.15-142.48H58.97S17.3,58.83,17.3,58.83l-.15,100.78Z"/>
        <polygon class="cls-1" points="67.87 67.69 5.75 67.69 5.75 50.57 50.75 50.57 50.75 5.56 67.87 5.56 67.87 67.69"/>
        <g>
          <rect class="cls-1" x="32.42" y="91.05" width="85.53" height="17.12"/>
          <rect class="cls-1" x="32.42" y="125.73" width="85.53" height="17.12"/>
        </g>
      </g>
    </g>
  </g>
</svg>