<?xml version="1.0" encoding="UTF-8"?>
<svg id="Capa_2" data-name="Capa 2" xmlns="http://www.w3.org/2000/svg" viewBox="0 0 169.6 294.7">
  <defs>
    <style>
      .cls-1 {
        fill: #171717;
        stroke-width: 0px;
      }
    </style>
  </defs>
  <g id="Productos">
    <g>
      <path class="cls-1" d="m169.49,140.83c-1.42-29.78-18.52-50.48-42.21-79.13l-.23-.28h-.02c-1.45-1.77-2.94-3.57-4.45-5.4h.06c5,0,9.07-4.07,9.07-9.07s-4.07-9.07-9.07-9.07h-.13c2.79-3.73,5.71-8.23,7.61-13.21,2.1-5.53,1.36-11.55-2.06-16.52-3.51-5.1-9.28-8.14-15.44-8.14h-55.67c-6.16,0-11.94,3.04-15.45,8.14-3.42,4.96-4.16,10.98-2.05,16.52,1.89,4.95,4.81,9.46,7.61,13.21h-.14c-5,0-9.07,4.07-9.07,9.07s4.07,9.07,9.07,9.07h.06c-1.58,1.92-3.15,3.82-4.69,5.68C18.63,90.35,1.52,111.05.1,140.83c-.89,18.54,4.05,33.58,14.66,44.73,8.96,9.4,21.54,15.71,38.04,19.06-5.73,6.91-9.18,15.79-9.18,25.47v64.62h33.27v-9.83h-2.81c-5.98,0-10.83-4.85-10.83-10.83v-43.12c0-12.52,10.15-22.67,22.67-22.67s22.67,10.15,22.67,22.67v63.77h33.27v-9.83h-2.81c-5.98,0-10.83-4.85-10.83-10.83v-43.96c0-9.87-3.6-18.89-9.54-25.86,15.57-3.44,27.53-9.62,36.14-18.66,10.62-11.14,15.56-26.19,14.67-44.73ZM56.95,18.15h55.67c.22,0,.37.13.47.25-2.14,5.41-6.85,10.98-11.02,15.9-1.05,1.24-2.05,2.43-2.98,3.57h-28.62c-.92-1.14-1.93-2.34-2.98-3.58-4.17-4.93-8.89-10.51-11.01-15.9.09-.1.26-.24.46-.24Zm85.17,154.41l-.45.47c-10.31,10.81-29.45,16.29-56.9,16.29s-46.59-5.48-56.9-16.29c-7.15-7.5-10.32-17.75-9.67-31.34,1.13-23.74,15.83-41.53,38.09-68.45l.88-1.06c4.24-5.14,8.62-10.44,13.2-16.15h28.82c5.09,6.34,10.06,12.36,14.11,17.27,22.23,26.9,36.91,44.67,38.05,68.4.63,13.3-2.39,23.41-9.23,30.87Z"/>
      <path class="cls-1" d="m102.29,124.72c-3.21-1.3-7.15-2.39-11.83-3.26-4.61-.87-8.02-1.62-10.23-2.26-2.21-.63-3.91-1.47-5.11-2.51-1.2-1.04-1.8-2.49-1.8-4.36,0-2.61,1-4.61,3.01-6.02,2-1.4,4.68-2.11,8.02-2.11,3.61,0,6.52.92,8.72,2.76,2.21,1.84,3.47,4.26,3.81,7.27h14.74c-.13-5.41-2.07-10.06-5.82-13.94-3.74-3.88-8.62-6.38-14.64-7.52v-10.83h-12.43v10.63c-6.15.94-11.11,3.31-14.89,7.12-3.78,3.81-5.66,8.39-5.66,13.74,0,4.48.99,8.07,2.96,10.78,1.97,2.71,4.53,4.75,7.67,6.12,3.14,1.37,7.02,2.49,11.63,3.36,4.68.94,8.14,1.72,10.38,2.36,2.24.64,3.98,1.5,5.21,2.61,1.24,1.1,1.85,2.59,1.85,4.46,0,2.67-1.12,4.76-3.36,6.27-2.24,1.5-5.13,2.26-8.67,2.26-4.28,0-7.7-1.05-10.28-3.16-2.57-2.11-3.99-4.9-4.26-8.37l-14.74-.2c.07,5.88,2.12,10.91,6.17,15.09,4.04,4.18,9.37,6.83,15.99,7.97v10.73h12.43v-10.53c6.48-.93,11.75-3.41,15.79-7.42,4.04-4.01,6.07-8.86,6.07-14.54,0-4.41-.99-7.94-2.96-10.58-1.97-2.64-4.56-4.61-7.77-5.92Z"/>
    </g>
  </g>
</svg>