<?xml version="1.0" encoding="UTF-8"?>
<svg version="1.1" xmlns="http://www.w3.org/2000/svg" width="505" height="150">
<path d="M0 0 C166.65 0 333.3 0 505 0 C505 49.5 505 99 505 150 C338.35 150 171.7 150 0 150 C0 100.5 0 51 0 0 Z " fill="#121212" transform="translate(0,0)"/>
<path d="M0 0 C166.65 0 333.3 0 505 0 C505 49.5 505 99 505 150 C338.35 150 171.7 150 0 150 C0 100.5 0 51 0 0 Z M56.27333808 31.17095709 C52.9591438 36.17396986 51.874827 40.25947658 51.83886719 46.2722168 C51.82925964 47.5675383 51.8196521 48.8628598 51.80975342 50.19743347 C51.804904 51.61469344 51.80062553 53.03195545 51.796875 54.44921875 C51.79111963 55.90550233 51.78536195 57.3617859 51.77960205 58.81806946 C51.76909706 61.87375236 51.7632518 64.92940901 51.75976562 67.98510742 C51.75429612 71.88435595 51.73029949 75.7832526 51.70179367 79.68239117 C51.68308491 82.69286582 51.67795723 85.70325732 51.67642975 88.71378517 C51.67341887 90.15018439 51.66544368 91.58658269 51.65224457 93.02292442 C51.50419383 106.37338191 51.50419383 106.37338191 57.8125 117.8125 C58.50279297 118.62654297 58.50279297 118.62654297 59.20703125 119.45703125 C63.65640013 123.28600883 67.87997635 124.37514249 73.65054131 124.38031673 C74.2966496 124.38497665 74.94275789 124.38963657 75.60844523 124.3944377 C77.77049294 124.40637555 79.93191081 124.39699746 82.09396362 124.38768005 C83.66086844 124.39185352 85.22777023 124.39733111 86.79466641 124.40399987 C91.09832365 124.41847165 95.40178966 124.41420435 99.70545745 124.40683305 C104.34769353 124.40210794 108.98988785 124.41460544 113.6321106 124.42485046 C122.72597205 124.44205695 131.81976447 124.4428746 140.91363798 124.43763756 C148.30473841 124.43359791 155.69581842 124.43503698 163.08691788 124.44038582 C164.13843243 124.44113424 165.18994697 124.44188266 166.2733256 124.44265376 C168.40941055 124.44418523 170.5454955 124.44572357 172.68158044 124.44726873 C192.71899912 124.46100058 212.75637876 124.45555137 232.79379655 124.44408352 C251.12711844 124.43415137 269.4603394 124.44709029 287.79364572 124.47101771 C306.61537136 124.49539761 325.43704997 124.50501925 344.25879109 124.49836498 C354.82692405 124.49487018 365.39497939 124.49712204 375.96310043 124.51461601 C384.95997487 124.52932415 393.95671703 124.52999164 402.95358883 124.5125451 C407.54395849 124.50402112 412.13409171 124.50191961 416.72444916 124.51719666 C420.92771072 124.53101223 425.13053258 124.5263211 429.3337685 124.50695742 C430.85323562 124.50318744 432.37273769 124.50614811 433.89217375 124.51656907 C441.81703017 124.56705056 448.2121768 124.5032283 455 120 C460.37237245 114.62762755 462.37297627 108.53413584 462.38818359 101.09008789 C462.39344055 100.43867325 462.39869751 99.78725861 462.40411377 99.11610413 C462.41720661 96.98470339 462.40861369 94.85406323 462.3984375 92.72265625 C462.40046158 91.22724771 462.40337579 89.73184013 462.40713501 88.23643494 C462.41154405 85.11040805 462.40517439 81.98463932 462.39111328 78.85864258 C462.37403686 74.86977316 462.38386142 70.88151012 462.40183067 66.892663 C462.41271989 63.80667124 462.40919851 60.72082099 462.4014473 57.63482475 C462.39945868 56.16495121 462.40185708 54.69506445 462.40888596 53.22520638 C462.62881284 40.70587364 462.62881284 40.70587364 457.16796875 29.7578125 C456.18763672 28.94957031 456.18763672 28.94957031 455.1875 28.125 C454.21876953 27.29355469 454.21876953 27.29355469 453.23046875 26.4453125 C448.51616953 23.39051265 443.93383227 22.7492681 438.40189743 22.73714447 C437.082878 22.72946218 435.76385856 22.72177989 434.40486884 22.7138648 C432.94770775 22.71542512 431.49054687 22.71718266 430.03338623 22.71911621 C428.48028209 22.71394634 426.92718061 22.70791929 425.3740828 22.70110941 C421.10853824 22.68499331 416.84306102 22.68139161 412.57748961 22.67991447 C407.97611551 22.67620924 403.37477619 22.66111258 398.77342224 22.64764404 C388.71351442 22.62049442 378.65362256 22.60843093 368.5936842 22.59962273 C362.31162109 22.59409559 356.02956414 22.58562052 349.74750519 22.57661438 C332.35208905 22.55223239 314.95667782 22.53163237 297.56124496 22.5248642 C296.44818187 22.52442506 295.33511877 22.52398593 294.18832649 22.52353349 C292.5147582 22.52287866 292.5147582 22.52287866 290.80738044 22.5222106 C288.5465544 22.52132367 286.28572837 22.52043054 284.02490234 22.51953125 C282.34273386 22.51886696 282.34273386 22.51886696 280.62658218 22.51818925 C262.45300605 22.5102923 244.27959027 22.47537981 226.10607609 22.42881221 C207.44480667 22.38138091 188.78361771 22.35646034 170.12228703 22.35412836 C159.64569314 22.35229519 149.16930823 22.34079897 138.69277191 22.30448914 C129.77241221 22.27368142 120.85232609 22.26344944 111.9319233 22.27996534 C107.38168779 22.28777632 102.83200319 22.28593079 98.28183556 22.25785065 C94.11284379 22.23235833 89.94481645 22.23477764 85.77582589 22.25903207 C84.27111741 22.26294383 82.76634045 22.25679861 81.26172814 22.23934335 C71.47888277 22.13307428 62.76524169 23.00859248 56.27333808 31.17095709 Z " fill="#101010" transform="translate(0,0)"/>
<path d="M0 0 C3.52946573 8.08761997 6.68944129 16.31128924 9.8125 24.5625 C10.22169678 25.63371094 10.63089355 26.70492187 11.05249023 27.80859375 C11.43348877 28.82179688 11.8144873 29.835 12.20703125 30.87890625 C12.5522583 31.7922876 12.89748535 32.70566895 13.25317383 33.64672852 C14 36 14 36 14 39 C13.30551758 38.98428955 12.61103516 38.9685791 11.89550781 38.95239258 C8.68042491 38.88916866 5.46547348 38.85073609 2.25 38.8125 C1.15816406 38.78736328 0.06632812 38.76222656 -1.05859375 38.73632812 C-11.24330639 38.64593127 -20.3106943 40.50736011 -29.625 44.6875 C-34.82300885 47 -34.82300885 47 -37 47 C-37.12366591 41.51912668 -37.21436943 36.03906643 -37.2746582 30.55712891 C-37.29979147 28.69272719 -37.33390383 26.8284239 -37.37719727 24.96435547 C-37.43790352 22.28328169 -37.46622058 19.60351098 -37.48828125 16.921875 C-37.51408768 16.08944275 -37.5398941 15.2570105 -37.56648254 14.39935303 C-37.56929198 8.59303183 -37.56929198 8.59303183 -34.60546875 5.50561523 C-23.8684491 -0.6989575 -11.99555271 -0.14057288 0 0 Z " fill="#EFEFEF" transform="translate(199,46)"/>
<path d="M0 0 C9.44679508 0.0901842 19.37949982 0.60434773 27.8125 5.1875 C28.52374023 5.53272705 29.23498047 5.8779541 29.96777344 6.23364258 C32.91271498 9.35280181 32.3031127 12.95512004 32.203125 17.01171875 C32.19746521 17.87311966 32.19180542 18.73452057 32.18597412 19.62202454 C32.1635813 22.37358148 32.1133808 25.12383663 32.0625 27.875 C32.0424387 29.74021557 32.02418728 31.60545155 32.0078125 33.47070312 C31.96370713 38.04347042 31.89466057 42.6152645 31.8125 47.1875 C28.74498513 46.62591697 25.90333687 45.94938559 23 44.8125 C22.31679687 44.54953125 21.63359375 44.2865625 20.9296875 44.015625 C19.51822917 43.46354167 18.10677083 42.91145833 16.6953125 42.359375 C16.01210937 42.09640625 15.32890625 41.8334375 14.625 41.5625 C14.01269531 41.32273438 13.40039062 41.08296875 12.76953125 40.8359375 C8.43807987 39.40076599 4.40323865 39.06652185 -0.14453125 39.08984375 C-1.25634766 39.09306641 -2.36816406 39.09628906 -3.51367188 39.09960938 C-4.66416016 39.10798828 -5.81464844 39.11636719 -7 39.125 C-8.16982422 39.12951172 -9.33964844 39.13402344 -10.54492188 39.13867188 C-13.42583358 39.1504307 -16.30664044 39.16686574 -19.1875 39.1875 C-18.56002533 34.40992635 -17.2102566 30.11682536 -15.5 25.63671875 C-15.23743408 24.93730667 -14.97486816 24.23789459 -14.7043457 23.51728821 C-14.15217849 22.04985052 -13.59736604 20.58340572 -13.04003906 19.11791992 C-12.18437357 16.86677476 -11.33765642 14.61241386 -10.4921875 12.35742188 C-9.95364409 10.92949162 -9.41459945 9.50175028 -8.875 8.07421875 C-8.62081299 7.39824142 -8.36662598 6.7222641 -8.10473633 6.02580261 C-6.03799403 0.60723613 -5.79078943 0.03824828 0 0 Z " fill="#EFEFEF" transform="translate(127.1875,45.8125)"/>
<path d="M0 0 C1.31167194 -0.00445784 2.62334388 -0.00891569 3.97476345 -0.01350862 C5.4443824 -0.01341931 6.91400134 -0.01322944 8.38362026 -0.01294994 C9.93398282 -0.01624749 11.48434451 -0.01997283 13.0347051 -0.02409142 C17.3112055 -0.03413228 21.58769186 -0.03783157 25.86420238 -0.04048073 C30.47038712 -0.04437771 35.07656068 -0.05395657 39.6827383 -0.0626936 C50.81589606 -0.08247695 61.94905476 -0.09252736 73.08222571 -0.10142139 C78.32255768 -0.10580191 83.56288863 -0.11116939 88.8032198 -0.11641026 C106.21992343 -0.1334257 123.63662643 -0.14791979 141.0533371 -0.155159 C145.57541371 -0.15706896 150.09749032 -0.15898928 154.61956692 -0.16094494 C156.30552188 -0.16167055 156.30552188 -0.16167055 158.02553653 -0.16241082 C176.23233252 -0.17071073 194.4390628 -0.1960456 212.6458301 -0.22852562 C231.33069325 -0.26158717 250.015523 -0.27960701 268.70041555 -0.28280324 C279.19431596 -0.28496935 289.6881206 -0.2937327 300.18199253 -0.31926441 C309.11963382 -0.3409592 318.05715609 -0.3490279 326.99482072 -0.33929763 C331.55491767 -0.33474917 336.11476899 -0.33667083 340.67483234 -0.35605907 C344.85176832 -0.37366487 349.02827899 -0.37271412 353.20521932 -0.35716178 C354.71406316 -0.35478175 356.22293625 -0.35912981 357.73173536 -0.37099043 C366.56091824 -0.4360815 374.91819015 -0.44772353 381.75894696 5.85497206 C386.81022901 11.17782868 388.13738901 16.67061454 388.16595364 23.94647694 C388.17362003 24.9257893 388.17362003 24.9257893 388.18144131 25.92488575 C388.1952529 28.06637405 388.19438706 30.20753749 388.19207668 32.34906483 C388.19596811 33.848298 388.2003037 35.34753008 388.20506191 36.84676075 C388.21250587 39.98290048 388.21224604 43.1189276 388.20696926 46.25507069 C388.20117542 50.26085253 388.21811207 54.26617187 388.24131393 58.27187729 C388.25609213 61.36639032 388.25691747 64.46079298 388.25380421 67.55533504 C388.25431531 69.03162585 388.25951332 70.50792317 388.26961613 71.9841795 C388.28204412 74.05394343 388.27515229 76.12281946 388.26360989 78.19257069 C388.26423931 79.36694187 388.26486874 80.54131306 388.26551723 81.75127125 C387.60457685 87.72614534 385.17114924 92.85436727 380.89129543 97.13422108 C373.49010889 102.04112125 366.12801379 101.69967966 357.55682278 101.64888477 C355.9881891 101.65421356 354.41956053 101.66128116 352.85094166 101.66993183 C348.55175314 101.68854192 344.25290948 101.68225988 339.95370674 101.6717788 C335.31285707 101.66478221 330.67207792 101.68078815 326.03124905 101.69377613 C316.94432904 101.71541314 307.85753428 101.71529009 298.77059698 101.70715059 C291.38526004 101.70084996 283.99995962 101.70198819 276.61462307 101.70842266 C275.5633795 101.70932432 274.51213593 101.71022597 273.4290365 101.71115495 C271.29343461 101.71300615 269.15783273 101.71486871 267.02223086 101.71674251 C246.99814476 101.73331973 226.97412912 101.72460219 206.95004725 101.70775693 C188.6297627 101.69305781 170.30964213 101.70769152 151.98937869 101.73652709 C133.17662244 101.7659173 114.36394188 101.7768946 95.55116367 101.76734489 C93.42343173 101.76632234 91.29569977 101.76532773 89.1679678 101.76436138 C88.12109149 101.76388499 87.07421519 101.7634086 85.99561536 101.76291778 C78.61940256 101.76075327 71.24326139 101.77055958 63.86706448 101.78513241 C54.8775306 101.80264497 45.88820583 101.8025537 36.89868021 101.77978075 C32.31230193 101.7686292 27.72629224 101.76549676 23.13992977 101.78408146 C18.94035897 101.80087988 14.7414784 101.79454421 10.54195237 101.76986467 C9.02389265 101.76497888 7.50577733 101.768504 5.98776412 101.78135211 C-3.26224916 101.85398422 -9.67991052 101.20685445 -16.61472225 94.72700697 C-21.49095591 89.49884084 -22.34987252 83.3474753 -22.41510105 76.439641 C-22.43108845 75.151077 -22.44707584 73.86251301 -22.46354771 72.53490162 C-22.46992591 71.1448351 -22.47531818 69.75476376 -22.47979832 68.36468983 C-22.48878102 66.91891362 -22.49790312 65.47313827 -22.50715733 64.02736378 C-22.52359206 61.00395937 -22.53133728 57.98066497 -22.53424168 54.95721912 C-22.53961935 51.10731116 -22.57729603 47.25845543 -22.62298584 43.40884399 C-22.65291597 40.42400422 -22.65996866 37.439413 -22.66096783 34.4544363 C-22.66513873 33.0364071 -22.67744545 31.61837496 -22.69848537 30.20049572 C-22.81832687 21.42645108 -22.23006429 14.47765836 -17.10870457 7.13422108 C-14.72198582 4.88031483 -14.72198582 4.88031483 -12.42120457 3.57172108 C-11.65421238 3.11668201 -10.88722019 2.66164295 -10.09698582 2.19281483 C-6.41527509 0.23261128 -4.2290235 0.00663734 0 0 Z M-15.92120457 9.07172108 C-16.50514988 9.74074451 -17.08909519 10.40976795 -17.69073582 11.09906483 C-20.42058635 15.01711477 -20.242245 18.93529962 -20.26983738 23.61176014 C-20.27944492 24.92702686 -20.28905247 26.24229359 -20.29895115 27.59741688 C-20.30380017 29.03155817 -20.30807875 30.46570149 -20.31182957 31.89984608 C-20.31758649 33.37712066 -20.32334415 34.85439523 -20.32910252 36.33166981 C-20.33959787 39.42845474 -20.34544977 42.52521384 -20.34893894 45.62201405 C-20.35441348 49.57391857 -20.37842511 53.52547679 -20.4069109 57.47727299 C-20.42561496 60.52977944 -20.43074704 63.58220387 -20.43227482 66.63476276 C-20.43528557 68.09069933 -20.44326031 69.546635 -20.45646 71.00251484 C-20.75494526 83.33469011 -20.75494526 83.33469011 -15.46026707 94.15765858 C-14.60561863 94.82668201 -14.60561863 94.82668201 -13.73370457 95.50922108 C-13.16909519 95.97070545 -12.60448582 96.43218983 -12.02276707 96.90765858 C-7.6128917 99.73357871 -3.86054769 100.38471731 1.34070206 100.38869667 C2.65199705 100.39452886 3.96329204 100.40036106 5.31432325 100.40636998 C6.76794437 100.40273684 8.22156503 100.39891247 9.6751852 100.39491749 C11.22060095 100.39793778 12.76601521 100.40182664 14.31142682 100.40651006 C18.56030104 100.41681479 22.80909111 100.41460194 27.05797231 100.41032946 C31.63954832 100.40786669 36.22110384 100.41687085 40.80267239 100.42436695 C49.77968418 100.43712892 58.75666608 100.43890574 67.73368541 100.43656669 C75.02993568 100.43478489 82.32617686 100.43653021 89.62242603 100.44079113 C91.17908588 100.44168391 91.17908588 100.44168391 92.7671934 100.44259473 C94.87533489 100.44380647 96.98347637 100.4450206 99.09161784 100.44623711 C118.87102504 100.45711861 138.6504152 100.45494739 158.42982336 100.44885226 C176.52716327 100.44368368 194.62444935 100.45493592 212.72177861 100.47395048 C231.2993845 100.49332016 249.87696491 100.50158634 268.45458096 100.49782723 C278.88634206 100.49591372 289.31805735 100.49841725 299.74981022 100.51254177 C308.63140519 100.52444552 317.51292614 100.52587183 326.39452211 100.5137516 C330.92611734 100.50785559 335.45757713 100.5067834 339.9891634 100.51875401 C344.13873438 100.52958807 348.28805644 100.52653902 352.43761566 100.51249232 C353.93759848 100.50983853 355.43760066 100.51223332 356.93756453 100.52022818 C369.39891834 100.76884799 369.39891834 100.76884799 380.16863918 95.19672108 C380.71649075 94.51609608 381.26434231 93.83547108 381.82879543 93.13422108 C382.39469387 92.45359608 382.96059231 91.77297108 383.54363918 91.07172108 C386.1739275 87.29020513 386.03737798 83.87986286 386.08416653 79.40301991 C386.09234402 78.72292866 386.10052151 78.04283741 386.1089468 77.34213734 C386.13375268 75.09185116 386.15030703 72.84162801 386.16473293 70.59125233 C386.17005661 69.82067682 386.17538029 69.05010132 386.18086529 68.25617504 C386.20757982 64.17508789 386.22695751 60.0940311 386.24139309 56.01288319 C386.25471479 52.64411631 386.28253602 49.27595769 386.32342434 45.90741444 C386.37288766 41.83197062 386.39753094 37.75707708 386.40462017 33.68134594 C386.41131025 32.13326159 386.42647372 30.58518845 386.45051098 29.03727627 C386.75704819 17.11317622 386.75704819 17.11317622 380.89129543 7.13422108 C375.38137177 2.74877163 371.42614926 2.01033268 364.52811527 2.00279331 C362.55185907 1.99703159 362.55185907 1.99703159 360.53567851 1.99115348 C359.06987701 1.99193373 357.60407557 1.99281251 356.13827419 1.99377918 C354.58404764 1.99119569 353.02982175 1.98818258 351.47559679 1.98477578 C347.19782121 1.97670085 342.9200624 1.97491594 338.6422801 1.97417831 C334.03141771 1.97232865 329.42056404 1.96478183 324.80970669 1.9580431 C314.72515276 1.9444565 304.6406028 1.93843476 294.55604124 1.93403244 C288.26162697 1.93127099 281.96721425 1.92703385 275.67280102 1.92252827 C258.25171982 1.91033596 240.83063985 1.90003606 223.40955448 1.89665318 C222.2944149 1.89643361 221.17927531 1.89621404 220.03034361 1.89598782 C218.91251338 1.89576955 217.79468314 1.89555127 216.64297926 1.89532638 C214.37776955 1.89488291 212.11255983 1.89443634 209.84735012 1.8939867 C208.72372422 1.89376527 207.60009832 1.89354384 206.44242315 1.8933157 C188.22727408 1.88936594 170.01216498 1.87190632 151.79703136 1.84862718 C133.10420902 1.82492995 114.41140676 1.81245209 95.71856916 1.81128526 C85.21978318 1.81036766 74.72104929 1.80459402 64.22227764 1.78646564 C55.28424581 1.77108674 46.34628216 1.76593116 37.40823962 1.77420375 C32.84651687 1.77811789 28.28493154 1.77714345 23.72322559 1.7631464 C19.54843654 1.75045344 15.3738888 1.75156425 11.1991003 1.76373711 C9.68768072 1.76570211 8.1762443 1.76257881 6.6648484 1.75389275 C4.61165772 1.74283868 2.55932453 1.75026041 0.50615788 1.76228428 C-0.63463203 1.76168719 -1.77542193 1.7610901 -2.95078123 1.76047492 C-8.52993197 2.42077789 -12.33271766 4.85140126 -15.92120457 9.07172108 Z " fill="#D0D1D1" transform="translate(74.10870456695557,22.865778923034668)"/>
<path d="M0 0 C1.33650492 4.00951475 0.26335502 5.55835712 -1.2734375 9.4609375 C-1.51663727 10.08851959 -1.75983704 10.71610168 -2.01040649 11.36270142 C-2.78983255 13.37035554 -3.58162899 15.37282006 -4.375 17.375 C-5.15939617 19.37068116 -5.94103804 21.36735393 -6.71817017 23.36587524 C-7.42667468 25.18544431 -8.14354764 27.00174827 -8.86083984 28.81787109 C-9.8438879 31.5639166 -10.52879988 34.12898236 -11 37 C-10.08089844 36.67515625 -9.16179687 36.3503125 -8.21484375 36.015625 C-3.05091349 34.54578113 2.10722499 34.70886604 7.4375 34.75 C8.43587891 34.74226563 9.43425781 34.73453125 10.46289062 34.7265625 C19.41440188 34.75010362 26.70097613 36.73966919 35 40 C35 40.33 35 40.66 35 41 C33.94611084 41.02505615 32.89222168 41.0501123 31.80639648 41.07592773 C27.87204179 41.17056291 23.93784075 41.27064339 20.00366211 41.37231445 C18.30545665 41.4154522 16.60721371 41.45714084 14.90893555 41.49731445 C12.45870702 41.55553344 10.00866353 41.61907503 7.55859375 41.68359375 C6.43160316 41.70866249 6.43160316 41.70866249 5.28184509 41.73423767 C4.56162674 41.75418289 3.84140839 41.77412811 3.09936523 41.79467773 C2.47537338 41.81022202 1.85138153 41.8257663 1.20848083 41.84178162 C-1.87728843 42.06285006 -4.93741508 42.56248787 -8 43 C-3.05 43.33 1.9 43.66 7 44 C7 44.33 7 44.66 7 45 C2.97954457 45.33799692 -1.04141688 45.66956119 -5.0625 46 C-6.19623047 46.09539062 -7.32996094 46.19078125 -8.49804688 46.2890625 C-14.01683235 46.7395756 -19.46247589 47.12859272 -25 47 C-22.49359334 39.1074854 -19.54929873 31.39716899 -16.49414062 23.70410156 C-15.91029901 22.22350547 -15.3345565 20.73969228 -14.76660156 19.25292969 C-13.93867598 17.08780472 -13.08569757 14.9341492 -12.2265625 12.78125 C-11.85285019 11.78140076 -11.85285019 11.78140076 -11.47158813 10.76135254 C-10.71337891 8.90820312 -10.71337891 8.90820312 -9 6 C-6.29833984 5.07617188 -6.29833984 5.07617188 -4 5 C-3.67 5.66 -3.34 6.32 -3 7 C-2.01 4.69 -1.02 2.38 0 0 Z " fill="#1D1D1D" transform="translate(114,53)"/>
<path d="M0 0 C1.33650492 4.00951475 0.26335502 5.55835712 -1.2734375 9.4609375 C-1.51663727 10.08851959 -1.75983704 10.71610168 -2.01040649 11.36270142 C-2.78983255 13.37035554 -3.58162899 15.37282006 -4.375 17.375 C-5.15939617 19.37068116 -5.94103804 21.36735393 -6.71817017 23.36587524 C-7.42667468 25.18544431 -8.14354764 27.00174827 -8.86083984 28.81787109 C-9.8438879 31.5639166 -10.52879988 34.12898236 -11 37 C-10.08089844 36.67515625 -9.16179687 36.3503125 -8.21484375 36.015625 C-3.05091349 34.54578113 2.10722499 34.70886604 7.4375 34.75 C8.43587891 34.74226563 9.43425781 34.73453125 10.46289062 34.7265625 C19.41440188 34.75010362 26.70097613 36.73966919 35 40 C35 40.33 35 40.66 35 41 C17.97643067 41.162058 1.00837817 40.70797633 -16 40 C-13.34134037 31.40974595 -9.81853628 23.20570562 -6.3125 14.9375 C-5.69956186 13.48515596 -5.08692914 12.03268298 -4.47460938 10.58007812 C-2.98659023 7.05188891 -1.49444799 3.52547065 0 0 Z " fill="#EEEEEE" transform="translate(114,53)"/>
<path d="M0 0 C3.00625949 3.53015069 4.63177632 7.50836034 6.35546875 11.7578125 C6.66196854 12.50207489 6.96846832 13.24633728 7.28425598 14.01315308 C7.92819327 15.58038816 8.5693081 17.14878553 9.20776367 18.71826172 C10.18804909 21.12634886 11.17826963 23.53016835 12.16992188 25.93359375 C12.79486091 27.45809157 13.41922988 28.98282324 14.04296875 30.5078125 C14.3397905 31.22865021 14.63661224 31.94948792 14.94242859 32.69216919 C17 37.76861722 17 37.76861722 17 40 C12.4692592 40.1458651 7.9384206 40.28806531 3.4074707 40.42724609 C1.87456354 40.47480532 0.34168412 40.52326976 -1.19116211 40.57275391 C-12.13137907 40.92508426 -23.05422011 41.06239381 -34 41 C-32.55117837 38.10235675 -30.91130639 37.94523854 -27.875 36.875 C-21.30431594 34.92273467 -15.08538542 34.62609384 -8.25 34.625 C-7.28046387 34.6235498 -6.31092773 34.62209961 -5.31201172 34.62060547 C0.72824474 34.71242149 6.14949137 35.49523955 12 37 C9.40643312 27.80307535 6.15329567 18.95476583 2.64257812 10.07348633 C2.13114258 8.76480591 2.13114258 8.76480591 1.609375 7.4296875 C1.29967773 6.64835449 0.98998047 5.86702148 0.67089844 5.06201172 C0 3 0 3 0 0 Z " fill="#EDEDED" transform="translate(206,53)"/>
<path d="M0 0 C0.99 0 1.98 0 3 0 C3 6.27 3 12.54 3 19 C2.01 19 1.02 19 0 19 C-0.33 18.34 -0.66 17.68 -1 17 C-1.99 17.66 -2.98 18.32 -4 19 C-7.0875593 19.32162076 -9.14015561 19.48724515 -11.875 17.9375 C-13.64273274 14.8930714 -13.36823916 12.4368988 -13 9 C-11.875 7.0625 -11.875 7.0625 -10 6 C-6.90498792 5.74734595 -4.79870027 5.60064987 -2 7 C-1.67 7.99 -1.34 8.98 -1 10 C-0.67 6.7 -0.34 3.4 0 0 Z " fill="#565656" transform="translate(292,78)"/>
<path d="M0 0 C0.99 0 1.98 0 3 0 C3 5.61 3 11.22 3 17 C-5.30078125 17.390625 -5.30078125 17.390625 -8 17 C-10.15949183 14.80359378 -10.90597764 13.53727065 -11.4375 10.5 C-10.84836233 7.13349902 -9.73925021 5.99891231 -7 4 C-4.3125 3.6875 -4.3125 3.6875 -2 4 C-1.67 4.33 -1.34 4.66 -1 5 C-0.67 3.35 -0.34 1.7 0 0 Z " fill="#CDCDCD" transform="translate(330,49)"/>
<path d="M0 0 C0.66 0 1.32 0 2 0 C-4.69026549 20.81415929 -4.69026549 20.81415929 -9.3125 29.6875 C-10.81406409 32.6350147 -11.44862987 34.79550231 -12 38 C-11.30777344 37.98839844 -10.61554688 37.97679687 -9.90234375 37.96484375 C-1.55211039 37.88783238 6.67891834 38.36341452 15 39 C15 39.33 15 39.66 15 40 C10.97954457 40.33799692 6.95858312 40.66956119 2.9375 41 C1.80376953 41.09539062 0.67003906 41.19078125 -0.49804688 41.2890625 C-6.01683235 41.7395756 -11.46247589 42.12859272 -17 42 C-14.51541605 34.06363113 -11.41570874 26.39699774 -8.27441406 18.70410156 C-7.36636825 16.47884705 -6.46417592 14.25127963 -5.5625 12.0234375 C-4.98732305 10.60923509 -4.41181456 9.19516746 -3.8359375 7.78125 C-3.56615082 7.11468384 -3.29636414 6.44811768 -3.0184021 5.76135254 C-1.11511631 1.11511631 -1.11511631 1.11511631 0 0 Z " fill="#DBDCDC" transform="translate(106,58)"/>
<path d="M0 0 C3 1 3 1 3.96818542 2.58738708 C4.24576187 3.27196487 4.52333832 3.95654266 4.80932617 4.66186523 C5.12943161 5.43614365 5.44953705 6.21042206 5.77934265 7.00816345 C6.11383926 7.84980545 6.44833588 8.69144745 6.79296875 9.55859375 C7.14386063 10.41808121 7.4947525 11.27756866 7.85627747 12.1631012 C8.59678107 13.98269362 9.33196708 15.80445771 10.06225586 17.62817383 C11.18319701 20.42675701 12.31955407 23.21866599 13.45898438 26.00976562 C14.17538896 27.77567285 14.89091367 29.54193734 15.60546875 31.30859375 C15.94603806 32.14821152 16.28660736 32.98782928 16.63749695 33.85289001 C17.10347038 35.01903587 17.10347038 35.01903587 17.57885742 36.20874023 C17.85404709 36.89411362 18.12923676 37.579487 18.4127655 38.28562927 C19 40 19 40 19 42 C15.37479395 41.85903487 11.74989159 41.71131601 8.125 41.5625 C7.11179688 41.52318359 6.09859375 41.48386719 5.0546875 41.44335938 C-1.32741336 41.17743851 -7.65251529 40.71710563 -14 40 C-14 39.67 -14 39.34 -14 39 C-4.65470582 38.38647541 4.62935945 37.85703131 14 38 C11.82615021 29.83963076 8.67916981 22.23248034 5.3125 14.5 C4.30540115 12.1784657 3.3013273 9.85561598 2.30078125 7.53125 C1.85903564 6.51611328 1.41729004 5.50097656 0.9621582 4.45507812 C0 2 0 2 0 0 Z " fill="#DEDEDE" transform="translate(213,58)"/>
<path d="M0 0 C2.79947917 0.06510417 5.59895833 0.13020833 8.3984375 0.1953125 C8.3984375 4.4853125 8.3984375 8.7753125 8.3984375 13.1953125 C-0.77144667 13.67793798 -0.77144667 13.67793798 -4.2890625 11.6328125 C-6.16342704 8.15184979 -5.57459812 5.9484499 -4.6015625 2.1953125 C-2.6015625 0.1953125 -2.6015625 0.1953125 0 0 Z " fill="#CFCFCF" transform="translate(340.6015625,83.8046875)"/>
<path d="M0 0 C0.66 0 1.32 0 2 0 C2.33 1.65 2.66 3.3 3 5 C3.33 4.67 3.66 4.34 4 4 C7.2488448 3.56096692 8.59797415 3.71749535 11.3125 5.625 C13.47898298 8.6741242 13.54624158 10.33237794 13 14 C11.796875 15.671875 11.796875 15.671875 10 17 C7.51953125 17.29296875 7.51953125 17.29296875 4.8125 17.1875 C3.224375 17.125625 1.63625 17.06375 0 17 C0 11.39 0 5.78 0 0 Z " fill="#DBDCDC" transform="translate(275,49)"/>
<path d="M0 0 C1.15371094 0.00322266 2.30742187 0.00644531 3.49609375 0.00976562 C4.68589844 0.01814453 5.87570313 0.02652344 7.1015625 0.03515625 C8.92107422 0.04192383 8.92107422 0.04192383 10.77734375 0.04882812 C13.76046757 0.06057271 16.74348929 0.07699785 19.7265625 0.09765625 C19.3965625 1.74765625 19.0665625 3.39765625 18.7265625 5.09765625 C17.59395996 5.07409058 17.59395996 5.07409058 16.43847656 5.05004883 C12.95125093 4.98692077 9.46414617 4.94842127 5.9765625 4.91015625 C4.78933594 4.88501953 3.60210937 4.85988281 2.37890625 4.83398438 C-5.61626682 4.76845017 -12.62577128 5.75852524 -20.2734375 8.09765625 C-20.6034375 6.77765625 -20.9334375 5.45765625 -21.2734375 4.09765625 C-19.90051882 3.61255832 -18.52497047 3.13490112 -17.1484375 2.66015625 C-16.38273438 2.39332031 -15.61703125 2.12648438 -14.828125 1.8515625 C-9.88674034 0.39332513 -5.13665286 -0.02542897 0 0 Z " fill="#252525" transform="translate(194.2734375,83.90234375)"/>
<path d="M0 0 C2.3821875 0.0928125 2.3821875 0.0928125 4.8125 0.1875 C4.8125 4.1475 4.8125 8.1075 4.8125 12.1875 C-3.43932482 13.64370438 -3.43932482 13.64370438 -6.75 11.625 C-8.57789788 8.52552098 -8.71529476 6.73126481 -8.1875 3.1875 C-5.83004881 -0.08843867 -3.90127341 -0.15199767 0 0 Z " fill="#E2E3E3" transform="translate(306.1875,83.8125)"/>
<path d="M0 0 C0.99 0.66 1.98 1.32 3 2 C3.29296875 4.1640625 3.29296875 4.1640625 3.1875 6.625 C3.16042969 7.44226563 3.13335937 8.25953125 3.10546875 9.1015625 C3.07066406 9.72804688 3.03585937 10.35453125 3 11 C-1.00459696 13.28456082 -3.49174708 13.08532015 -8 12 C-10.31282587 8.53076119 -10.42478586 7.07794425 -10 3 C-7.71662927 -1.02947777 -4.2161407 -0.37644113 0 0 Z " fill="#1D1D1D" transform="translate(361,84)"/>
<path d="M0 0 C1.9375 1.125 1.9375 1.125 3 3 C3.54068562 6.63031776 3.46379841 8.32214079 1.375 11.375 C-1.67785921 13.46379841 -3.36968224 13.54068562 -7 13 C-8.875 11.9375 -8.875 11.9375 -10 10 C-10.36528977 6.5906288 -10.6140629 4.11976176 -8.9375 1.0625 C-5.88023824 -0.6140629 -3.4093712 -0.36528977 0 0 Z " fill="#DEDFDE" transform="translate(381,84)"/>
<path d="M0 0 C1.875 1.1875 1.875 1.1875 3 3 C3.38601984 6.08815875 3.47901666 8.10184376 2 10.875 C-1.37806895 12.77516379 -4.16618269 12.36512546 -8 12 C-10.46943529 8.29584707 -10.46913089 6.37855495 -10 2 C-7.00946104 -1.68066334 -4.3259629 -1.28858469 0 0 Z " fill="#D1D1D1" transform="translate(308,54)"/>
<path d="M0 0 C2.79224073 -0.08071788 5.58216566 -0.14035408 8.375 -0.1875 C9.1690625 -0.21263672 9.963125 -0.23777344 10.78125 -0.26367188 C12.85586148 -0.29004405 14.93100865 -0.15486462 17 0 C19.20914 3.31371 19.22481553 4.3446021 19.125 8.1875 C19.10695313 9.08855469 19.08890625 9.98960938 19.0703125 10.91796875 C19.04710937 11.60503906 19.02390625 12.29210937 19 13 C18.01 13 17.02 13 16 13 C15.67 9.7 15.34 6.4 15 3 C14.01 3 13.02 3 12 3 C11.67 6.3 11.34 9.6 11 13 C10.01 13 9.02 13 8 13 C7.67 9.7 7.34 6.4 7 3 C6.01 3 5.02 3 4 3 C3.67 6.3 3.34 9.6 3 13 C2.01 13 1.02 13 0 13 C0 8.71 0 4.42 0 0 Z " fill="#C2C3C3" transform="translate(314,84)"/>
<path d="M0 0 C3.28220001 4.92330001 5.31148369 10.44352135 7.625 15.875 C8.140625 17.05964844 8.65625 18.24429688 9.1875 19.46484375 C9.67476562 20.60824219 10.16203125 21.75164062 10.6640625 22.9296875 C11.11217285 23.97366699 11.5602832 25.01764648 12.02197266 26.09326172 C12.98127666 28.94435345 13.20511846 31.02063724 13 34 C11.35 34 9.7 34 8 34 C7.93167969 33.07445312 7.86335937 32.14890625 7.79296875 31.1953125 C6.87351048 24.72818475 3.64343044 18.81664772 0.97460938 12.91796875 C0.56662109 11.97308594 0.15863281 11.02820313 -0.26171875 10.0546875 C-0.64287842 9.20374512 -1.02403809 8.35280273 -1.41674805 7.47607422 C-2.15479866 4.34283464 -1.43160724 2.82033876 0 0 Z " fill="#1B1B1B" transform="translate(214,62)"/>
<path d="M0 0 C1.33650492 4.00951475 0.26335502 5.55835712 -1.2734375 9.4609375 C-1.51663727 10.08851959 -1.75983704 10.71610168 -2.01040649 11.36270142 C-2.78983255 13.37035554 -3.58162899 15.37282006 -4.375 17.375 C-5.15939617 19.37068116 -5.94103804 21.36735393 -6.71817017 23.36587524 C-7.42667468 25.18544431 -8.14354764 27.00174827 -8.86083984 28.81787109 C-9.8438879 31.5639166 -10.52879988 34.12898236 -11 37 C-9.9275 36.649375 -8.855 36.29875 -7.75 35.9375 C-3.07692308 34.76923077 -3.07692308 34.76923077 0 36 C-0.99 36.495 -0.99 36.495 -2 37 C-2 37.66 -2 38.32 -2 39 C-1.34 39.33 -0.68 39.66 0 40 C-5.28 40 -10.56 40 -16 40 C-13.34134037 31.40974595 -9.81853628 23.20570562 -6.3125 14.9375 C-5.69956186 13.48515596 -5.08692914 12.03268298 -4.47460938 10.58007812 C-2.98659023 7.05188891 -1.49444799 3.52547065 0 0 Z " fill="#C9C9C9" transform="translate(114,53)"/>
<path d="M0 0 C3.30776928 0.66155386 4.49309977 1.82413303 6.5 4.5 C6.5 5.82 6.5 7.14 6.5 8.5 C3.2 8.5 -0.1 8.5 -3.5 8.5 C-3.17 9.16 -2.84 9.82 -2.5 10.5 C0.14 10.5 2.78 10.5 5.5 10.5 C5.17 11.49 4.84 12.48 4.5 13.5 C-2.85678392 13.86180905 -2.85678392 13.86180905 -5.5 12.375 C-7.004106 9.55480125 -6.94912849 7.64389944 -6.5 4.5 C-4.51677007 1.7087875 -3.37013879 0.67402776 0 0 Z " fill="#D7D8D7" transform="translate(341.5,52.5)"/>
<path d="M0 0 C0.33 0 0.66 0 1 0 C1.20067521 8.48412234 1.38433591 16.96837332 1.54658794 25.45330906 C1.62246517 29.3936693 1.70408686 33.33373203 1.79907227 37.27368164 C1.89060988 41.07954935 1.96674989 44.88544854 2.03244972 48.69184685 C2.06011329 50.14033336 2.09322211 51.58872695 2.13199425 53.03695869 C2.36514389 61.90044006 2.10611682 68.05322135 -2.6875 75.6875 C-5.67029119 78.67029119 -8.95978062 80.72239469 -13 82 C-13.99 81.67 -14.98 81.34 -16 81 C-15.46375 80.7525 -14.9275 80.505 -14.375 80.25 C-8.30716386 77.05640203 -3.24300815 73.72902445 -1 67 C-0.88224729 64.83846721 -0.82310524 62.67358433 -0.79467773 60.5090332 C-0.77982834 59.52814224 -0.77982834 59.52814224 -0.76467896 58.5274353 C-0.73312217 56.3685873 -0.70832968 54.20971729 -0.68359375 52.05078125 C-0.66301919 50.55290662 -0.64202258 49.05503772 -0.62062073 47.55717468 C-0.56545191 43.6166143 -0.51601979 39.67600197 -0.46777344 35.73535156 C-0.41752049 31.71349469 -0.36185423 27.69171316 -0.30664062 23.66992188 C-0.19912254 15.78001164 -0.09766352 7.89003834 0 0 Z " fill="#9A9A9A" transform="translate(460,42)"/>
<path d="M0 0 C1.9375 1.8125 1.9375 1.8125 3 4 C3 4.99 3 5.98 3 7 C-0.63 7 -4.26 7 -8 7 C-7.01 8.485 -7.01 8.485 -6 10 C-2.89505874 10.31845551 -0.98273923 9.99424641 2 9 C1.34 10.32 0.68 11.64 0 13 C-3.53677664 13.32152515 -5.3962104 13.4131192 -8.375 11.375 C-10.46379841 8.32214079 -10.54068562 6.63031776 -10 3 C-7.72375139 -1.01690931 -4.20725277 -0.5259066 0 0 Z " fill="#D2D2D2" transform="translate(410,84)"/>
<path d="M0 0 C2 2 2 2 2.125 4.625 C2.08375 5.40875 2.0425 6.1925 2 7 C-0.97 7 -3.94 7 -7 7 C-6.67 7.99 -6.34 8.98 -6 10 C-2.95613276 10.08226668 -0.92824652 9.97608217 2 9 C1.34 10.32 0.68 11.64 0 13 C-3.53677664 13.32152515 -5.3962104 13.4131192 -8.375 11.375 C-10.46379841 8.32214079 -10.54068562 6.63031776 -10 3 C-7.71933282 -1.02470679 -4.21240995 -0.38294636 0 0 Z " fill="#C4C4C4" transform="translate(274,84)"/>
<path d="M0 0 C3.00625949 3.53015069 4.63177632 7.50836034 6.35546875 11.7578125 C6.66196854 12.50207489 6.96846832 13.24633728 7.28425598 14.01315308 C7.92819327 15.58038816 8.5693081 17.14878553 9.20776367 18.71826172 C10.18804909 21.12634886 11.17826963 23.53016835 12.16992188 25.93359375 C12.79486091 27.45809157 13.41922988 28.98282324 14.04296875 30.5078125 C14.3397905 31.22865021 14.63661224 31.94948792 14.94242859 32.69216919 C17 37.76861722 17 37.76861722 17 40 C12.38 40 7.76 40 3 40 C7.5 36.625 7.5 36.625 12 37 C9.40643312 27.80307535 6.15329567 18.95476583 2.64257812 10.07348633 C2.13114258 8.76480591 2.13114258 8.76480591 1.609375 7.4296875 C1.29967773 6.64835449 0.98998047 5.86702148 0.67089844 5.06201172 C0 3 0 3 0 0 Z " fill="#C7C7C7" transform="translate(206,53)"/>
<path d="M0 0 C3.50756785 0.99341855 6.92831046 2.00909011 10 4 C10.7734375 6.13671875 10.7734375 6.13671875 11 8 C10.04222656 7.72285156 9.08445313 7.44570312 8.09765625 7.16015625 C-1.97797284 4.37556302 -11.56379921 3.2583218 -22 3 C-22 2.67 -22 2.34 -22 2 C-19.02148438 1.70703125 -19.02148438 1.70703125 -16.04296875 1.4140625 C-4.79219381 -0.86620928 -4.79219381 -0.86620928 0 0 Z " fill="#222222" transform="translate(138,85)"/>
<path d="M0 0 C1.423125 -0.061875 2.84625 -0.12375 4.3125 -0.1875 C5.51326172 -0.23970703 5.51326172 -0.23970703 6.73828125 -0.29296875 C9 0 9 0 10.78125 1.1875 C12.42341401 3.62969263 12.30107677 5.27236294 12.1875 8.1875 C12.16042969 9.08855469 12.13335937 9.98960938 12.10546875 10.91796875 C12.07066406 11.60503906 12.03585937 12.29210937 12 13 C11.01 13 10.02 13 9 13 C8.67 9.7 8.34 6.4 8 3 C6.68 3 5.36 3 4 3 C3.67 6.3 3.34 9.6 3 13 C2.01 13 1.02 13 0 13 C0 8.71 0 4.42 0 0 Z " fill="#C2C3C2" transform="translate(386,84)"/>
<path d="M0 0 C0.66 0 1.32 0 2 0 C2 0.66 2 1.32 2 2 C2.66386719 1.67257813 3.32773438 1.34515625 4.01171875 1.0078125 C7.66487912 -0.22423374 11.01055042 -0.21959396 14.8125 -0.125 C15.85180664 -0.11146484 15.85180664 -0.11146484 16.91210938 -0.09765625 C18.60822395 -0.07426157 20.30415871 -0.03839641 22 0 C22.33 0.99 22.66 1.98 23 3 C21.78183594 3.13277344 20.56367187 3.26554687 19.30859375 3.40234375 C17.6848893 3.58066967 16.06119175 3.75905843 14.4375 3.9375 C13.63763672 4.02451172 12.83777344 4.11152344 12.01367188 4.20117188 C7.32743303 4.71761452 2.66319454 5.30521531 -2 6 C-1.49396008 3.83125748 -1.00016187 2.00032373 0 0 Z " fill="#0F0F0F" transform="translate(105,84)"/>
<path d="M0 0 C3 1 3 1 4.56567383 3.98754883 C5.12524441 5.30549217 5.67149746 6.62913915 6.20703125 7.95703125 C6.64060188 9.00608894 6.64060188 9.00608894 7.08293152 10.07633972 C7.69105632 11.55778576 8.29339283 13.04161903 8.89038086 14.52758789 C9.80786518 16.80101542 10.75314451 19.0614334 11.70117188 21.32226562 C12.28818615 22.76231772 12.87352905 24.2030525 13.45703125 25.64453125 C13.88493706 26.65879936 13.88493706 26.65879936 14.32148743 27.69355774 C16.19051595 32.44283072 16.19051595 32.44283072 15.15893555 35.4597168 C14.77648682 35.96801025 14.39403809 36.47630371 14 37 C13.48953125 35.59814453 13.48953125 35.59814453 12.96875 34.16796875 C9.73445768 25.37622389 6.26395234 16.71895909 2.54101562 8.12182617 C2.04504883 6.96710815 2.04504883 6.96710815 1.5390625 5.7890625 C1.24209473 5.10537598 0.94512695 4.42168945 0.63916016 3.71728516 C0 2 0 2 0 0 Z " fill="#DCDDDC" transform="translate(213,58)"/>
<path d="M0 0 C2.5625 0.1875 2.5625 0.1875 4.5625 2.1875 C4.8125 4.6875 4.8125 4.6875 4.5625 7.1875 C2.5625 9.1875 2.5625 9.1875 0.0625 9.5 C-1.175 9.3453125 -1.175 9.3453125 -2.4375 9.1875 C-4.4375 6.1875 -4.4375 6.1875 -4.125 3.5625 C-3.16420807 0.24340062 -3.16420807 0.24340062 0 0 Z " fill="#1F1F1F" transform="translate(304.4375,85.8125)"/>
<path d="M0 0 C0.99 0 1.98 0 3 0 C3 4.95 3 9.9 3 15 C5.31 15 7.62 15 10 15 C10 15.66 10 16.32 10 17 C6.7 17 3.4 17 0 17 C0 11.39 0 5.78 0 0 Z " fill="#D1D2D1" transform="translate(257,49)"/>
<path d="M0 0 C0.94875 0.04125 1.8975 0.0825 2.875 0.125 C3.205 1.115 3.535 2.105 3.875 3.125 C0.905 2.63 0.905 2.63 -2.125 2.125 C-2.125 3.115 -2.125 4.105 -2.125 5.125 C-0.145 5.785 1.835 6.445 3.875 7.125 C3.875 8.775 3.875 10.425 3.875 12.125 C1.565 12.455 -0.745 12.785 -3.125 13.125 C-3.785 11.805 -4.445 10.485 -5.125 9.125 C-2.815 9.785 -0.505 10.445 1.875 11.125 C1.875 10.135 1.875 9.145 1.875 8.125 C0.905625 7.8775 -0.06375 7.63 -1.0625 7.375 C-4.125 6.125 -4.125 6.125 -5.125 4.125 C-5.125 0.41389311 -3.38352144 0.13534086 0 0 Z " fill="#DADBDA" transform="translate(419.125,83.875)"/>
<path d="M0 0 C0.66 0.99 1.32 1.98 2 3 C-0.66666667 3 -3.33333333 3 -6 3 C-6.79953138 6.28696233 -7.09658936 7.71023192 -6 11 C-3.36 10.34 -0.72 9.68 2 9 C1.67 9.99 1.34 10.98 1 12 C-2.25 12.75 -2.25 12.75 -6 13 C-8.4375 11.4375 -8.4375 11.4375 -10 9 C-10.45319325 5.82764724 -10.52990283 3.93512264 -8.9375 1.125 C-5.90185629 -0.63763183 -3.42201828 -0.37331109 0 0 Z " fill="#DBDCDC" transform="translate(361,84)"/>
<path d="M0 0 C0.66 0.33 1.32 0.66 2 1 C1.67 1.99 1.34 2.98 1 4 C0.67 3.67 0.34 3.34 0 3 C-2.5 2.83333333 -2.5 2.83333333 -5 3 C-6.29633621 4.06645115 -6.29633621 4.06645115 -6.0625 6.5625 C-6.041875 7.366875 -6.02125 8.17125 -6 9 C-2.62182575 9.84454356 -0.32534757 10.10844919 3 9 C2 12 2 12 0 13 C-5.21653972 13.44396083 -5.21653972 13.44396083 -7.875 11.9375 C-9.64273274 8.8930714 -9.36823916 6.4368988 -9 3 C-6.82851715 -0.73977602 -4.0241372 -0.34247976 0 0 Z " fill="#D2D2D2" transform="translate(288,84)"/>
<path d="M0 0 C2.4375 0.1875 2.4375 0.1875 3.4375 1.1875 C3.625 4.125 3.625 4.125 3.4375 7.1875 C2.7775 7.8475 2.1175 8.5075 1.4375 9.1875 C-3.11805556 8.63194444 -3.11805556 8.63194444 -4.5625 7.1875 C-4.75 4.75 -4.75 4.75 -4.5625 2.1875 C-2.5625 0.1875 -2.5625 0.1875 0 0 Z " fill="#181818" transform="translate(377.5625,85.8125)"/>
<path d="M0 0 C2.5625 0.1875 2.5625 0.1875 4.5625 2.1875 C4.8125 4.6875 4.8125 4.6875 4.5625 7.1875 C3.9025 7.8475 3.2425 8.5075 2.5625 9.1875 C-1.99305556 8.63194444 -1.99305556 8.63194444 -3.4375 7.1875 C-3.5625 4.1875 -3.5625 4.1875 -3.4375 1.1875 C-2.4375 0.1875 -2.4375 0.1875 0 0 Z " fill="#181818" transform="translate(341.4375,85.8125)"/>
<path d="M0 0 C3.0625 0.1875 3.0625 0.1875 5.0625 2.1875 C4.50694444 6.74305556 4.50694444 6.74305556 3.0625 8.1875 C0.625 8.375 0.625 8.375 -1.9375 8.1875 C-3.9375 6.1875 -3.9375 6.1875 -4.125 3.625 C-3.8509967 0.06295712 -3.62735131 0.23153306 0 0 Z " fill="#191919" transform="translate(303.9375,55.8125)"/>
<path d="M0 0 C3 0.125 3 0.125 4 1.125 C4.125 4.125 4.125 4.125 4 7.125 C3 8.125 3 8.125 0 8.25 C-3 8.125 -3 8.125 -4 7.125 C-4.125 4.125 -4.125 4.125 -4 1.125 C-3 0.125 -3 0.125 0 0 Z " fill="#151515" transform="translate(326,55.875)"/>
<path d="M0 0 C2.5625 0.1875 2.5625 0.1875 4.5625 2.1875 C4.00694444 6.74305556 4.00694444 6.74305556 2.5625 8.1875 C0.125 8.375 0.125 8.375 -2.4375 8.1875 C-3.0975 7.5275 -3.7575 6.8675 -4.4375 6.1875 C-3.71780303 0.28598485 -3.71780303 0.28598485 0 0 Z " fill="#141414" transform="translate(281.4375,55.8125)"/>
<path d="M0 0 C0.99 0 1.98 0 3 0 C4.13058134 3.39174401 3.90742601 3.8232491 2.5625 6.9375 C1.21847257 10.06552798 1 11.39665325 1 15 C0.34 15 -0.32 15 -1 15 C-1 14.34 -1 13.68 -1 13 C-1.66 13 -2.32 13 -3 13 C-3.33 13.99 -3.66 14.98 -4 16 C-5 14 -5 14 -4.00390625 10.7421875 C-3.53110016 9.4502948 -3.05028031 8.16131362 -2.5625 6.875 C-2.31951172 6.21628906 -2.07652344 5.55757813 -1.82617188 4.87890625 C-1.22421679 3.25008662 -0.61297588 1.62470425 0 0 Z " fill="#1E1E1E" transform="translate(108,71)"/>
<path d="M0 0 C3.63 0 7.26 0 11 0 C10.67 1.65 10.34 3.3 10 5 C3.07 4.67 -3.86 4.34 -11 4 C-11 3.67 -11 3.34 -11 3 C-10.28972656 2.95101562 -9.57945312 2.90203125 -8.84765625 2.8515625 C-7.46900391 2.73941406 -7.46900391 2.73941406 -6.0625 2.625 C-5.14597656 2.55539063 -4.22945312 2.48578125 -3.28515625 2.4140625 C-2.15400391 2.20910156 -2.15400391 2.20910156 -1 2 C-0.67 1.34 -0.34 0.68 0 0 Z " fill="#383838" transform="translate(203,84)"/>
<path d="M0 0 C1.8125 1.4375 1.8125 1.4375 2.8125 6.4375 C-0.8175 6.1075 -4.4475 5.7775 -8.1875 5.4375 C-6.1875 1.4375 -6.1875 1.4375 -4.3125 0.0625 C-2.1875 -0.5625 -2.1875 -0.5625 0 0 Z " fill="#C1C2C2" transform="translate(410.1875,84.5625)"/>
<path d="M0 0 C1.1484375 1.609375 1.1484375 1.609375 2 4 C1.1015625 7.015625 1.1015625 7.015625 -0.375 10.25 C-0.85710937 11.32765625 -1.33921875 12.4053125 -1.8359375 13.515625 C-2.22007813 14.33546875 -2.60421875 15.1553125 -3 16 C-3.99 15.67 -4.98 15.34 -6 15 C-2.5 2.5 -2.5 2.5 0 0 Z " fill="#141414" transform="translate(109,58)"/>
<path d="M0 0 C0.33 1.32 0.66 2.64 1 4 C-1.97 4 -4.94 4 -8 4 C-7.67 4.99 -7.34 5.98 -7 7 C-3.95613276 7.08226668 -1.92824652 6.97608217 1 6 C0.34 7.32 -0.32 8.64 -1 10 C-6.625 10.25 -6.625 10.25 -10 8 C-10.1875 4.375 -10.1875 4.375 -10 1 C-9.67 1.66 -9.34 2.32 -9 3 C-6.03 3 -3.06 3 0 3 C0 2.01 0 1.02 0 0 Z " fill="#E2E3E3" transform="translate(275,87)"/>
<path d="M0 0 C1.49080078 0.16628906 1.49080078 0.16628906 3.01171875 0.3359375 C3.77097656 0.43132812 4.53023437 0.52671875 5.3125 0.625 C4.673125 0.934375 4.03375 1.24375 3.375 1.5625 C1.37639179 2.4595163 1.37639179 2.4595163 0.3125 3.625 C-2.55017567 3.69825168 -5.388219 3.71738205 -8.25 3.6875 C-9.05630859 3.68298828 -9.86261719 3.67847656 -10.69335938 3.67382812 C-12.69143756 3.66200518 -14.68947783 3.64406914 -16.6875 3.625 C-16.6875 3.295 -16.6875 2.965 -16.6875 2.625 C-13.70898438 2.33203125 -13.70898438 2.33203125 -10.73046875 2.0390625 C-0.42380618 -0.04985955 -0.42380618 -0.04985955 0 0 Z " fill="#3D3D3D" transform="translate(132.6875,84.375)"/>
<path d="M0 0 C0.33 0 0.66 0 1 0 C1.35198762 5.05982205 -0.06630018 7.26441567 -3.14453125 11.125 C-5.9550395 13.96509255 -9.12628944 15.95104213 -13 17 C-13.99 16.67 -14.98 16.34 -16 16 C-15.46375 15.7525 -14.9275 15.505 -14.375 15.25 C-7.34916499 11.5521921 -2.62091617 7.64433884 0 0 Z " fill="#C7C8C7" transform="translate(460,107)"/>
<path d="M0 0 C0.66 0 1.32 0 2 0 C0.1668733 5.99932374 -2.07321751 11.44920563 -5 17 C-6.14153078 14.15992644 -5.99776303 12.99306176 -5.0390625 10.01953125 C-4.33910156 8.43205078 -4.33910156 8.43205078 -3.625 6.8125 C-3.16351563 5.74644531 -2.70203125 4.68039063 -2.2265625 3.58203125 C-1 1 -1 1 0 0 Z " fill="#CFCFCF" transform="translate(106,58)"/>
<path d="M0 0 C0.33 0 0.66 0 1 0 C1 2.31 1 4.62 1 7 C-1.70484687 8.35242344 -3.9993319 8 -7 8 C-7.99 8.33 -8.98 8.66 -10 9 C-10.73323796 11.01508358 -10.73323796 11.01508358 -11 13 C-11.36337162 9.72965541 -11.28544288 8.39116247 -9.3125 5.6875 C-6.59648169 3.7055407 -5.28838577 3.55562354 -2 4 C-1.67 4.33 -1.34 4.66 -1 5 C-0.67 3.35 -0.34 1.7 0 0 Z " fill="#C0C1C0" transform="translate(330,49)"/>
<path d="M0 0 C-3 2 -3 2 -5.8125 3.1875 C-11.08638908 6.18637811 -14.45353101 10.534701 -17 16 C-18 13 -18 13 -17.03125 10.87890625 C-12.82922733 4.52227502 -8.4297625 -1.02178939 0 0 Z " fill="#CDCECD" transform="translate(71,24)"/>
<path d="M0 0 C1.9375 0.5625 1.9375 0.5625 4 2 C4.75 5.625 4.75 5.625 5 9 C3.35 9 1.7 9 0 9 C-0.87890625 2.84765625 -0.87890625 2.84765625 -1 1 C-0.67 0.67 -0.34 0.34 0 0 Z " fill="#1D1D1D" transform="translate(222,87)"/>
<path d="M0 0 C1.98 0 3.96 0 6 0 C6 0.66 6 1.32 6 2 C5.01 2.66 4.02 3.32 3 4 C2.42006301 6.19454681 2.42006301 6.19454681 2.3125 8.625 C2.21388672 9.85089844 2.21388672 9.85089844 2.11328125 11.1015625 C2.05720703 12.04128906 2.05720703 12.04128906 2 13 C1.34 13 0.68 13 0 13 C0 8.71 0 4.42 0 0 Z " fill="#E0E1E1" transform="translate(257,84)"/>
<path d="M0 0 C3.63 0 7.26 0 11 0 C11 0.66 11 1.32 11 2 C7.86501708 3.85776765 5.62528568 4.20140476 2 4 C1.34 2.68 0.68 1.36 0 0 Z " fill="#3B3B3B" transform="translate(402,91)"/>
<path d="M0 0 C-0.99 0.495 -0.99 0.495 -2 1 C-2 1.66 -2 2.32 -2 3 C-1.34 3.33 -0.68 3.66 0 4 C-5.28 4 -10.56 4 -16 4 C-15.67 3.34 -15.34 2.68 -15 2 C-12.36 2 -9.72 2 -7 2 C-7 1.34 -7 0.68 -7 0 C-3.86650268 -1.04449911 -3.01031744 -0.93423645 0 0 Z " fill="#BABABA" transform="translate(114,89)"/>
<path d="M0 0 C0 0.99 0 1.98 0 3 C-0.99 3.33 -1.98 3.66 -3 4 C-3.33 6.97 -3.66 9.94 -4 13 C-4.66 13 -5.32 13 -6 13 C-6 9.04 -6 5.08 -6 1 C-2 0 -2 0 0 0 Z " fill="#F0F1F0" transform="translate(297,53)"/>
<path d="M0 0 C1.7607347 2.64110204 3.00960644 5.03305734 4.25 7.9375 C4.62640625 8.79214844 5.0028125 9.64679688 5.390625 10.52734375 C6 13 6 13 5.109375 15.31640625 C4.74328125 15.87199219 4.3771875 16.42757812 4 17 C3.13227971 14.92227529 2.28126381 12.83756823 1.4375 10.75 C0.96183594 9.58984375 0.48617187 8.4296875 -0.00390625 7.234375 C-0.95770524 4.13733356 -1.20983356 2.92678299 0 0 Z " fill="#CCCCCC" transform="translate(223,78)"/>
<path d="M0 0 C0.33 0 0.66 0 1 0 C1.1875 2.375 1.1875 2.375 1 5 C0.01 5.66 -0.98 6.32 -2 7 C-2.33 7.33 -2.66 7.66 -3 8 C-4.66617115 8.04063832 -6.33388095 8.042721 -8 8 C-8.33 6.68 -8.66 5.36 -9 4 C-6.03 4 -3.06 4 0 4 C0 2.68 0 1.36 0 0 Z " fill="#4B4B4B" transform="translate(276,87)"/>
<path d="M0 0 C0.66 0 1.32 0 2 0 C2.33 1.65 2.66 3.3 3 5 C5.64 5.33 8.28 5.66 11 6 C10.67 6.66 10.34 7.32 10 8 C3.9453125 8.1953125 3.9453125 8.1953125 2 8 C0 6 0 6 -0.125 2.875 C-0.08375 1.92625 -0.0425 0.9775 0 0 Z " fill="#D3D4D4" transform="translate(320,58)"/>
<path d="M0 0 C0.66 0.66 1.32 1.32 2 2 C1.34 2.66 0.68 3.32 0 4 C2.64 4 5.28 4 8 4 C8 4.66 8 5.32 8 6 C5.03 6 2.06 6 -1 6 C-1 6.99 -1 7.98 -1 9 C-1.66 9 -2.32 9 -3 9 C-3.36923077 3.46153846 -3.36923077 3.46153846 -1.5 1.125 C-1.005 0.75375 -0.51 0.3825 0 0 Z " fill="#D8D9D9" transform="translate(338,54)"/>
<path d="M0 0 C0.66 0.33 1.32 0.66 2 1 C1.67 1.99 1.34 2.98 1 4 C0.67 3.67 0.34 3.34 0 3 C-2.37221956 2.49864801 -2.37221956 2.49864801 -5 3 C-7.33630748 5.39859044 -7.33630748 5.39859044 -9 8 C-9.22223194 5.25913944 -9.34781139 3.56036279 -7.875 1.1875 C-5.18909098 -0.51357571 -3.11342901 -0.26497268 0 0 Z " fill="#E4E5E5" transform="translate(288,84)"/>
<path d="M0 0 C2.97 0 5.94 0 9 0 C9.33 0.99 9.66 1.98 10 3 C6.37 3 2.74 3 -1 3 C-0.67 2.01 -0.34 1.02 0 0 Z " fill="#090909" transform="translate(194,84)"/>
<path d="M0 0 C1.7325 0.1546875 1.7325 0.1546875 3.5 0.3125 C4.16 1.3025 4.82 2.2925 5.5 3.3125 C2.5 3.3125 2.5 3.3125 0 3.0625 C-2.66642268 3.04697735 -2.66642268 3.04697735 -4.3125 5.3125 C-4.704375 5.9725 -5.09625 6.6325 -5.5 7.3125 C-5.625 4.9375 -5.625 4.9375 -5.5 2.3125 C-3.5 0.3125 -3.5 0.3125 0 0 Z " fill="#E2E3E3" transform="translate(357.5,83.6875)"/>
<path d="M0 0 C2.97 0 5.94 0 9 0 C9.33 0.99 9.66 1.98 10 3 C6.37 3 2.74 3 -1 3 C-0.67 2.01 -0.34 1.02 0 0 Z " fill="#080808" transform="translate(118,84)"/>
<path d="M0 0 C0.66 0.99 1.32 1.98 2 3 C-1.33333333 3 -4.66666667 3 -8 3 C-8 2.01 -8 1.02 -8 0 C-5.06791253 -1.46604374 -3.11702298 -0.77925574 0 0 Z " fill="#CECFCF" transform="translate(308,54)"/>
<path d="M0 0 C0.99 1.485 0.99 1.485 2 3 C2.33 2.67 2.66 2.34 3 2 C4.66617115 1.95936168 6.33388095 1.957279 8 2 C8.33 3.32 8.66 4.64 9 6 C2.25 6.125 2.25 6.125 0 5 C0 3.35 0 1.7 0 0 Z " fill="#C4C5C4" transform="translate(276,51)"/>
<path d="M0 0 C1.4540625 0.0309375 1.4540625 0.0309375 2.9375 0.0625 C3.2675 1.0525 3.5975 2.0425 3.9375 3.0625 C0.9675 2.5675 0.9675 2.5675 -2.0625 2.0625 C-2.3925 3.3825 -2.7225 4.7025 -3.0625 6.0625 C-3.7225 5.7325 -4.3825 5.4025 -5.0625 5.0625 C-3.9375 0.08035714 -3.9375 0.08035714 0 0 Z " fill="#D2D3D3" transform="translate(419.0625,83.9375)"/>
<path d="M0 0 C0.66 0 1.32 0 2 0 C1.67 2.31 1.34 4.62 1 7 C1.66 7 2.32 7 3 7 C3 9.31 3 11.62 3 14 C2.01 14 1.02 14 0 14 C0 9.38 0 4.76 0 0 Z " fill="#EDEEEE" transform="translate(275,49)"/>
<path d="M0 0 C0.33 0 0.66 0 1 0 C1.33 2.31 1.66 4.62 2 7 C-1.4352048 9.29013653 -2.985331 9.17842973 -7 9 C-7 8.34 -7 7.68 -7 7 C-5.02 6.34 -3.04 5.68 -1 5 C-0.67 3.35 -0.34 1.7 0 0 Z " fill="#C0C1C0" transform="translate(381,88)"/>
<path d="M0 0 C0.78375 0.04125 1.5675 0.0825 2.375 0.125 C1.570625 0.74375 0.76625 1.3625 -0.0625 2 C-2.66374519 3.86664041 -2.66374519 3.86664041 -3.625 6.125 C-0.985 6.125 1.655 6.125 4.375 6.125 C4.375 6.455 4.375 6.785 4.375 7.125 C-0.08 7.62 -0.08 7.62 -4.625 8.125 C-4.75 5.25 -4.75 5.25 -4.625 2.125 C-2.625 0.125 -2.625 0.125 0 0 Z " fill="#F1F2F1" transform="translate(405.625,83.875)"/>
<path d="M0 0 C0.66 0.33 1.32 0.66 2 1 C1.01 3.97 0.02 6.94 -1 10 C-1.66 9.67 -2.32 9.34 -3 9 C-2.25 2.25 -2.25 2.25 0 0 Z " fill="#C7C7C7" transform="translate(338,84)"/>
<path d="M0 0 C2.31 0 4.62 0 7 0 C7.33 0.99 7.66 1.98 8 3 C5.03 3 2.06 3 -1 3 C-0.67 2.01 -0.34 1.02 0 0 Z " fill="#191919" transform="translate(134,86)"/>
<path d="M0 0 C1.98 0 3.96 0 6 0 C5.34 1.32 4.68 2.64 4 4 C2.02 4 0.04 4 -2 4 C-1.34 2.68 -0.68 1.36 0 0 Z " fill="#181818" transform="translate(188,84)"/>
<path d="M0 0 C1.99097846 2.98646769 2.94124926 5.59687262 4 9 C2.35 8.67 0.7 8.34 -1 8 C-1.93065133 5.39417629 -2.14917407 4.35801776 -1.0625 1.75 C-0.711875 1.1725 -0.36125 0.595 0 0 Z " fill="#242424" transform="translate(221,79)"/>
<path d="M0 0 C0.66 0 1.32 0 2 0 C2.36 5.4 2.36 5.4 0.875 7.875 C-1.78034983 9.4682099 -3.96789518 9.20214032 -7 9 C-6.38125 8.71125 -5.7625 8.4225 -5.125 8.125 C-2.86674235 7.06279958 -2.86674235 7.06279958 -1 5 C-0.35232207 2.42938689 -0.35232207 2.42938689 0 0 Z " fill="#E0E1E1" transform="translate(309,57)"/>
<path d="M0 0 C3.3 0 6.6 0 10 0 C7 3 7 3 3.8125 3.1875 C2.4203125 3.0946875 2.4203125 3.0946875 1 3 C0.67 2.01 0.34 1.02 0 0 Z " fill="#191919" transform="translate(338,61)"/>
<path d="M0 0 C2.25 0.375 2.25 0.375 4 1 C4.33 1.66 4.66 2.32 5 3 C0.38 3 -4.24 3 -9 3 C-4.41176471 -0.44117647 -4.41176471 -0.44117647 0 0 Z " fill="#AEAFAE" transform="translate(218,90)"/>
<path d="M0 0 C0.66 1.32 1.32 2.64 2 4 C0.625 7.75 0.625 7.75 -1 11 C-1.66 10.67 -2.32 10.34 -3 10 C-2.01 6.7 -1.02 3.4 0 0 Z " fill="#C5C6C5" transform="translate(99,73)"/>
<path d="M0 0 C2.72727273 4.09090909 2.72727273 4.09090909 3 7 C1.5625 8.75 1.5625 8.75 0 10 C-2.21538462 4.58461538 -2.21538462 4.58461538 -1.125 1.625 C-0.75375 1.08875 -0.3825 0.5525 0 0 Z " fill="#222222" transform="translate(214,62)"/>
<path d="M0 0 C0.99 0 1.98 0 3 0 C3.33 0.99 3.66 1.98 4 3 C3.01 4.485 3.01 4.485 2 6 C1.34 5.67 0.68 5.34 0 5 C-0.33 5.99 -0.66 6.98 -1 8 C-2 6 -2 6 -1.0625 2.875 C-0.5365625 1.451875 -0.5365625 1.451875 0 0 Z " fill="#252525" transform="translate(108,71)"/>
<path d="M0 0 C0.99 0.66 1.98 1.32 3 2 C3 2.99 3 3.98 3 5 C1.35 5 -0.3 5 -2 5 C-2.33 3.68 -2.66 2.36 -3 1 C-2.01 0.67 -1.02 0.34 0 0 Z " fill="#141414" transform="translate(215,85)"/>
<path d="M0 0 C0.99 0.33 1.98 0.66 3 1 C4.1875 4.5625 4.1875 4.5625 5 8 C4.01 8.495 4.01 8.495 3 9 C2.01 6.03 1.02 3.06 0 0 Z " fill="#D6D6D6" transform="translate(213,58)"/>
<path d="M0 0 C2.625 -0.1875 2.625 -0.1875 5 0 C5.33 0.99 5.66 1.98 6 3 C3.36 3 0.72 3 -2 3 C-1.34 2.01 -0.68 1.02 0 0 Z " fill="#161616" transform="translate(339,56)"/>
<path d="M0 0 C1.5 1.3125 1.5 1.3125 3 3 C3 3.99 3 4.98 3 6 C0.69 6 -1.62 6 -4 6 C-3.01 5.34 -2.02 4.68 -1 4 C-0.27617533 1.94074861 -0.27617533 1.94074861 0 0 Z " fill="#F1F2F1" transform="translate(219,86)"/>
<path d="M0 0 C1.65 0 3.3 0 5 0 C5.33 0.99 5.66 1.98 6 3 C3.69 3 1.38 3 -1 3 C-0.67 2.01 -0.34 1.02 0 0 Z " fill="#151515" transform="translate(404,86)"/>
<path d="M0 0 C1.65 0 3.3 0 5 0 C5.33 0.99 5.66 1.98 6 3 C3.69 3 1.38 3 -1 3 C-0.67 2.01 -0.34 1.02 0 0 Z " fill="#151515" transform="translate(268,86)"/>
<path d="M0 0 C1.32 0.66 2.64 1.32 4 2 C4 2.99 4 3.98 4 5 C3.01 5.33 2.02 5.66 1 6 C0.34 4.35 -0.32 2.7 -1 1 C-0.67 0.67 -0.34 0.34 0 0 Z " fill="#151515" transform="translate(222,87)"/>
<path d="M0 0 C1.98 0 3.96 0 6 0 C5.34 1.32 4.68 2.64 4 4 C2.35 4 0.7 4 -1 4 C-0.34 3.34 0.32 2.68 1 2 C0.67 1.34 0.34 0.68 0 0 Z " fill="#1F1F1F" transform="translate(112,84)"/>
<path d="M0 0 C0.66 0 1.32 0 2 0 C1.38461538 5.53846154 1.38461538 5.53846154 -0.5625 7.875 C-1.036875 8.24625 -1.51125 8.6175 -2 9 C-1.51421457 5.87709365 -1.0013988 3.00419641 0 0 Z " fill="#DDDEDE" transform="translate(102,66)"/>
<path d="M0 0 C0.66 1.32 1.32 2.64 2 4 C1.01 5.485 1.01 5.485 0 7 C-0.99 6.67 -1.98 6.34 -3 6 C-2 4 -1 2 0 0 Z " fill="#1F1F1F" transform="translate(109,58)"/>
<path d="M0 0 C2.475 0.495 2.475 0.495 5 1 C5 1.99 5 2.98 5 4 C3.35 3.67 1.7 3.34 0 3 C0 2.01 0 1.02 0 0 Z " fill="#232323" transform="translate(416,91)"/>
<path d="M0 0 C0.28875 0.61875 0.5775 1.2375 0.875 1.875 C1.93720042 4.13325765 1.93720042 4.13325765 4 6 C4 6.99 4 7.98 4 9 C3.01 8.67 2.02 8.34 1 8 C-0.35439668 5.29120665 -0.06501451 2.99066732 0 0 Z " fill="#CECFCE" transform="translate(351,87)"/>
<path d="M0 0 C2.31 0.33 4.62 0.66 7 1 C6.67 1.66 6.34 2.32 6 3 C3.36 3 0.72 3 -2 3 C-1.34 2.01 -0.68 1.02 0 0 Z " fill="#EBECEC" transform="translate(101,89)"/>
<path d="M0 0 C0.66 0.33 1.32 0.66 2 1 C2 1.99 2 2.98 2 4 C1.34 4 0.68 4 0 4 C0.33 4.99 0.66 5.98 1 7 C0.01 7 -0.98 7 -2 7 C-1.125 1.125 -1.125 1.125 0 0 Z " fill="#171717" transform="translate(414,89)"/>
<path d="M0 0 C1.65 0 3.3 0 5 0 C5.33 1.32 5.66 2.64 6 4 C4.02 3.34 2.04 2.68 0 2 C0 1.34 0 0.68 0 0 Z " fill="#BCBCBC" transform="translate(339,53)"/>
<path d="M0 0 C0 0.99 0 1.98 0 3 C-0.928125 3.185625 -0.928125 3.185625 -1.875 3.375 C-4.19120832 3.87197356 -4.19120832 3.87197356 -6 6 C-6 4.35 -6 2.7 -6 1 C-3.92446352 0.4465236 -2.15634036 0 0 0 Z " fill="#DADADA" transform="translate(297,53)"/>
</svg>
