<svg width="53" height="31" viewBox="0 0 53 31" fill="none" xmlns="http://www.w3.org/2000/svg">
<path d="M51.741 27.7238C50.0118 27.7238 48.6227 26.3347 48.6227 24.6055V12.5154C48.6227 5.14505 43.9029 0 37.142 0C33.1734 0 29.4599 1.84258 27.3197 4.83323C25.222 1.80006 22.288 0 19.0564 0C12.9617 0 10.6372 4.83323 10.6372 4.83323V0.722859H0.914062V3.58595H1.77866C3.50785 3.58595 4.89687 4.97497 4.89687 6.70416V30.5869H14.62V27.7238H13.7554C12.0262 27.7238 10.6372 26.5757 10.6372 24.8607V12.4162C10.6372 8.44753 13.2735 5.31514 17.6532 5.31514C21.1683 5.31514 23.8896 8.17823 23.8896 12.2744V30.5869H33.6128V27.7238H32.7482C31.019 27.7238 29.63 26.3347 29.63 24.6055V12.4162C29.63 8.44753 32.2521 5.31514 36.6318 5.31514C40.2177 5.31514 42.8966 8.29162 42.8966 12.4162V30.5869H52.6056V27.7238H51.741Z" fill="white"/>
</svg>
