<svg width="717" height="479" viewBox="0 0 717 479" fill="none" xmlns="http://www.w3.org/2000/svg">
<path d="M528.159 275.839C523.037 225.14 499.561 208.95 484.195 208.95C470.535 208.098 449.623 217.471 448.77 243.46C447.916 269.449 474.806 280.952 494.867 280.952C510.916 280.952 521.188 280.384 524.319 280.1C525.03 293.307 526.453 319.807 526.453 320.148C526.453 320.489 520.477 320.858 517.489 321C517.062 318.586 515.355 312.564 511.941 307.793C507.672 301.828 491.026 303.106 473.526 299.272C456.026 295.437 427 278.396 427 246.016C427 213.637 448.772 194.006 472.244 189.352C534.561 176.997 546.085 253.259 550.78 257.945C554.537 261.695 561.736 261.496 564.866 260.928C565.435 262.774 566.659 267.233 567 270.301C554.195 273.283 540.963 274.987 528.159 275.839Z" fill="#171717"/>
<path d="M351.421 195.418L601.31 160.326L582.371 25.4577L332.481 60.5496L351.421 195.418ZM625.791 178.78L332.969 219.901L308 42.0988L600.823 0.977706L625.791 178.78Z" fill="#171717"/>
<path d="M351.422 195.418L601.311 160.327L582.372 25.4579L332.482 60.5498L351.422 195.418Z" fill="white"/>
<path d="M570.935 165.554L549.469 168.568C545.357 139.29 565.832 112.126 595.11 108.014L598.124 129.481C580.684 131.93 568.486 148.113 570.935 165.554Z" fill="#171717"/>
<path d="M590.832 77.5547C561.554 81.6662 534.389 61.1916 530.278 31.9136L551.745 28.899C554.194 46.3399 570.377 58.5372 587.817 56.088L590.832 77.5547Z" fill="#171717"/>
<path d="M339.137 112.9L336.122 91.4332C353.563 88.984 365.76 72.8012 363.311 55.3603L384.778 52.3457C388.889 81.6238 368.415 108.788 339.137 112.9Z" fill="#171717"/>
<path d="M403.969 189.001L382.502 192.015C380.053 174.574 363.87 162.377 346.429 164.826L343.415 143.359C372.693 139.248 399.857 159.722 403.969 189.001Z" fill="#171717"/>
<path d="M487.335 103.344C491.589 104.414 495.184 106.432 498.123 109.395C501.061 112.362 502.919 116.609 503.696 122.142C504.697 129.27 503.013 135.704 498.649 141.447C494.282 147.19 488.115 151.22 480.148 153.534L482.002 166.739L466.409 168.929L464.519 155.473C456.018 155.214 448.863 152.821 443.054 148.292C437.244 143.766 433.781 137.818 432.662 130.451L451.185 128.107C452.131 132.42 454.405 135.669 458.005 137.857C461.602 140.045 466.086 140.762 471.452 140.008C475.895 139.384 479.388 137.932 481.933 135.651C484.476 133.37 485.513 130.553 485.042 127.199C484.713 124.853 483.674 123.095 481.93 121.93C480.183 120.764 477.85 119.981 474.931 119.578C472.009 119.176 467.532 118.802 461.498 118.451C455.562 118.174 450.501 117.452 446.319 116.286C442.137 115.122 438.57 113.015 435.62 109.966C432.67 106.917 430.802 102.586 430.013 96.9661C429.071 90.2599 430.632 84.1838 434.697 78.7402C438.763 73.2952 444.57 69.4463 452.121 67.1875L450.249 53.857L465.843 51.6672L467.75 65.2499C475.496 65.6162 482.056 67.9008 487.436 72.1029C492.813 76.308 496.063 81.792 497.184 88.5605L478.699 91.1563C477.747 87.442 475.729 84.6273 472.639 82.709C469.548 80.7923 465.739 80.1517 461.211 80.7875C457.018 81.3764 453.789 82.7279 451.522 84.841C449.254 86.9543 448.35 89.6475 448.81 92.9167C449.139 95.2644 450.149 96.9819 451.84 98.0694C453.533 99.1579 455.816 99.9049 458.696 100.314C461.574 100.723 465.983 101.065 471.92 101.341C477.942 101.607 483.08 102.275 487.335 103.344Z" fill="#171717"/>
<path d="M220.353 466.001H216.79C209.217 466.001 203.078 459.862 203.078 452.289V396.604C203.078 368.678 180.439 346.04 152.514 346.04H146.474C118.549 346.04 95.9102 368.678 95.9102 396.604V478.453H120.783H138.058V466.001H134.495C126.922 466.001 120.783 459.862 120.783 452.289V397.673C120.783 381.816 133.637 368.961 149.494 368.961C165.35 368.961 178.205 381.816 178.205 397.673V478.453H203.078H220.353V466.001Z" fill="#171717"/>
<path d="M58.9213 211.654C42.9745 216.49 33.9339 233.398 38.7704 249.347L62.6562 328.108C67.4923 344.055 84.4024 353.095 100.349 348.259L179.111 324.373C195.059 319.537 204.098 302.627 199.262 286.68L175.376 207.919C170.54 191.971 153.631 182.931 137.683 187.768L58.9213 211.654ZM186.091 347.39L107.329 371.276C78.6907 379.961 48.3245 363.727 39.6394 335.089L15.7536 256.327C7.06806 227.687 23.3024 197.322 51.9411 188.637L130.703 164.751C159.343 156.065 189.707 172.299 198.393 200.938L222.279 279.7C230.964 308.339 214.731 338.705 186.091 347.39Z" fill="#171717"/>
<path d="M58.9238 211.654C42.977 216.49 33.9364 233.398 38.7729 249.347L62.6586 328.108C67.4948 344.055 84.4048 353.095 100.352 348.259L179.113 324.373C195.061 319.537 204.1 302.627 199.264 286.68L175.379 207.919C170.542 191.971 153.634 182.931 137.686 187.768L58.9238 211.654Z" fill="white"/>
<path d="M134.553 319.234C109.335 326.882 82.5985 312.588 74.9512 287.371L97.968 280.391C101.766 292.915 115.047 300.016 127.573 296.218C140.099 292.419 147.198 279.138 143.399 266.613L166.416 259.633C174.064 284.849 159.771 311.587 134.553 319.234Z" fill="#171717"/>
<path d="M639.5 67.5L626 50.5L662 20.5L676 37.5L639.5 67.5Z" fill="#171717"/>
<path d="M712.5 67.5C689.667 71.1667 643.8 78.5 643 78.5L645.5 99.5C668.667 96.3333 715.2 90 716 90C716.8 90 714 75 712.5 67.5Z" fill="#171717"/>
<path d="M690.5 121L645.5 111L641 133L685.5 142.5L690.5 121Z" fill="#171717"/>
<path d="M292.35 162.291L306.238 178.976L270.939 209.797L256.551 193.125L292.35 162.291Z" fill="#171717"/>
<path d="M219.369 163.974C242.112 159.782 287.798 151.393 288.597 151.375L285.614 130.438C262.527 134.138 216.152 141.542 215.352 141.56C214.552 141.579 217.697 156.51 219.369 163.974Z" fill="#171717"/>
<path d="M240.131 109.981L285.349 118.941L289.341 96.8434L244.634 88.3715L240.131 109.981Z" fill="#171717"/>
</svg>
