<?xml version="1.0" encoding="UTF-8"?>
<svg id="Capa_2" data-name="Capa 2" xmlns="http://www.w3.org/2000/svg" viewBox="0 0 160.77 214.08">
  <defs>
    <style>
      .cls-1, .cls-2 {
        stroke-width: 0px;
        fill: #171717;
      }

      .cls-2 {
        fill: #171717;
      }
    </style>
  </defs>
  <g id="Principal">
    <g>
      <g>
        <polygon class="cls-1" points="49.13 62.61 48.47 61.31 44.54 61.48 45.22 62.83 61.13 94.15 63.27 90.44 49.13 62.61"/>
        <polygon class="cls-1" points="21.7 62.4 20.78 61.19 16.59 61.47 17.58 62.78 52.65 108.83 54.55 105.54 21.7 62.4"/>
        <polygon class="cls-2" points="113.54 61.46 112.87 62.79 99.49 89.11 101.63 92.81 116.91 62.74 117.61 61.35 113.54 61.46"/>
        <polygon class="cls-1" points="140.98 61.36 140.02 62.61 108.27 104.31 110.17 107.61 144.33 62.76 145.37 61.39 140.98 61.36"/>
        <path class="cls-2" d="m159.8,42.92s0-.02,0-.03C149.65,17.06,116.46-.57,79.05.01,42.46.44,11.11,17.67,1.03,42.83c-1.69,3.85-1.28,8.25,1.11,12.1,2.91,4.67,8.22,7.72,13.85,7.95h.18l.75-.06.33-.02.32-.02,3.43-.24c.07,0,.16-.02.23-.03.16-.04.3-.08.45-.12.1-.02.19-.05.29-.07.09-.02.18-.05.29-.07,3.61-.98,6.74-2.94,8.92-5.61,3.01,3.54,7.71,5.87,12.79,6.22.06,0,.12,0,.18,0l.45-.02h.29s.3-.03.3-.03l3.48-.15c.07,0,.15,0,.21-.02.07-.02.14-.04.21-.05.09-.02.18-.05.28-.06s.19-.04.29-.06c3.86-.83,7.31-2.76,9.8-5.49,3.17,3.67,8.25,5.95,13.55,5.95h14.71c5.29,0,10.38-2.28,13.55-5.96,2.75,3.01,6.69,5.06,10.99,5.72.1.02.19.03.29.04.09.02.18.03.29.04.11.02.22.04.33.05.07,0,.15,0,.21,0l3.5-.09h.3s.31-.02.31-.02l.58-.02c.06,0,.13,0,.19-.02,4.45-.64,8.58-2.89,11.28-6.05,2.38,2.9,5.87,4.99,9.84,5.85.1.03.2.05.29.06.1.03.2.04.3.06.19.04.38.07.57.1.08,0,.16.02.24.02l3.5.03h1.58c.07,0,.16,0,.23,0,4.59-.63,8.75-2.87,11.42-6.18,3.27-4.04,4.09-9.01,2.24-13.65Zm-131.69-.02c-.57,2.18-1,4.18-1.32,6.12-.47,3.09-2.95,5.51-6.63,6.47-3.24.84-8.02.53-10.87-3.11,0,0-.03-.03-.04-.05-1.69-2.1-2.13-4.65-1.19-7.01,5.7-14.24,19.82-26.05,38.65-32.68-8.81,7.64-15.74,18.71-18.6,30.25Zm27.85,4.61c-.54,3.69-2.71,6.41-6.11,7.64-4.01,1.46-9.1.58-12.09-2.11-1.66-1.49-3.41-4.17-2.33-8.51,4-16.26,16.38-30.1,30.99-35.19-6,9.48-9.59,25.61-10.45,38.17Zm39.56,4.93c-1.67,2.19-4.39,3.4-7.87,3.49h-14.52c-2.73,0-5.33-.99-7.16-2.72l-.05-.05c-2.74-2.38-2.59-5.97-2.02-9.48,0-.05.02-.09.02-.15.84-11.41,7.42-34.48,15.25-36.4.34-.08.68-.13,1.02-.13,2.62,0,5.45,2.4,8.42,7.16,3.79,6.73,6.89,17.73,8.27,29.45,0,.06.03.14.04.2.81,3.26.3,6.4-1.39,8.62Zm28.01.04s-.03.04-.05.06c-3.44,3.87-8.66,3.87-12.09,2.69-3.88-1.34-6.33-4.19-6.56-7.68l-.06-.64c-.07-.86-.15-1.71-.24-2.6-2.06-15.88-3.91-25.31-10.37-34.98,12.38,4.29,22.84,14.26,28.5,27.4.16.38.31.76.47,1.15,2.1,5.21,4.26,10.59.39,14.59Zm27.74.29c-2.52,2.64-7.16,3.78-11.05,2.71-1.9-.52-5.21-2.07-6.22-6.49-2.03-13.84-9.64-27.4-19.89-36.33,18.78,6.63,32.89,18.42,38.61,32.63.94,2.91.44,5.49-1.45,7.48Z"/>
      </g>
      <g>
        <path class="cls-1" d="m69.41,119.98h-11.12c0,12.18,9.91,22.09,22.09,22.09s22.09-9.91,22.09-22.09h-11.12c0,6.05-4.92,10.97-10.97,10.97s-10.97-4.92-10.97-10.97Z"/>
        <path class="cls-1" d="m110.72,208.32c-3.5,0-6.34-2.84-6.34-6.34v-25.74c0-4.75-1.42-9.16-3.85-12.85-4.18-6.34-11.36-10.53-19.52-10.53h-2.79c-8.16,0-15.34,4.19-19.52,10.53-2.43,3.69-3.85,8.1-3.85,12.85v37.84h19.48v-5.76h-1.65c-3.5,0-6.34-2.84-6.34-6.34v-25.25c0-7.33,5.94-13.27,13.27-13.27s13.27,5.94,13.27,13.27v37.34h19.48v-5.76h-1.65Z"/>
        <path class="cls-1" d="m128,133.42l-11.18-19.35-3.17-5.48-7.64-13.22-3.54-6.14-4.79-8.3c-3.61-6.26-10.08-10-17.3-10s-13.69,3.74-17.31,10l-5.76,9.97-3.54,6.15-7.56,13.1-3.16,5.48-10.28,17.8c-3.61,6.26-3.61,13.73,0,19.98,3.61,6.26,10.08,10,17.31,10h60.63c7.23,0,13.69-3.74,17.3-10,3.61-6.26,3.61-13.73,0-19.98Zm-9.63,14.43c-1.6,2.77-4.47,4.43-7.67,4.43h-60.63c-3.2,0-6.08-1.66-7.68-4.43-1.6-2.78-1.6-6.09,0-8.86l30.32-52.51c1.6-2.77,4.47-4.43,7.67-4.43s6.08,1.66,7.68,4.43l30.31,52.51c1.6,2.77,1.6,6.08,0,8.86Z"/>
      </g>
    </g>
  </g>
</svg>