<?xml version="1.0" encoding="UTF-8"?>
<svg id="Capa_2" data-name="Capa 2" xmlns="http://www.w3.org/2000/svg" viewBox="0 0 491.5 285.84">
  <defs>
    <style>
      .cls-1 {
        stroke-width: 0px;
      }
    </style>
  </defs>
  <g id="Capa_8" data-name="Capa 8">
    <g id="Súmate_al_equipo" data-name="Súmate al equipo">
      <g>
        <g>
          <path class="cls-1" d="m357.88,189.83c6.31-.02,9.73,2.98,10.45,9.17l.11.93,6.18-.1-.17-10.27"/>
          <g>
            <path class="cls-1" d="m374.37,190.18c-15.05.29-37.77-.95-49.45-11.47-14.53-12.55-16.14-33.6-3.9-48.32,9.71-12.24,26.33-17.13,40.69-10.09,3.07,1.42,5.94,3.3,8.57,5.43,3.57,2.96,6.32,6.57,8.62,10.41,6.21,10.76,9.41,22.58,11.37,34.68l-15.33,1.66c-.02-.28-.08-.88-.11-1.16-1.16-9.61-3.46-19.64-8.11-28.09-1.66-2.93-3.6-5.67-6.21-7.65-1.44-1.14-3-2.23-4.67-2.99-8.59-4.44-18.39-1.43-24.53,6.25-10.29,12.52-4.21,29.71,11.28,33.76,9.37,2.67,19.71,2.92,29.48,2.3l1.2-.1,1.09,15.38Z"/>
            <path class="cls-1" d="m386.5,154.53c1.29,6.18,4.93,8.91,11.13,8.33l.94-.09,1.18,6.07-10.09,1.96"/>
            <rect class="cls-1" x="446.44" y="45.74" width="44.3" height="14" transform="translate(-2.76 66.33) rotate(-8.07)"/>
            <rect class="cls-1" x="436.32" y="20.83" width="29.81" height="14" transform="translate(88.79 298.05) rotate(-40.24)"/>
            <rect class="cls-1" x="453.21" y="65.18" width="14" height="29" transform="translate(287.51 513.65) rotate(-78.12)"/>
            <rect class="cls-1" x="180.82" y="84.7" width="44.3" height="14" transform="translate(-12.85 36.66) rotate(-10.01)"/>
            <rect class="cls-1" x="206.26" y="109.01" width="29.81" height="14" transform="translate(-20.63 178.51) rotate(-42.17)"/>
            <rect class="cls-1" x="203.44" y="49.98" width="14" height="29" transform="translate(110.57 260.61) rotate(-80.05)"/>
          </g>
        </g>
        <g>
          <path class="cls-1" d="m435.32,112.29l-184.92,25.52-15.5-112.29L419.83,0l15.5,112.29Zm-173.24,10.1l157.81-21.78-11.76-85.17-157.81,21.78,11.76,85.17Z"/>
          <path class="cls-1" d="m400.71,103.85l-13.56,1.87c-2.55-18.49,10.41-35.61,28.9-38.16l1.87,13.56c-11.01,1.52-18.74,11.72-17.22,22.73Z"/>
          <path class="cls-1" d="m413.4,48.33c-18.49,2.55-35.61-10.41-38.16-28.9l13.56-1.87c1.52,11.01,11.72,18.74,22.73,17.22l1.87,13.56Z"/>
          <path class="cls-1" d="m254.45,70.27l-1.87-13.56c11.01-1.52,18.74-11.72,17.22-22.73l13.56-1.87c2.55,18.49-10.41,35.61-28.9,38.16Z"/>
          <path class="cls-1" d="m295.27,118.41l-13.56,1.87c-1.52-11.01-11.72-18.74-22.73-17.22l-1.87-13.56c18.49-2.55,35.61,10.41,38.16,28.9Z"/>
          <path class="cls-1" d="m348.03,64.46c2.68.68,4.95,1.96,6.8,3.84,1.85,1.88,3.02,4.56,3.5,8.06.62,4.5-.45,8.56-3.22,12.18-2.77,3.62-6.66,6.15-11.7,7.6l1.15,8.34-9.85,1.36-1.17-8.5c-5.37-.18-9.88-1.7-13.54-4.57-3.66-2.87-5.84-6.63-6.53-11.28l11.7-1.45c.59,2.72,2.02,4.78,4.29,6.17,2.27,1.39,5.1,1.85,8.49,1.38,2.81-.39,5.01-1.3,6.62-2.73,1.61-1.44,2.27-3.21,1.98-5.33-.2-1.48-.86-2.59-1.96-3.33-1.1-.74-2.57-1.24-4.41-1.49-1.84-.26-4.67-.5-8.48-.73-3.75-.18-6.94-.65-9.58-1.39-2.64-.74-4.89-2.08-6.74-4.01-1.86-1.93-3.03-4.67-3.52-8.21-.58-4.24.41-8.07,2.98-11.5,2.57-3.43,6.25-5.85,11.02-7.27l-1.16-8.42,9.85-1.36,1.18,8.58c4.89.24,9.03,1.7,12.42,4.36,3.39,2.66,5.43,6.13,6.13,10.4l-11.67,1.61c-.6-2.35-1.86-4.13-3.81-5.34-1.95-1.21-4.35-1.62-7.21-1.23-2.65.37-4.69,1.21-6.12,2.54-1.44,1.33-2.01,3.03-1.72,5.09.2,1.48.84,2.57,1.91,3.26,1.07.69,2.51,1.16,4.32,1.43,1.82.26,4.6.49,8.35.67,3.8.18,7.04.61,9.73,1.29Z"/>
        </g>
      </g>
      <g>
        <path class="cls-1" d="m131.79,278.68h-2.05c-4.35,0-7.88-3.53-7.88-7.88v-31.99c0-16.04-13.01-29.05-29.05-29.05h-3.47c-16.04,0-29.05,13.01-29.05,29.05v47.03h24.22v-7.15h-2.05c-4.35,0-7.88-3.53-7.88-7.88v-31.38c0-9.11,7.39-16.5,16.5-16.5h0c9.11,0,16.5,7.39,16.5,16.5v46.41h24.22v-7.15Z"/>
        <g>
          <path class="cls-1" d="m151.44,120.49l-76.1-45.43c-4.82-2.88-11.02-1.89-14.68,2.37L2.82,144.33c-3.19,3.69-3.64,8.83-1.51,12.91.66,1.25,1.55,2.42,2.69,3.41,3.99,3.46,9.67,3.69,13.87.93l5.18,32.34c.34,2.09.84,4.1,1.53,6.03,1.35,3.95,3.36,7.54,5.9,10.69,3.92,4.89,9.07,8.66,14.88,10.97,3.47,1.36,7.17,2.22,11,2.42,1.69.1,3.42.08,5.16-.1.87-.05,1.72-.16,2.59-.3l53.66-8.6c.88-.14,1.75-.31,2.61-.53,1.69-.38,3.31-.89,4.89-1.51,3.57-1.39,6.81-3.35,9.68-5.73,4.83-4.01,8.55-9.22,10.73-15.1,1.43-3.8,2.22-7.88,2.25-12.06.02-2.01-.12-4.05-.45-6.1l-5.2-32.47c1.67.51,3.41.61,5.1.34,3.25-.52,6.27-2.44,8.1-5.5.86-1.43,1.36-2.97,1.53-4.51l.03-.02c.52-4.41-1.51-8.9-5.57-11.33Zm-19.65,55.99c1.74,10.87-5.68,21.12-16.55,22.86l-53.66,8.6c-10.87,1.74-21.11-5.68-22.85-16.55l-7.2-44.93,40.29-46.59,52.73,31.5,7.23,45.11Z"/>
          <path class="cls-1" d="m111.01,200.03l-14.04,2.25c-.09-.36-.16-.71-.22-1.08l-6.11-38.1c-.07-.43-.36-.72-.49-.81-.15-.12-.49-.29-.92-.22l-14.58,2.34c-.38.06-.6.27-.74.4l-.06.1c-.12.15-.31.49-.24.93l6.11,38.1c.06.38.1.73.13,1.1l-14.01,2.25c.1-.07.18-.19.23-.25.13-.16.31-.49.24-.94l-6.11-38.1c-.63-3.91.3-7.84,2.71-11.16l.12-.16c2.32-3.06,5.69-5.08,9.46-5.68l14.59-2.34c3.88-.62,7.8.31,11.02,2.63,3.22,2.33,5.34,5.76,5.96,9.69l6.11,38.1c.07.45.34.7.5.82.06.05.19.13.31.16Z"/>
        </g>
      </g>
    </g>
  </g>
</svg>