<svg width="694" height="375" viewBox="0 0 694 375" fill="none" xmlns="http://www.w3.org/2000/svg">
<path d="M309.092 240.962H463.087V42.0999H309.092V240.962ZM486.188 264.062H285.992V18.9998H486.188V264.062Z" fill="#171717"/>
<path d="M309.094 240.963H463.088V42.1003H309.094V240.963Z" fill="white"/>
<path d="M351.682 116.532H420.494V83.6624H351.682V116.532ZM443.595 139.632H328.582V60.5611H443.595V139.632Z" fill="#171717"/>
<path d="M420.555 158.095H443.533V181.073H420.555V158.095Z" fill="#171717"/>
<path d="M374.602 158.095H397.58V181.073H374.602V158.095Z" fill="#171717"/>
<path d="M420.555 199.442H443.533V222.421H420.555V199.442Z" fill="#171717"/>
<path d="M374.602 199.442H397.58V222.421H374.602V199.442Z" fill="#171717"/>
<path d="M328.645 158.095H351.623V181.073H328.645V158.095Z" fill="#171717"/>
<path d="M328.645 199.442H351.623V222.421H328.645V199.442Z" fill="#171717"/>
<path d="M455.181 361.877H451.618C444.045 361.877 437.906 355.738 437.906 348.165V292.48C437.906 264.554 415.268 241.916 387.342 241.916H381.302C353.377 241.916 330.738 264.554 330.738 292.48V374.329H355.612H372.886V361.877H369.324C361.75 361.877 355.612 355.738 355.612 348.165V293.549C355.612 277.692 368.465 264.837 384.322 264.837C400.18 264.837 413.033 277.692 413.033 293.549V374.329H437.906H455.181V361.877Z" fill="#171717"/>
<path d="M214.927 361.961H211.364C203.791 361.961 197.652 355.822 197.652 348.249V292.564C197.652 264.638 175.014 242 147.088 242H141.048C113.123 242 90.4844 264.638 90.4844 292.564V374.413H115.358H132.632V361.961H129.07C121.496 361.961 115.358 355.822 115.358 348.249V293.633C115.358 277.776 128.211 264.921 144.068 264.921C159.926 264.921 172.779 277.776 172.779 293.633V374.413H197.652H214.927V361.961Z" fill="#171717"/>
<path d="M232.447 93.5322L26.6091 120.004C25.9268 120.092 25.4428 120.719 25.5305 121.401L42.0678 249.989C42.1555 250.671 42.7824 251.155 43.4648 251.068L249.303 224.595C249.985 224.508 250.469 223.881 250.381 223.198L233.844 94.6108C233.756 93.9285 233.13 93.4445 232.447 93.5322ZM252.194 247.077L46.356 273.549C33.2771 275.231 21.2683 265.959 19.5863 252.88L3.04902 124.293C1.36697 111.214 10.6389 99.2049 23.7179 97.5229L229.556 71.0507C242.635 69.3687 254.642 78.6408 256.324 91.7197L272.863 220.307C274.545 233.386 265.273 245.395 252.194 247.077Z" fill="#171717"/>
<path d="M232.447 93.532L26.6088 120.004C25.9264 120.092 25.4424 120.719 25.5301 121.401L42.0674 249.989C42.1551 250.671 42.782 251.155 43.4644 251.067L249.302 224.595C249.985 224.507 250.469 223.881 250.381 223.198L233.844 94.6106C233.756 93.9282 233.129 93.4442 232.447 93.532Z" fill="white"/>
<path d="M21.5195 179.072L18.6283 156.591L249.423 126.909L252.315 149.39L21.5195 179.072Z" fill="#171717"/>
<path d="M103.476 208.588L54.7383 214.855L51.847 192.374L100.584 186.106L103.476 208.588Z" fill="#171717"/>
<path d="M202.175 184.468C201.171 176.665 206.684 169.524 214.488 168.521C222.292 167.517 229.432 173.03 230.436 180.834C231.439 188.638 225.926 195.778 218.122 196.781C210.319 197.785 203.179 192.272 202.175 184.468Z" fill="#171717"/>
<path d="M636.492 348.964H631.43C623.856 348.964 619.992 345 617.718 335.252L609.992 288.5C604.492 254 585.092 241.455 557.167 241.455H551.127C523.201 241.455 500.562 264.093 500.562 292.019V373.868H525.436H542.711V361.416H539.148C531.575 361.416 525.436 355.277 525.436 347.704V293.088C525.436 277.231 538.291 264.376 554.147 264.376C570.004 264.376 579.992 270.5 584.992 298L598.492 366.5L618.492 363L638.492 359.5L636.492 348.964Z" fill="#171717"/>
<path d="M526.646 82.2192C483.699 92.3073 456.967 135.454 467.055 178.401C477.143 221.348 520.29 248.081 563.237 237.993C606.184 227.905 632.916 184.758 622.828 141.811C612.74 98.8636 569.593 72.1311 526.646 82.2192ZM568.519 260.482C513.172 273.483 457.567 239.03 444.567 183.684C431.566 128.337 466.017 72.732 521.364 59.7313C576.711 46.7305 632.315 81.1815 645.316 136.528C658.317 191.875 623.866 247.481 568.519 260.482Z" fill="#171717"/>
<path d="M526.648 82.2193C483.701 92.3073 456.968 135.454 467.056 178.401C477.144 221.348 520.291 248.081 563.238 237.993C606.185 227.905 632.918 184.758 622.83 141.811C612.742 98.8637 569.595 72.1312 526.648 82.2193Z" fill="white"/>
<path d="M589.732 171.324L552.488 180.073C542.63 182.389 532.726 176.253 530.41 166.395L517.911 113.182L540.4 107.899L551.816 156.502L584.449 148.837L589.732 171.324Z" fill="#171717"/>
<path d="M668.992 0L639.992 5L661.492 116.5L683.992 113L668.992 0Z" fill="#171717"/>
<circle cx="676.992" cy="142" r="17" fill="#171717"/>
</svg>
