<?xml version="1.0" encoding="UTF-8"?>
<svg id="Capa_2" data-name="Capa 2" xmlns="http://www.w3.org/2000/svg" viewBox="0 0 217.21 200.06">
  <defs>
    <style>
      .cls-1 {
        stroke-width: 0px;
        fill: #171717;
      }
    </style>
  </defs>
  <g id="Principal">
    <g>
      <path class="cls-1" d="m211.66,193.48c-1.72,1.19-3.34,2.07-6.41,2.07-3.52,0-5.13-1.14-7.16-2.59-2.28-1.62-4.83-3.43-9.77-3.43s-7.51,1.82-9.76,3.43c-2.04,1.45-3.65,2.59-7.16,2.59s-5.12-1.14-7.15-2.59c-2.28-1.62-4.84-3.43-9.78-3.43s-7.48,1.81-9.74,3.41c-2.05,1.47-3.65,2.61-7.17,2.61s-5.11-1.14-7.14-2.59c-2.26-1.61-4.81-3.43-9.77-3.43s-7.49,1.81-9.75,3.41c-2.05,1.47-3.65,2.61-7.17,2.61s-5.12-1.14-7.15-2.59c-2.28-1.62-4.84-3.43-9.78-3.43s-7.48,1.81-9.74,3.41c-2.05,1.47-3.65,2.61-7.17,2.61s-5.13-1.14-7.16-2.59c-2.28-1.62-4.83-3.43-9.76-3.43s-7.48,1.81-9.74,3.41c-2.05,1.47-3.65,2.61-7.17,2.61s-5.13-1.14-7.16-2.59c-2.28-1.62-4.83-3.43-9.76-3.43s-7.51,1.82-9.76,3.43c-2.04,1.45-3.65,2.59-7.16,2.59-1.24,0-2.25,1.01-2.25,2.25s1.01,2.25,2.25,2.25c4.94,0,7.49-1.81,9.75-3.41,2.05-1.47,3.65-2.61,7.17-2.61s5.11,1.14,7.14,2.59c2.26,1.61,4.81,3.43,9.77,3.43s7.48-1.81,9.74-3.41c2.05-1.47,3.65-2.61,7.17-2.61s5.11,1.14,7.14,2.59c2.26,1.61,4.81,3.43,9.78,3.43s7.48-1.81,9.74-3.41c2.05-1.47,3.65-2.61,7.17-2.61s5.12,1.14,7.15,2.59c2.28,1.62,4.84,3.43,9.78,3.43s7.51-1.82,9.76-3.43c2.04-1.45,3.65-2.59,7.16-2.59s5.13,1.14,7.16,2.59c2.28,1.61,4.83,3.43,9.76,3.43s7.48-1.81,9.74-3.41c2.05-1.47,3.65-2.61,7.17-2.61s5.13,1.14,7.16,2.59c2.28,1.61,4.83,3.43,9.77,3.43s7.49-1.81,9.75-3.41c2.05-1.47,3.65-2.61,7.17-2.61s5.12,1.14,7.15,2.59c2.28,1.62,4.84,3.43,9.78,3.43,4.42,0,6.94-1.45,9.03-2.91l-1.29-1.85-1.33-1.82Z"/>
      <path class="cls-1" d="m45.37,148.62c-7.12,0-9.43-5.47-10.09-7.82-1.63-5.83.44-13.98,7.57-18.27,3.15-1.94,4.53-5.14,3.67-8.55-.3-1.2-.87-2.39-1.64-3.44l-.69-.94,1.07-.48c4.75-2.13,6.11-6.28,5.35-9.46-.95-3.93-5.27-7.67-12.54-6.61-4.62.68-8.82,1.77-12.51,3.23l-3.74,1.49,2.7-2.99c12.22-13.55,32.9-19.87,51.49-15.75l.1.02c4.25.94,6.89,2.86,7.26,5.27.3,2-.94,4.03-2.25,4.76-.71.41-1.14,1.17-1.13,1.99.01.83.47,1.58,1.2,1.97,1.94,1.02,3.71,2.37,4.97,3.8,2.05,2.31,2.72,4.74,1.94,7.03-.72,2.12-2.41,3.34-3.67,3.57-.84.15-1.5-.08-2.03-.71-.09-.11-.18-.2-.28-.28-4.79-4.03-10.45-4.43-15.54-1.09-7.52,4.94-11.28,15.94-8.56,25.03.9,3,2.48,7.31,5.83,10.49h6.1c-4.48-2.7-6.17-7.11-7.57-11.79-2.33-7.78,1.59-16.61,6.71-19.97,3.34-2.19,6.78-1.99,9.97.58l.11.1c1.55,1.73,3.78,2.47,6.11,2.04,3.16-.58,5.96-3.15,7.12-6.54,1.31-3.82.28-8-2.83-11.49-.82-.93-1.78-1.81-2.85-2.63l-.68-.52.45-.73c1.19-1.93,1.7-4.24,1.38-6.32-.38-2.55-2.27-7.11-10.73-9.01-11.41-2.55-24.54-1.34-36.01,3.32-9.19,3.72-21.56,11.39-28.33,26.76l-.06.14-.1.11c-.35.38-.68.77-1.01,1.17-11.32,13.98-13.91,37.31-6.01,54.26,6.16,13.21,17.61,20.63,32.25,20.9,4.95,0,7.76-1.87,10.02-3.38,2.14-1.42,3.97-2.62,7.47-2.62s5.07,1.15,7.09,2.6c2.13,1.53,4.78,3.43,9.71,3.43s7.47-1.82,9.72-3.43c2.02-1.46,3.61-2.61,7.09-2.61s5.05,1.14,7.06,2.57c2.29,1.64,4.83,3.47,9.75,3.47s7.59-1.91,9.71-3.44c1.93-1.39,3.6-2.6,7.09-2.6s5.07,1.15,7.09,2.6c2.25,1.62,4.79,3.45,9.73,3.45s7.57-1.91,9.69-3.44c2.02-1.45,3.61-2.6,7.08-2.6s5.06,1.15,7.08,2.6c2.27,1.62,4.81,3.45,9.73,3.45s7.59-1.91,9.71-3.44c2.02-1.45,3.61-2.6,7.09-2.6s5.06,1.14,7.07,2.59c2.26,1.63,4.81,3.45,9.73,3.45s7.49-1.83,9.73-3.45c.49-.35.81-.87.9-1.47.09-.59-.05-1.19-.4-1.67-.74-1.01-2.16-1.23-3.16-.5-2.01,1.45-3.59,2.59-7.09,2.59s-5.07-1.14-7.09-2.59c-2.13-1.54-4.78-3.45-9.71-3.45s-7.47,1.83-9.71,3.44c-1.93,1.4-3.59,2.6-7.09,2.6s-5.08-1.14-7.09-2.59c-2.13-1.54-4.78-3.45-9.71-3.45s-7.58,1.91-9.71,3.45c-2,1.45-3.58,2.59-7.07,2.59s-5.07-1.14-7.08-2.58c-2.14-1.55-4.79-3.46-9.72-3.46s-7.47,1.83-9.71,3.45c-2.01,1.45-3.6,2.59-7.09,2.59s-5.08-1.14-7.09-2.59c-2.13-1.54-4.78-3.45-9.72-3.45s-7.43,1.82-9.68,3.42c-2.03,1.47-3.62,2.62-7.12,2.62s-5.05-1.15-7.07-2.6c-2.25-1.62-4.8-3.44-9.72-3.44s-7.71,1.87-9.97,3.38c-2.12,1.41-3.95,2.62-7.46,2.62-16.44-.31-24.42-10.12-28.23-18.3-7.23-15.49-4.89-36.78,5.43-49.53,4.95-6.11,12.67-9.86,23.62-11.47,4.48-.65,7.03,1.22,7.5,3.23.46,1.91-.9,3.66-3.55,4.56-.65.22-1.4.43-2.66.74-.46.12-.97.26-1.57.42l-.87.24c-1.06.29-1.75,1.31-1.64,2.42.12,1.1,1.01,1.95,2.12,2,1.63.09,3.63,2.01,4.12,3.95.38,1.5-.15,2.68-1.64,3.6-9.03,5.45-11.65,15.87-9.57,23.34,1.91,6.86,7.44,11.13,14.44,11.13h2c-.14-.63-.2-1.27-.18-1.92l.07-1.74c.01-.28.04-.56.08-.84h-1.98Z"/>
      <path class="cls-1" d="m206.56,159.15c4.92,0,7.46-1.82,9.7-3.42.5-.36.82-.88.92-1.47.1-.6-.04-1.19-.39-1.68-.73-1-2.14-1.24-3.15-.51-2.01,1.45-3.61,2.6-7.08,2.6-1.79,0-3.17-.29-4.54-.97l-5.26,1.98s.05.04.08.06c2.25,1.61,4.79,3.43,9.72,3.43Z"/>
      <g>
        <path class="cls-1" d="m213.28,138.51c-1.5-1.22-3.77-.72-5.6-.31l-.86.18c-1.78.36-3.57.74-5.33,1.12l-1.88.4c-7.51,1.63-15.27,3.31-23.8,3.92l-3.36.23c-.3.02-.6.03-.9.03l-3.07-.03c-.84,0-1.7-.02-2.57-.05h-.11s-4.88,0-4.88,0l-19.48-.02c-3.45,0-9.61,0-14.52,0h-4.04s-19.48-.02-19.48-.02h-8.22s-3.88-.01-6.5-.01h-29.94c-2.34-.09-4.55.55-6.26,1.78-1.33.96-2.13,2.36-2.19,3.86l-.07,1.74c-.05,1.41.53,2.73,1.64,3.72,1.59,1.39,3.75,2.19,6.11,2.28h5.26l-.3,1.04-.3,1.04-1.67,5.83c6.23,1.79,12.67-.75,16.14-5.83.23-.34.44-.69.64-1.04.19-.34.37-.69.53-1.04h72.17c.19,0,.38,0,.57.01,1.38.07,2.92.11,4.59.11,7.17,0,18.78-.69,29.89-2.64,2.99-.52,5.81-1.11,8.37-1.74.16-.04.31-.08.47-.13l6.77-2.04c.19-.06.38-.12.56-.19,6.71-2.48,10.79-5.51,12.12-9.01.71-1.91.06-2.74-.5-3.19Z"/>
        <g>
          <path class="cls-1" d="m128.11,0c-25.94,0-47.05,21.11-47.05,47.05,0,19.58,12.03,36.4,29.08,43.48,5.54,2.3,11.61,3.57,17.97,3.57s12.49-1.29,18.05-3.61c17.01-7.09,29-23.89,29-43.44,0-25.94-21.11-47.05-47.05-47.05Zm0,82.98c-19.81,0-35.93-16.12-35.93-35.93s16.12-35.93,35.93-35.93,35.93,16.12,35.93,35.93-16.12,35.93-35.93,35.93Z"/>
          <path class="cls-1" d="m150.2,50.69h-11.12c0,6.05-4.92,10.97-10.97,10.97s-10.97-4.92-10.97-10.97h-11.12c0,12.18,9.91,22.09,22.09,22.09s22.09-9.91,22.09-22.09Z"/>
          <path class="cls-1" d="m160.92,139.02v5.75h-19.49v-37.33c0-7.33-5.94-13.27-13.27-13.27s-13.27,5.94-13.27,13.27v25.24c0,3.5,2.84,6.34,6.35,6.34h1.64v5.75h-19.48v-37.83c0-6.41,2.57-12.2,6.75-16.42,4.23-4.3,10.13-6.96,16.63-6.96h2.79c3.24,0,6.34.65,9.14,1.86,2.81,1.19,5.33,2.92,7.45,5.06,4.19,4.22,6.78,10.03,6.78,16.45v25.74c0,3.5,2.83,6.34,6.34,6.34h1.65Z"/>
        </g>
      </g>
    </g>
  </g>
</svg>