<?xml version="1.0" encoding="UTF-8"?>
<svg id="Capa_2" data-name="Capa 2" xmlns="http://www.w3.org/2000/svg" viewBox="0 0 236.67 180.95">
  <defs>
    <style>
      .cls-1, .cls-2 {
        fill: #171717;
        stroke-width: 0px;
      }

      .cls-2 {
        fill: none;
      }
    </style>
  </defs>
  <g id="Principal">
    <g>
      <g>
        <path class="cls-2" d="m80.58,32.91l-.74-4.58-9.48,1.54c-2.18.35-4.1,1.54-5.39,3.33-1.29,1.79-1.81,3.98-1.46,6.17l.13.8s.02.15.14.23.23.07.26.06l17.19-2.79-.41-2.58c-.12-.73-.19-1.45-.25-2.18Z"/>
        <path class="cls-2" d="m83,48.67l-12.83,2.08,2.9,17.89c.88,5.42,6,9.11,11.42,8.23l3.13-.51-.14-.84c-.26-.93-.48-1.89-.64-2.87l-3.84-23.98Zm-2.71,23.49c-.09.02-.19.02-.28.02-.84,0-1.58-.61-1.72-1.46l-2.78-17.15c-.15-.95.49-1.84,1.44-2,.95-.16,1.84.49,2,1.44l2.78,17.15c.15.95-.49,1.84-1.44,2Z"/>
        <path class="cls-2" d="m98.39,73.11c2.13,6.36,8.61,10.46,15.44,9.36l37.57-6.02c7.61-1.22,12.8-8.4,11.58-16.01l-6.02-37.57c-1.22-7.61-8.4-12.8-16.01-11.58l-37.57,6.02c-7.01,1.12-11.95,7.3-11.74,14.22l2.49,15.33,4.26,26.24Zm18.59-21.87c.96,5.97,6.6,10.06,12.57,9.1,5.97-.96,10.06-6.6,9.1-12.57l10.98-1.76c1.93,12.03-6.29,23.38-18.32,25.31-12.03,1.93-23.38-6.29-25.31-18.32l10.98-1.76Z"/>
        <path class="cls-1" d="m135.02,90.34c6.99-.76,13.43,4.07,14.56,11.1l5.94,36.95,11.38-1.83,7.9-1.27-.92-5.7-1.63.26c-3.46.56-6.73-1.8-7.28-5.26l-4.1-25.48c-.75-4.68-2.85-8.82-5.83-12.07-.62.15-1.25.28-1.89.39l-18.14,2.91Z"/>
        <path class="cls-1" d="m109.87,141.12h19.53v-5.77h-1.65c-3.51,0-6.35-2.84-6.35-6.35v-25.31c0-5.89,3.84-10.88,9.14-12.63l-14.95,2.4c-1.26.2-2.51.3-3.74.32-1.27,2.88-1.98,6.07-1.98,9.42v37.93Z"/>
        <path class="cls-1" d="m86.85,72.65c.16.98.38,1.94.64,2.87l-4.36-26.87-.13.02,3.84,23.98Z"/>
        <path class="cls-1" d="m134.7,90.39c-1.45,0-2.85.24-4.16.67l4.48-.72c-.11.01-.22.02-.32.03v.02Z"/>
        <path class="cls-1" d="m80.58,32.91c.05.72.13,1.45.25,2.18l.41,2.58.11-.02-.77-4.74Z"/>
        <path class="cls-1" d="m133.3,79.76l1.13,8.58-.4-8.64c8.09-1.3,15.88,1.71,21.02,7.34,12.62-3.03,21-15.34,18.91-28.36l-6.02-37.57c-2.19-13.66-15.09-22.99-28.75-20.8l-37.57,6.02c-6.7,1.07-12.35,4.72-16.12,9.77l3.54-.57,2.59,16c-.21-6.91,4.73-13.09,11.74-14.22l37.57-6.02c7.61-1.22,14.79,3.98,16.01,11.58l6.02,37.57c1.22,7.61-3.98,14.79-11.58,16.01l-37.57,6.02c-6.84,1.1-13.32-3-15.44-9.36l2.02,12.47-6.32,1.03c4.65,4.53,10.99,7.22,17.76,7.16,3.63-8.25,11.86-14.01,21.45-14.01Z"/>
        <path class="cls-1" d="m134.03,79.71l.4,8.64.27,2.03c.11-.01.22-.02.32-.03l18.14-2.91c.64-.1,1.27-.24,1.89-.39-5.15-5.63-12.93-8.64-21.02-7.34Z"/>
        <path class="cls-1" d="m130.54,91.06c1.31-.43,2.71-.67,4.16-.67v-.02c-.06,0-.12,0-.17.02l-.09-2.04-1.13-8.58c-9.59,0-17.82,5.76-21.45,14.01,1.24-.01,2.49-.11,3.74-.32l14.95-2.4Z"/>
        <path class="cls-1" d="m134.52,90.39c.06,0,.11,0,.17-.02l-.27-2.03.09,2.04Z"/>
        <path class="cls-1" d="m131.31,71.32c12.03-1.93,20.24-13.28,18.32-25.31l-10.98,1.76c.96,5.97-3.12,11.61-9.1,12.57-5.97.96-11.61-3.12-12.57-9.1l-10.98,1.76c1.93,12.03,13.28,20.24,25.31,18.32Z"/>
        <path class="cls-1" d="m87.62,76.37l-3.13.51c-5.42.88-10.54-2.82-11.42-8.23l-2.9-17.89-4.34.7c-.62.1-1.25.15-1.87.15-1.79,0-3.54-.42-5.14-1.23l3.25,20.04c1.68,10.35,10.66,17.73,20.82,17.73,1.12,0,2.25-.09,3.39-.27l7.81-1.27c-3.06-2.98-5.38-6.77-6.6-11.08l.14.84Z"/>
        <path class="cls-1" d="m93.98,46.89l3.85,24c.12.77.32,1.5.56,2.22l-4.26-26.24-.15.02Z"/>
        <path class="cls-1" d="m98.39,73.11c-.24-.72-.44-1.45-.56-2.22l-3.85-24-10.85,1.76,4.36,26.87c1.22,4.32,3.54,8.1,6.6,11.08l6.32-1.03-2.02-12.47Z"/>
        <path class="cls-1" d="m92.21,35.89l.13-.02,1.78,11-2.49-15.33c.02.59.06,1.19.16,1.79l.41,2.56Z"/>
        <rect class="cls-1" x="70.09" y="49.71" width="13" height="0" transform="translate(-6.97 12.9) rotate(-9.21)"/>
        <path class="cls-1" d="m81.24,37.67h0s-17.19,2.79-17.19,2.79c-.04,0-.15.02-.26-.06s-.14-.2-.14-.23l-.13-.8c-.35-2.18.16-4.37,1.46-6.17,1.29-1.79,3.21-2.98,5.39-3.33l9.48-1.54.74,4.58c-.45-6.18,1.42-12.1,4.93-16.8l-16.94,2.75c-5.12.83-9.61,3.61-12.65,7.82-3.03,4.21-4.25,9.35-3.42,14.47l.13.8c.49,3.03,2.13,5.69,4.63,7.49.5.36,1.02.68,1.56.95l-1.43-8.85,23.85-3.87Z"/>
        <rect class="cls-1" x="83" y="48.66" width=".13" height="0"/>
        <path class="cls-1" d="m80.58,32.91l.77,4.74-.11.02h0s10.98-1.78,10.98-1.78l-.41-2.56c-.1-.6-.14-1.2-.16-1.79l-2.59-16-3.54.57c-3.51,4.7-5.38,10.61-4.93,16.8Z"/>
        <path class="cls-1" d="m65.83,51.46l4.34-.7h0s12.83-2.08,12.83-2.08l-1.76-11-23.85,3.87,1.43,8.85c1.6.81,3.35,1.23,5.14,1.23.62,0,1.24-.05,1.87-.15Z"/>
        <polygon class="cls-1" points="92.35 35.87 92.21 35.89 93.98 46.89 94.13 46.87 92.35 35.87"/>
        <polygon class="cls-1" points="81.24 37.67 83 48.67 83.13 48.65 83.13 48.65 93.98 46.89 92.21 35.89 81.24 37.67"/>
        <path class="cls-1" d="m78.95,53.01c-.15-.95-1.05-1.6-2-1.44-.95.15-1.59,1.05-1.44,2l2.78,17.15c.14.85.88,1.46,1.72,1.46.09,0,.19,0,.28-.02.95-.15,1.59-1.05,1.44-2l-2.78-17.15Z"/>
        <path class="cls-1" d="m179.25,118.85c.21.03.43.05.64.05,2.03,0,3.81-1.48,4.13-3.55l8.59-56.05c.35-2.28-1.22-4.41-3.5-4.76-2.28-.35-4.41,1.22-4.76,3.5l-8.59,56.05c-.35,2.28,1.22,4.41,3.5,4.76Z"/>
      </g>
      <g>
        <path class="cls-1" d="m50.98,87.21l.9.73c3.83,3.13,8.76,9.52,13.18,17.09.54.92,1.48,1.17,2.19,1.1.9-.1,1.61-.67,1.89-1.53l.36-1.11.87.78c2.79,2.47,5.98,6.2,7.51,7.99.81.94,2.23,1.05,3.18.25.45-.39.73-.93.78-1.53.05-.6-.14-1.18-.53-1.63-3.91-4.56-7.98-9.04-11.28-10.92-.82-.47-1.7-.38-2.67.25l-.64.42-.42-.65c-6.1-9.46-11.89-15.39-16.3-16.69-.21-.06-.42-.09-.64-.09-.42,0-.84.12-1.2.35-.55.35-.92.91-1.02,1.55-.72,4.62-2.88,9.78-6.08,14.53-13.08,16.06-15.26,26.83-17.01,35.49-1.01,4.97-1.87,9.26-4.55,13.42-2.28,3.84-5.48,7.43-8.87,11.22-3.5,3.91-7.11,7.96-10.25,12.83-.49.77-.49,1.69.02,2.45.39.59,1.18,1.16,2.24.99h0c.63-.1,1.19-.47,1.53-1,2.95-4.6,6.47-8.53,9.87-12.34,3.51-3.93,6.83-7.64,9.29-11.79,3.09-4.8,4.06-9.6,5.08-14.68,1.77-8.74,3.76-18.6,16.17-33.81,1.56-1.96,4.63-7.56,6.09-12.57l.32-1.11Z"/>
        <path class="cls-1" d="m49.87,126.89c-1.04-.63-2.4-.32-3.06.69l-.04.06c-7.91,12.88-8.11,20.49-8.29,27.21v.18s-.09.16-.09.16c-2.56,4.95-7.21,12.11-11.36,16.14-.89.87-.9,2.29-.04,3.17.42.43.99.67,1.58.68.6-.01,1.16-.22,1.59-.64,1.73-1.68,3.66-3.98,5.73-6.83l.98-1.35.39,1.62c.3,1.27,1.31,1.73,2.14,1.73.83.02,1.89-.44,2.2-1.7,1.17-4.76,1.27-8.6,1.36-12.32.17-7.11.34-13.82,7.65-25.72.31-.51.41-1.11.27-1.7-.14-.58-.5-1.08-1.01-1.39Z"/>
        <path class="cls-1" d="m99.24,140.89c-.17,0-.35.02-.53.06-12.11,2.8-23.14,8.78-32.81,17.79-.83.77-.83,1.77-.56,2.46.27.69.97,1.44,2.1,1.44.57,0,1.11-.22,1.54-.61,9.11-8.47,19.45-14.09,30.75-16.69.59-.14,1.08-.49,1.4-1s.42-1.11.28-1.7c-.25-1.05-1.15-1.74-2.17-1.74Z"/>
        <path class="cls-1" d="m206.72,165.62c-1.75-2.62-5.08-3.6-8.7-2.54-.96.28-2.01-.12-2.67-1l-.26-.33c-2.26-2.84-6.36-3.44-9.34-1.34-.98.67-2.37.47-3.17-.45-1.4-1.65-2.82-3.05-4.22-4.15-2.57-2.01-6.29-1.92-8.83.21-2.37,2-4.28,3.04-5.83,3.18-2.58.22-4.83,1.98-5.89,4.6-.52,1.27-1.96,1.86-3.29,1.34-.89-.35-1.78-.63-2.63-.84-2.27-.53-4.65.15-6.37,1.83-1.72,1.69-3.42,3.08-5.06,4.13-.6.39-1.4.46-2.08.2-1.78-.72-3.56-1.07-5.36-1.07-4.85,0-9.76,2.6-14.66,7.77-.75.79-.71,1.77-.43,2.43.29.66.98,1.37,2.06,1.37.62,0,1.2-.25,1.63-.7,7.19-7.52,12.05-6.78,15.08-5.57h0c2.04.82,4.36.6,6.2-.58,2.76-1.78,4.1-3.1,4.99-3.98,1.64-1.62,2.21-1.84,5-.74,3.62,1.41,7.72-.36,9.15-3.96.38-.93,1.2-1.61,2.05-1.69,2.55-.22,5.2-1.56,8.36-4.22.92-.78,2.22-.84,3.16-.12,1.12.86,2.28,2.01,3.56,3.5,2.28,2.68,6.34,3.2,9.24,1.19.98-.69,2.41-.47,3.18.5l.19.25c1.81,2.39,4.76,3.4,7.51,2.58.82-.23,2.8-.63,3.69.71.51.77.87,1.81,1.14,3.27.11.59.45,1.1.95,1.44.5.33,1.09.45,1.68.34.6-.11,1.11-.45,1.44-.95.33-.5.45-1.09.34-1.68-.26-1.32-.73-3.27-1.82-4.91Z"/>
        <path class="cls-1" d="m235.66,136.05c-1.63-3.78-5.41-6.79-10.13-8.02-4-1.05-5.62-3.51-7.33-6.11-1.07-1.63-2.18-3.31-3.98-4.98-2.08-1.93-5.17-2.05-7.52-.29-9.17,6.84-11.63,8.68-19.79,10.61-1.21.28-1.96,1.5-1.67,2.71.14.59.49,1.09,1.01,1.4.51.32,1.11.41,1.7.27,9.04-2.14,12.19-4.49,21.55-11.45.53-.39,1.23-.36,1.68.07,1.17,1.08,2.57,2.92,3.95,5.18,2.12,3.48,5.41,5.94,9.27,6.95,1.1.29,2.32.7,3.82,1.7,2.7,1.79,3.91,3.99,3.95,7.13.02,1.23,1.02,2.22,2.25,2.22,1.27-.02,2.26-1.04,2.25-2.28-.02-1.93-.34-3.55-1-5.11Z"/>
      </g>
    </g>
  </g>
</svg>