<svg width="149" height="163" viewBox="0 0 149 163" fill="none" xmlns="http://www.w3.org/2000/svg">
<g clip-path="url(#clip0_6451_1467)">
<path d="M30.9106 88.6C29.7106 84.49 30.7706 80.18 33.7306 77.09L89.7906 18.54C92.7506 15.45 97.0106 14.21 101.171 15.23C105.331 16.25 108.531 19.31 109.731 23.43L132.401 101.25C133.601 105.36 132.541 109.67 129.581 112.76C126.621 115.85 122.361 117.09 118.201 116.07L39.4706 96.79C35.3106 95.77 32.1106 92.71 30.9106 88.59V88.6Z" fill="white"/>
<path d="M85.6199 78.74C77.7599 76.82 72.9299 68.86 74.8599 61L60.4199 57.46C56.5499 73.28 66.2699 89.3 82.0899 93.17C97.9099 97.04 113.93 87.32 117.8 71.5L103.36 67.96C101.44 75.82 93.4799 80.65 85.6199 78.72V78.74Z" fill="#171717"/>
<path d="M142.14 136.72L140.95 138.56C138.41 142.48 133.18 143.59 129.26 141.05L111.98 129.85L114.66 130.51C124.04 132.81 133.63 130.01 140.31 123.04C146.99 116.06 149.37 106.36 146.66 97.0899L123.99 19.2699C121.29 9.99992 114.07 3.08992 104.69 0.789923C95.31 -1.51008 85.72 1.28992 79.04 8.25992L22.98 66.8099C16.3 73.7899 13.92 83.4899 16.63 92.7599C19.33 102.03 26.55 108.94 35.93 111.24L43.54 113.1L17.55 117.1C12.94 117.81 8.62 114.64 7.91 110.03L7.58 107.86L0 109.03L1.62 119.55L3.95 134.7L61.66 125.83C69.95 124.56 78.42 126.37 85.47 130.94L134.46 162.7L142.8 149.84L148.59 140.91L142.15 136.74L142.14 136.72ZM30.91 88.5999C29.71 84.4899 30.77 80.1799 33.73 77.0899L89.79 18.5399C92.75 15.4499 97.01 14.2099 101.17 15.2299C105.33 16.2499 108.53 19.3099 109.73 23.4299L132.4 101.25C133.6 105.36 132.54 109.67 129.58 112.76C126.62 115.85 122.36 117.09 118.2 116.07L39.47 96.7899C35.31 95.7699 32.11 92.7099 30.91 88.5899V88.5999Z" fill="#171717"/>
</g>
<defs>
<clipPath id="clip0_6451_1467">
<rect width="148.58" height="162.69" fill="white"/>
</clipPath>
</defs>
</svg>
