<svg width="135" height="192" viewBox="0 0 135 192" fill="none" xmlns="http://www.w3.org/2000/svg">
<g clip-path="url(#clip0_6451_1482)">
<path d="M118.09 102.84C115.95 106.55 112.11 108.77 107.83 108.77H26.7595C22.4795 108.77 18.6395 106.55 16.4995 102.84C14.3595 99.1303 14.3595 94.7003 16.4995 90.9903L57.0295 20.7904C59.1695 17.0804 63.0095 14.8604 67.2895 14.8604C71.5695 14.8604 75.4095 17.0804 77.5495 20.7904L118.08 90.9903C120.22 94.7003 120.22 99.1303 118.08 102.84H118.09Z" fill="white"/>
<path d="M67.29 80.2501C59.2 80.2501 52.62 73.6701 52.62 65.5801H37.75C37.75 81.8701 51 95.1201 67.29 95.1201C83.58 95.1201 96.83 81.8701 96.83 65.5801H81.96C81.96 73.6701 75.38 80.2501 67.29 80.2501Z" fill="#171717"/>
<path d="M130.959 83.56L90.4286 13.36C85.5986 5 76.9486 0 67.2886 0C57.6286 0 48.9786 4.99 44.1486 13.36L3.61859 83.56C-1.21141 91.92 -1.21141 101.91 3.61859 110.28C8.44859 118.64 17.0986 123.64 26.7586 123.64H38.2886C35.0386 128.57 33.1386 134.47 33.1386 140.82V191.41H59.1886V183.71H56.9886C52.3086 183.71 48.5086 179.92 48.5086 175.24V141.48C48.5086 131.68 56.4486 123.73 66.2586 123.73C76.0686 123.73 84.0086 131.67 84.0086 141.48V191.41H110.059V183.71H107.859C103.179 183.71 99.3786 179.92 99.3786 175.24V140.82C99.3786 134.47 97.4786 128.57 94.2286 123.64H107.819C117.479 123.64 126.129 118.65 130.959 110.28C135.789 101.92 135.789 91.93 130.959 83.56ZM118.089 102.84C115.949 106.55 112.109 108.77 107.829 108.77H26.7586C22.4786 108.77 18.6386 106.55 16.4986 102.84C14.3586 99.13 14.3586 94.7 16.4986 90.99L57.0286 20.79C59.1686 17.08 63.0086 14.86 67.2886 14.86C71.5686 14.86 75.4086 17.08 77.5486 20.79L118.079 90.99C120.219 94.7 120.219 99.13 118.079 102.84H118.089Z" fill="#171717"/>
</g>
<defs>
<clipPath id="clip0_6451_1482">
<rect width="134.58" height="191.4" fill="white"/>
</clipPath>
</defs>
</svg>
