<?xml version="1.0" standalone="no"?>
<!DOCTYPE svg PUBLIC "-//W3C//DTD SVG 20010904//EN"
 "http://www.w3.org/TR/2001/REC-SVG-20010904/DTD/svg10.dtd">
<svg version="1.0" xmlns="http://www.w3.org/2000/svg"
 width="594.000000pt" height="420.000000pt" viewBox="0 0 594.000000 420.000000"
 preserveAspectRatio="xMidYMid meet">

<g transform="translate(0.000000,420.000000) scale(0.100000,-0.100000)"
fill="#ff4929" stroke="none">
<path d="M1524 3830 c-57 -12 -136 -63 -167 -108 -61 -88 -57 29 -57 -1609 0
-1470 1 -1499 20 -1542 45 -97 109 -148 217 -171 75 -16 148 5 280 83 59 35
205 119 323 187 118 68 325 187 460 266 135 78 261 151 280 161 52 30 211 122
420 243 274 159 499 289 550 318 237 133 382 222 417 255 114 108 114 295 1
404 -33 32 -195 129 -703 421 -148 85 -353 203 -455 262 -102 59 -201 117
-220 127 -55 31 -527 305 -710 411 -91 53 -194 113 -230 133 -36 20 -108 61
-160 91 -54 31 -118 60 -148 67 -59 12 -60 12 -118 1z"/>
</g>
</svg>
